# mfmc-paper1-benchmark 1.0.0
o hemisphere_shell_ro0p05_ri0p048
v 0.050000000000000003 0 0
v 0.04957224306869052 0.0065263096110025794 0
v 0.04957224306869052 0.0063039310036259542 0.0016891332215630912
v 0.04957224306869052 0.0056519499160907717 0.0032631548055012892
v 0.04957224306869052 0.0046147977820628636 0.0046147977820628627
v 0.04957224306869052 0.0032631548055012905 0.0056519499160907708
v 0.04957224306869052 0.0016891332215630912 0.0063039310036259542
v 0.04957224306869052 3.9962120876794585e-19 0.0065263096110025794
v 0.04957224306869052 -0.0016891332215630904 0.0063039310036259542
v 0.04957224306869052 -0.0032631548055012884 0.0056519499160907717
v 0.04957224306869052 -0.0046147977820628627 0.0046147977820628636
v 0.04957224306869052 -0.0056519499160907717 0.0032631548055012892
v 0.04957224306869052 -0.0063039310036259542 0.001689133221563093
v 0.04957224306869052 -0.0065263096110025794 7.992424175358917e-19
v 0.04957224306869052 -0.0063039310036259542 -0.0016891332215630914
v 0.04957224306869052 -0.0056519499160907725 -0.0032631548055012879
v 0.04957224306869052 -0.0046147977820628653 -0.0046147977820628601
v 0.04957224306869052 -0.0032631548055012927 -0.0056519499160907699
v 0.04957224306869052 -0.0016891332215630904 -0.0063039310036259542
v 0.04957224306869052 -1.1988636263038375e-18 -0.0065263096110025794
v 0.04957224306869052 0.0016891332215630882 -0.006303931003625955
v 0.04957224306869052 0.0032631548055012905 -0.0056519499160907708
v 0.04957224306869052 0.0046147977820628619 -0.0046147977820628636
v 0.04957224306869052 0.0056519499160907699 -0.0032631548055012927
v 0.04957224306869052 0.0063039310036259533 -0.0016891332215630966
v 0.04829629131445342 0.012940952255126037 0
v 0.04829629131445342 0.012499999999999999 0.0033493649053890334
v 0.04829629131445342 0.011207193402100669 0.0064704761275630176
v 0.04829629131445342 0.0091506350946109656 0.0091506350946109639
v 0.04829629131445342 0.0064704761275630202 0.011207193402100668
v 0.04829629131445342 0.0033493649053890334 0.012499999999999999
v 0.04829629131445342 7.9240478785794118e-19 0.012940952255126037
v 0.04829629131445342 -0.0033493649053890316 0.012499999999999999
v 0.04829629131445342 -0.0064704761275630159 0.011207193402100669
v 0.04829629131445342 -0.0091506350946109639 0.0091506350946109656
v 0.04829629131445342 -0.011207193402100669 0.0064704761275630176
v 0.04829629131445342 -0.012499999999999997 0.0033493649053890368
v 0.04829629131445342 -0.012940952255126037 1.5848095757158824e-18
v 0.04829629131445342 -0.012499999999999999 -0.0033493649053890338
v 0.04829629131445342 -0.011207193402100669 -0.006470476127563015
v 0.04829629131445342 -0.0091506350946109708 -0.0091506350946109604
v 0.04829629131445342 -0.0064704761275630246 -0.011207193402100664
v 0.04829629131445342 -0.0033493649053890316 -0.012499999999999999
v 0.04829629131445342 -2.3772143635738232e-18 -0.012940952255126037
v 0.04829629131445342 0.0033493649053890273 -0.012500000000000001
v 0.04829629131445342 0.0064704761275630202 -0.011207193402100668
v 0.04829629131445342 0.0091506350946109639 -0.0091506350946109673
v 0.04829629131445342 0.011207193402100664 -0.0064704761275630246
v 0.04829629131445342 0.012499999999999995 -0.0033493649053890442
v 0.046193976625564341 0.019134171618254491 0
v 0.046193976625564341 0.018482190530719308 0.0049522880270643811
v 0.046193976625564341 0.016570678701779591 0.0095670858091272439
v 0.046193976625564341 0.013529902503654927 0.013529902503654925
v 0.046193976625564341 0.0095670858091272473 0.016570678701779591
v 0.046193976625564341 0.0049522880270643811 0.018482190530719308
v 0.046193976625564341 1.1716301013315747e-18 0.019134171618254491
v 0.046193976625564341 -0.0049522880270643794 0.018482190530719308
v 0.046193976625564341 -0.0095670858091272421 0.016570678701779591
v 0.046193976625564341 -0.013529902503654925 0.013529902503654927
v 0.046193976625564341 -0.016570678701779591 0.0095670858091272439
v 0.046193976625564341 -0.018482190530719308 0.0049522880270643863
v 0.046193976625564341 -0.019134171618254491 2.3432602026631494e-18
v 0.046193976625564341 -0.018482190530719308 -0.0049522880270643829
v 0.046193976625564341 -0.016570678701779595 -0.0095670858091272404
v 0.046193976625564341 -0.013529902503654934 -0.013529902503654918
v 0.046193976625564341 -0.0095670858091272543 -0.016570678701779588
v 0.046193976625564341 -0.0049522880270643794 -0.018482190530719308
v 0.046193976625564341 -3.5148903039947242e-18 -0.019134171618254491
v 0.046193976625564341 0.0049522880270643733 -0.018482190530719311
v 0.046193976625564341 0.0095670858091272473 -0.016570678701779591
v 0.046193976625564341 0.013529902503654923 -0.01352990250365493
v 0.046193976625564341 0.016570678701779588 -0.0095670858091272543
v 0.046193976625564341 0.018482190530719304 -0.0049522880270643976
v 0.04330127018922194 0.024999999999999998 0
v 0.04330127018922194 0.024148145657226706 0.0064704761275630176
v 0.04330127018922194 0.021650635094610966 0.012499999999999997
v 0.04330127018922194 0.017677669529663688 0.017677669529663684
v 0.04330127018922194 0.012500000000000002 0.021650635094610963
v 0.04330127018922194 0.0064704761275630176 0.024148145657226706
v 0.04330127018922194 1.5308084989341914e-18 0.024999999999999998
v 0.04330127018922194 -0.006470476127563015 0.024148145657226706
v 0.04330127018922194 -0.012499999999999994 0.021650635094610966
v 0.04330127018922194 -0.017677669529663684 0.017677669529663688
v 0.04330127018922194 -0.021650635094610966 0.012499999999999997
v 0.04330127018922194 -0.024148145657226703 0.0064704761275630246
v 0.04330127018922194 -0.024999999999999998 3.0616169978683828e-18
v 0.04330127018922194 -0.024148145657226706 -0.0064704761275630194
v 0.04330127018922194 -0.02165063509461097 -0.012499999999999992
v 0.04330127018922194 -0.017677669529663695 -0.017677669529663678
v 0.04330127018922194 -0.012500000000000009 -0.021650635094610956
v 0.04330127018922194 -0.006470476127563015 -0.024148145657226706
v 0.04330127018922194 -4.5924254968025736e-18 -0.024999999999999998
v 0.04330127018922194 0.0064704761275630072 -0.02414814565722671
v 0.04330127018922194 0.012500000000000002 -0.021650635094610963
v 0.04330127018922194 0.017677669529663681 -0.017677669529663691
v 0.04330127018922194 0.021650635094610956 -0.012500000000000009
v 0.04330127018922194 0.024148145657226699 -0.0064704761275630384
v 0.039667667014561758 0.030438071450436033 0
v 0.039667667014561758 0.029400919316408126 0.0078779525875641524
v 0.039667667014561758 0.026360143118283462 0.015219035725218015
v 0.039667667014561758 0.021522966728843972 0.021522966728843969
v 0.039667667014561758 0.01521903572521802 0.026360143118283458
v 0.039667667014561758 0.0078779525875641524 0.029400919316408126
v 0.039667667014561758 1.8637943386997461e-18 0.030438071450436033
v 0.039667667014561758 -0.0078779525875641489 0.029400919316408126
v 0.039667667014561758 -0.015219035725218009 0.026360143118283462
v 0.039667667014561758 -0.021522966728843969 0.021522966728843972
v 0.039667667014561758 -0.026360143118283462 0.015219035725218015
v 0.039667667014561758 -0.029400919316408123 0.0078779525875641611
v 0.039667667014561758 -0.030438071450436033 3.7275886773994921e-18
v 0.039667667014561758 -0.029400919316408126 -0.0078779525875641541
v 0.039667667014561758 -0.026360143118283465 -0.015219035725218008
v 0.039667667014561758 -0.021522966728843983 -0.021522966728843958
v 0.039667667014561758 -0.01521903572521803 -0.026360143118283452
v 0.039667667014561758 -0.0078779525875641489 -0.029400919316408126
v 0.039667667014561758 -5.5913830160992382e-18 -0.030438071450436033
v 0.039667667014561758 0.0078779525875641385 -0.02940091931640813
v 0.039667667014561758 0.01521903572521802 -0.026360143118283458
v 0.039667667014561758 0.021522966728843965 -0.021522966728843976
v 0.039667667014561758 0.026360143118283452 -0.01521903572521803
v 0.039667667014561758 0.02940091931640812 -0.0078779525875641784
v 0.035355339059327383 0.035355339059327376 0
v 0.035355339059327383 0.034150635094610964 0.0091506350946109656
v 0.035355339059327383 0.030618621784789728 0.017677669529663684
v 0.035355339059327383 0.025000000000000001 0.024999999999999998
v 0.035355339059327383 0.017677669529663691 0.030618621784789725
v 0.035355339059327383 0.0091506350946109656 0.034150635094610964
v 0.035355339059327383 2.1648901405887331e-18 0.035355339059327376
v 0.035355339059327383 -0.0091506350946109621 0.034150635094610964
v 0.035355339059327383 -0.017677669529663681 0.030618621784789728
v 0.035355339059327383 -0.024999999999999998 0.025000000000000001
v 0.035355339059327383 -0.030618621784789728 0.017677669529663684
v 0.035355339059327383 -0.034150635094610964 0.0091506350946109743
v 0.035355339059327383 -0.035355339059327376 4.3297802811774661e-18
v 0.035355339059327383 -0.034150635094610964 -0.0091506350946109673
v 0.035355339059327383 -0.030618621784789732 -0.017677669529663678
v 0.035355339059327383 -0.025000000000000012 -0.024999999999999984
v 0.035355339059327383 -0.017677669529663705 -0.030618621784789718
v 0.035355339059327383 -0.0091506350946109621 -0.034150635094610964
v 0.035355339059327383 -6.4946704217661992e-18 -0.035355339059327376
v 0.035355339059327383 0.00915063509461095 -0.03415063509461097
v 0.035355339059327383 0.017677669529663691 -0.030618621784789725
v 0.035355339059327383 0.024999999999999994 -0.025000000000000005
v 0.035355339059327383 0.030618621784789718 -0.017677669529663705
v 0.035355339059327383 0.034150635094610957 -0.0091506350946109951
v 0.030438071450436033 0.039667667014561758 0
v 0.030438071450436033 0.038316024038000183 0.010266747698153634
v 0.030438071450436033 0.034353207343472504 0.019833833507280876
v 0.030438071450436033 0.028049276339846552 0.028049276339846548
v 0.030438071450436033 0.019833833507280883 0.034353207343472504
v 0.030438071450436033 0.010266747698153634 0.038316024038000183
v 0.030438071450436033 2.4289440719513051e-18 0.039667667014561758
v 0.030438071450436033 -0.01026674769815363 0.038316024038000183
v 0.030438071450436033 -0.019833833507280869 0.034353207343472504
v 0.030438071450436033 -0.028049276339846548 0.028049276339846552
v 0.030438071450436033 -0.034353207343472504 0.019833833507280876
v 0.030438071450436033 -0.038316024038000183 0.010266747698153646
v 0.030438071450436033 -0.039667667014561758 4.8578881439026103e-18
v 0.030438071450436033 -0.038316024038000183 -0.010266747698153635
v 0.030438071450436033 -0.034353207343472511 -0.019833833507280869
v 0.030438071450436033 -0.028049276339846566 -0.028049276339846534
v 0.030438071450436033 -0.019833833507280896 -0.034353207343472497
v 0.030438071450436033 -0.01026674769815363 -0.038316024038000183
v 0.030438071450436033 -7.2868322158539143e-18 -0.039667667014561758
v 0.030438071450436033 0.010266747698153616 -0.03831602403800019
v 0.030438071450436033 0.019833833507280883 -0.034353207343472504
v 0.030438071450436033 0.028049276339846545 -0.028049276339846555
v 0.030438071450436033 0.034353207343472497 -0.019833833507280896
v 0.030438071450436033 0.038316024038000177 -0.010266747698153667
v 0.025000000000000008 0.043301270189221933 0
v 0.025000000000000008 0.041825815186890394 0.011207193402100668
v 0.025000000000000008 0.037500000000000006 0.021650635094610963
v 0.025000000000000008 0.030618621784789728 0.030618621784789725
v 0.025000000000000008 0.02165063509461097 0.037499999999999999
v 0.025000000000000008 0.011207193402100668 0.041825815186890394
v 0.025000000000000008 2.6514380968122674e-18 0.043301270189221933
v 0.025000000000000008 -0.011207193402100663 0.041825815186890394
v 0.025000000000000008 -0.021650635094610956 0.037500000000000006
v 0.025000000000000008 -0.030618621784789725 0.030618621784789728
v 0.025000000000000008 -0.037500000000000006 0.021650635094610963
v 0.025000000000000008 -0.041825815186890394 0.01120719340210068
v 0.025000000000000008 -0.043301270189221933 5.3028761936245347e-18
v 0.025000000000000008 -0.041825815186890394 -0.011207193402100671
v 0.025000000000000008 -0.037500000000000006 -0.021650635094610956
v 0.025000000000000008 -0.030618621784789742 -0.030618621784789708
v 0.025000000000000008 -0.021650635094610987 -0.037499999999999992
v 0.025000000000000008 -0.011207193402100663 -0.041825815186890394
v 0.025000000000000008 -7.9543142904368009e-18 -0.043301270189221933
v 0.025000000000000008 0.011207193402100649 -0.041825815186890401
v 0.025000000000000008 0.02165063509461097 -0.037499999999999999
v 0.025000000000000008 0.030618621784789718 -0.030618621784789732
v 0.025000000000000008 0.037499999999999992 -0.021650635094610987
v 0.025000000000000008 0.041825815186890387 -0.011207193402100704
v 0.019134171618254495 0.046193976625564341 0
v 0.019134171618254495 0.044619955041626143 0.011955880919716727
v 0.019134171618254495 0.04000515725956328 0.023096988312782167
v 0.019134171618254495 0.032664074121909414 0.032664074121909414
v 0.019134171618254495 0.023096988312782174 0.04000515725956328
v 0.019134171618254495 0.011955880919716727 0.044619955041626143
v 0.019134171618254495 2.828565280719251e-18 0.046193976625564341
v 0.019134171618254495 -0.011955880919716722 0.044619955041626143
v 0.019134171618254495 -0.02309698831278216 0.04000515725956328
v 0.019134171618254495 -0.032664074121909414 0.032664074121909414
v 0.019134171618254495 -0.04000515725956328 0.023096988312782167
v 0.019134171618254495 -0.044619955041626136 0.011955880919716739
v 0.019134171618254495 -0.046193976625564341 5.6571305614385021e-18
v 0.019134171618254495 -0.044619955041626143 -0.011955880919716728
v 0.019134171618254495 -0.040005157259563287 -0.023096988312782157
v 0.019134171618254495 -0.032664074121909435 -0.032664074121909401
v 0.019134171618254495 -0.023096988312782191 -0.040005157259563266
v 0.019134171618254495 -0.011955880919716722 -0.044619955041626143
v 0.019134171618254495 -8.4856958421577535e-18 -0.046193976625564341
v 0.019134171618254495 0.011955880919716706 -0.04461995504162615
v 0.019134171618254495 0.023096988312782174 -0.04000515725956328
v 0.019134171618254495 0.032664074121909407 -0.032664074121909421
v 0.019134171618254495 0.040005157259563266 -0.023096988312782191
v 0.019134171618254495 0.044619955041626136 -0.011955880919716765
v 0.012940952255126037 0.04829629131445342 0
v 0.012940952255126037 0.046650635094610975 0.012500000000000001
v 0.012940952255126037 0.041825815186890401 0.024148145657226706
v 0.012940952255126037 0.03415063509461097 0.034150635094610964
v 0.012940952255126037 0.024148145657226717 0.041825815186890394
v 0.012940952255126037 0.012500000000000001 0.046650635094610975
v 0.012940952255126037 2.9572949284466749e-18 0.04829629131445342
v 0.012940952255126037 -0.012499999999999995 0.046650635094610975
v 0.012940952255126037 -0.024148145657226699 0.041825815186890401
v 0.012940952255126037 -0.034150635094610964 0.03415063509461097
v 0.012940952255126037 -0.041825815186890401 0.024148145657226706
v 0.012940952255126037 -0.046650635094610968 0.012500000000000015
v 0.012940952255126037 -0.04829629131445342 5.9145898568933498e-18
v 0.012940952255126037 -0.046650635094610975 -0.012500000000000002
v 0.012940952255126037 -0.041825815186890408 -0.024148145657226696
v 0.012940952255126037 -0.034150635094610991 -0.03415063509461095
v 0.012940952255126037 -0.024148145657226731 -0.041825815186890387
v 0.012940952255126037 -0.012499999999999995 -0.046650635094610975
v 0.012940952255126037 -8.8718847853400232e-18 -0.04829629131445342
v 0.012940952255126037 0.012499999999999978 -0.046650635094610975
v 0.012940952255126037 0.024148145657226717 -0.041825815186890394
v 0.012940952255126037 0.034150635094610964 -0.034150635094610977
v 0.012940952255126037 0.041825815186890387 -0.024148145657226731
v 0.012940952255126037 0.046650635094610961 -0.012500000000000041
v 0.0065263096110025863 0.04957224306869052 0
v 0.0065263096110025863 0.047883109847127431 0.012830240614628534
v 0.0065263096110025863 0.042930821820063053 0.024786121534345257
v 0.0065263096110025863 0.035052869232498896 0.035052869232498889
v 0.0065263096110025863 0.024786121534345267 0.042930821820063046
v 0.0065263096110025863 0.012830240614628534 0.047883109847127431
v 0.0065263096110025863 3.0354244400313206e-18 0.04957224306869052
v 0.0065263096110025863 -0.012830240614628527 0.047883109847127431
v 0.0065263096110025863 -0.02478612153434525 0.042930821820063053
v 0.0065263096110025863 -0.035052869232498889 0.035052869232498896
v 0.0065263096110025863 -0.042930821820063053 0.024786121534345257
v 0.0065263096110025863 -0.047883109847127424 0.012830240614628547
v 0.0065263096110025863 -0.04957224306869052 6.0708488800626411e-18
v 0.0065263096110025863 -0.047883109847127431 -0.012830240614628535
v 0.0065263096110025863 -0.042930821820063053 -0.024786121534345246
v 0.0065263096110025863 -0.035052869232498916 -0.035052869232498875
v 0.0065263096110025863 -0.024786121534345281 -0.042930821820063032
v 0.0065263096110025863 -0.012830240614628527 -0.047883109847127431
v 0.0065263096110025863 -9.1062733200939617e-18 -0.04957224306869052
v 0.0065263096110025863 0.012830240614628511 -0.047883109847127438
v 0.0065263096110025863 0.024786121534345267 -0.042930821820063046
v 0.0065263096110025863 0.035052869232498889 -0.035052869232498902
v 0.0065263096110025863 0.042930821820063032 -0.024786121534345281
v 0.0065263096110025863 0.047883109847127417 -0.012830240614628573
v 3.0616169978683832e-18 0.050000000000000003 0
v 3.0616169978683832e-18 0.04829629131445342 0.012940952255126037
v 3.0616169978683832e-18 0.04330127018922194 0.024999999999999998
v 3.0616169978683832e-18 0.035355339059327383 0.035355339059327376
v 3.0616169978683832e-18 0.025000000000000008 0.043301270189221933
v 3.0616169978683832e-18 0.012940952255126037 0.04829629131445342
v 3.0616169978683832e-18 3.0616169978683832e-18 0.050000000000000003
v 3.0616169978683832e-18 -0.012940952255126032 0.04829629131445342
v 3.0616169978683832e-18 -0.024999999999999991 0.04330127018922194
v 3.0616169978683832e-18 -0.035355339059327376 0.035355339059327383
v 3.0616169978683832e-18 -0.04330127018922194 0.024999999999999998
v 3.0616169978683832e-18 -0.048296291314453413 0.012940952255126051
v 3.0616169978683832e-18 -0.050000000000000003 6.1232339957367663e-18
v 3.0616169978683832e-18 -0.04829629131445342 -0.01294095225512604
v 3.0616169978683832e-18 -0.043301270189221946 -0.024999999999999988
v 3.0616169978683832e-18 -0.035355339059327397 -0.035355339059327355
v 3.0616169978683832e-18 -0.025000000000000022 -0.043301270189221919
v 3.0616169978683832e-18 -0.012940952255126032 -0.04829629131445342
v 3.0616169978683832e-18 -9.1848509936051487e-18 -0.050000000000000003
v 3.0616169978683832e-18 0.012940952255126016 -0.048296291314453427
v 3.0616169978683832e-18 0.025000000000000008 -0.043301270189221933
v 3.0616169978683832e-18 0.035355339059327369 -0.035355339059327383
v 3.0616169978683832e-18 0.043301270189221919 -0.025000000000000022
v 3.0616169978683832e-18 0.048296291314453406 -0.012940952255126079
v 0.048000000000000001 0 0
v 0.0475893533459429 0.006265257226562476 0
v 0.0475893533459429 0.0060517737634809164 0.0016215678927005675
v 0.0475893533459429 0.0054258719194471405 0.0031326286132812376
v 0.0475893533459429 0.0044302058707803484 0.0044302058707803476
v 0.0475893533459429 0.0031326286132812389 0.0054258719194471405
v 0.0475893533459429 0.0016215678927005675 0.0060517737634809164
v 0.0475893533459429 3.8363636041722798e-19 0.006265257226562476
v 0.0475893533459429 -0.0016215678927005669 0.0060517737634809164
v 0.0475893533459429 -0.0031326286132812367 0.0054258719194471405
v 0.0475893533459429 -0.0044302058707803476 0.0044302058707803484
v 0.0475893533459429 -0.0054258719194471405 0.0031326286132812376
v 0.0475893533459429 -0.0060517737634809155 0.0016215678927005693
v 0.0475893533459429 -0.006265257226562476 7.6727272083445597e-19
v 0.0475893533459429 -0.0060517737634809164 -0.0016215678927005677
v 0.0475893533459429 -0.0054258719194471413 -0.0031326286132812363
v 0.0475893533459429 -0.004430205870780351 -0.0044302058707803458
v 0.0475893533459429 -0.0031326286132812406 -0.0054258719194471387
v 0.0475893533459429 -0.0016215678927005669 -0.0060517737634809164
v 0.0475893533459429 -1.1509090812516839e-18 -0.006265257226562476
v 0.0475893533459429 0.0016215678927005647 -0.0060517737634809164
v 0.0475893533459429 0.0031326286132812389 -0.0054258719194471405
v 0.0475893533459429 0.0044302058707803476 -0.0044302058707803493
v 0.0475893533459429 0.0054258719194471387 -0.0031326286132812406
v 0.0475893533459429 0.0060517737634809146 -0.0016215678927005727
v 0.046364439661875277 0.012423314164920997 0
v 0.046364439661875277 0.012 0.0032153903091734722
v 0.046364439661875277 0.010758905666016644 0.0062116570824604974
v 0.046364439661875277 0.0087846096908265284 0.0087846096908265267
v 0.046364439661875277 0.0062116570824605 0.010758905666016642
v 0.046364439661875277 0.0032153903091734722 0.012
v 0.046364439661875277 7.6070859634362358e-19 0.012423314164920997
v 0.046364439661875277 -0.0032153903091734709 0.012
v 0.046364439661875277 -0.0062116570824604957 0.010758905666016644
v 0.046364439661875277 -0.0087846096908265267 0.0087846096908265284
v 0.046364439661875277 -0.010758905666016644 0.0062116570824604974
v 0.046364439661875277 -0.011999999999999999 0.0032153903091734757
v 0.046364439661875277 -0.012423314164920997 1.5214171926872472e-18
v 0.046364439661875277 -0.012 -0.0032153903091734727
v 0.046364439661875277 -0.010758905666016644 -0.0062116570824604948
v 0.046364439661875277 -0.0087846096908265319 -0.0087846096908265232
v 0.046364439661875277 -0.0062116570824605035 -0.010758905666016639
v 0.046364439661875277 -0.0032153903091734709 -0.012
v 0.046364439661875277 -2.2821257890308706e-18 -0.012423314164920997
v 0.046364439661875277 0.0032153903091734666 -0.012000000000000002
v 0.046364439661875277 0.0062116570824605 -0.010758905666016642
v 0.046364439661875277 0.008784609690826525 -0.0087846096908265302
v 0.046364439661875277 0.010758905666016639 -0.0062116570824605035
v 0.046364439661875277 0.011999999999999997 -0.0032153903091734827
v 0.044346217560541766 0.018368804753524311 0
v 0.044346217560541766 0.017742902909490536 0.0047541965059818064
v 0.044346217560541766 0.01590785155370841 0.009184402376762154
v 0.044346217560541766 0.012988706403508731 0.012988706403508727
v 0.044346217560541766 0.0091844023767621574 0.015907851553708406
v 0.044346217560541766 0.0047541965059818064 0.017742902909490536
v 0.044346217560541766 1.1247648972783117e-18 0.018368804753524311
v 0.044346217560541766 -0.0047541965059818038 0.017742902909490536
v 0.044346217560541766 -0.0091844023767621522 0.01590785155370841
v 0.044346217560541766 -0.012988706403508727 0.012988706403508731
v 0.044346217560541766 -0.01590785155370841 0.009184402376762154
v 0.044346217560541766 -0.017742902909490533 0.0047541965059818116
v 0.044346217560541766 -0.018368804753524311 2.2495297945566234e-18
v 0.044346217560541766 -0.017742902909490536 -0.0047541965059818073
v 0.044346217560541766 -0.01590785155370841 -0.0091844023767621505
v 0.044346217560541766 -0.012988706403508736 -0.012988706403508722
v 0.044346217560541766 -0.0091844023767621644 -0.015907851553708403
v 0.044346217560541766 -0.0047541965059818038 -0.017742902909490536
v 0.044346217560541766 -3.3742946918349348e-18 -0.018368804753524311
v 0.044346217560541766 0.0047541965059817977 -0.01774290290949054
v 0.044346217560541766 0.0091844023767621574 -0.015907851553708406
v 0.044346217560541766 0.012988706403508726 -0.012988706403508733
v 0.044346217560541766 0.015907851553708403 -0.0091844023767621644
v 0.044346217560541766 0.017742902909490533 -0.0047541965059818211
v 0.041569219381653061 0.023999999999999997 0
v 0.041569219381653061 0.023182219830937635 0.0062116570824604974
v 0.041569219381653061 0.020784609690826527 0.011999999999999997
v 0.041569219381653061 0.016970562748477139 0.016970562748477136
v 0.041569219381653061 0.012000000000000002 0.020784609690826523
v 0.041569219381653061 0.0062116570824604974 0.023182219830937635
v 0.041569219381653061 1.4695761589768237e-18 0.023999999999999997
v 0.041569219381653061 -0.0062116570824604939 0.023182219830937635
v 0.041569219381653061 -0.011999999999999993 0.020784609690826527
v 0.041569219381653061 -0.016970562748477136 0.016970562748477139
v 0.041569219381653061 -0.020784609690826527 0.011999999999999997
v 0.041569219381653061 -0.023182219830937635 0.0062116570824605035
v 0.041569219381653061 -0.023999999999999997 2.9391523179536474e-18
v 0.041569219381653061 -0.023182219830937635 -0.0062116570824604983
v 0.041569219381653061 -0.02078460969082653 -0.011999999999999992
v 0.041569219381653061 -0.016970562748477146 -0.016970562748477129
v 0.041569219381653061 -0.012000000000000009 -0.02078460969082652
v 0.041569219381653061 -0.0062116570824604939 -0.023182219830937635
v 0.041569219381653061 -4.408728476930471e-18 -0.023999999999999997
v 0.041569219381653061 0.0062116570824604861 -0.023182219830937639
v 0.041569219381653061 0.012000000000000002 -0.020784609690826523
v 0.041569219381653061 0.016970562748477136 -0.016970562748477143
v 0.041569219381653061 0.02078460969082652 -0.012000000000000009
v 0.041569219381653061 0.023182219830937632 -0.0062116570824605173
v 0.038080960333979286 0.029220548592418592 0
v 0.038080960333979286 0.0282248825437518 0.0075628344840615869
v 0.038080960333979286 0.025305737393552123 0.014610274296209294
v 0.038080960333979286 0.020662048059690213 0.02066204805969021
v 0.038080960333979286 0.0146102742962093 0.02530573739355212
v 0.038080960333979286 0.0075628344840615869 0.0282248825437518
v 0.038080960333979286 1.7892425651517561e-18 0.029220548592418592
v 0.038080960333979286 -0.0075628344840615834 0.0282248825437518
v 0.038080960333979286 -0.014610274296209289 0.025305737393552123
v 0.038080960333979286 -0.02066204805969021 0.020662048059690213
v 0.038080960333979286 -0.025305737393552123 0.014610274296209294
v 0.038080960333979286 -0.028224882543751797 0.0075628344840615947
v 0.038080960333979286 -0.029220548592418592 3.5784851303035123e-18
v 0.038080960333979286 -0.0282248825437518 -0.0075628344840615886
v 0.038080960333979286 -0.025305737393552127 -0.014610274296209287
v 0.038080960333979286 -0.020662048059690224 -0.0206620480596902
v 0.038080960333979286 -0.014610274296209308 -0.025305737393552113
v 0.038080960333979286 -0.0075628344840615834 -0.0282248825437518
v 0.038080960333979286 -5.3677276954552684e-18 -0.029220548592418592
v 0.038080960333979286 0.0075628344840615739 -0.028224882543751804
v 0.038080960333979286 0.0146102742962093 -0.02530573739355212
v 0.038080960333979286 0.020662048059690206 -0.020662048059690217
v 0.038080960333979286 0.025305737393552113 -0.014610274296209308
v 0.038080960333979286 0.028224882543751793 -0.0075628344840616112
v 0.033941125496954286 0.033941125496954279 0
v 0.033941125496954286 0.032784609690826527 0.0087846096908265267
v 0.033941125496954286 0.029393876913398138 0.016970562748477136
v 0.033941125496954286 0.024 0.023999999999999997
v 0.033941125496954286 0.016970562748477143 0.029393876913398134
v 0.033941125496954286 0.0087846096908265267 0.032784609690826527
v 0.033941125496954286 2.0782945349651837e-18 0.033941125496954279
v 0.033941125496954286 -0.0087846096908265232 0.032784609690826527
v 0.033941125496954286 -0.016970562748477133 0.029393876913398138
v 0.033941125496954286 -0.023999999999999997 0.024
v 0.033941125496954286 -0.029393876913398138 0.016970562748477136
v 0.033941125496954286 -0.03278460969082652 0.0087846096908265354
v 0.033941125496954286 -0.033941125496954279 4.1565890699303675e-18
v 0.033941125496954286 -0.032784609690826527 -0.0087846096908265284
v 0.033941125496954286 -0.029393876913398141 -0.016970562748477129
v 0.033941125496954286 -0.024000000000000011 -0.023999999999999987
v 0.033941125496954286 -0.016970562748477153 -0.029393876913398127
v 0.033941125496954286 -0.0087846096908265232 -0.032784609690826527
v 0.033941125496954286 -6.2348836048955512e-18 -0.033941125496954279
v 0.033941125496954286 0.0087846096908265111 -0.032784609690826527
v 0.033941125496954286 0.016970562748477143 -0.029393876913398134
v 0.033941125496954286 0.023999999999999994 -0.024000000000000004
v 0.033941125496954286 0.029393876913398127 -0.016970562748477153
v 0.033941125496954286 0.03278460969082652 -0.0087846096908265545
v 0.029220548592418592 0.038080960333979286 0
v 0.029220548592418592 0.036783383076480179 0.0098560777902274872
v 0.029220548592418592 0.032979079049733608 0.019040480166989639
v 0.029220548592418592 0.026927305286252687 0.026927305286252683
v 0.029220548592418592 0.019040480166989646 0.032979079049733601
v 0.029220548592418592 0.0098560777902274872 0.036783383076480179
v 0.029220548592418592 2.3317863090732526e-18 0.038080960333979286
v 0.029220548592418592 -0.0098560777902274837 0.036783383076480179
v 0.029220548592418592 -0.019040480166989636 0.032979079049733608
v 0.029220548592418592 -0.026927305286252683 0.026927305286252687
v 0.029220548592418592 -0.032979079049733608 0.019040480166989639
v 0.029220548592418592 -0.036783383076480172 0.0098560777902274993
v 0.029220548592418592 -0.038080960333979286 4.6635726181465052e-18
v 0.029220548592418592 -0.036783383076480179 -0.0098560777902274906
v 0.029220548592418592 -0.032979079049733608 -0.019040480166989632
v 0.029220548592418592 -0.026927305286252701 -0.026927305286252673
v 0.029220548592418592 -0.01904048016698966 -0.032979079049733594
v 0.029220548592418592 -0.0098560777902274837 -0.036783383076480179
v 0.029220548592418592 -6.9953589272197581e-18 -0.038080960333979286
v 0.029220548592418592 0.0098560777902274715 -0.036783383076480179
v 0.029220548592418592 0.019040480166989646 -0.032979079049733601
v 0.029220548592418592 0.02692730528625268 -0.026927305286252694
v 0.029220548592418592 0.032979079049733594 -0.01904048016698966
v 0.029220548592418592 0.036783383076480165 -0.0098560777902275201
v 0.024000000000000007 0.041569219381653054 0
v 0.024000000000000007 0.040152782579414778 0.01075890566601664
v 0.024000000000000007 0.036000000000000004 0.020784609690826523
v 0.024000000000000007 0.029393876913398138 0.029393876913398134
v 0.024000000000000007 0.02078460969082653 0.035999999999999997
v 0.024000000000000007 0.01075890566601664 0.040152782579414778
v 0.024000000000000007 2.5453805729397767e-18 0.041569219381653054
v 0.024000000000000007 -0.010758905666016637 0.040152782579414778
v 0.024000000000000007 -0.020784609690826517 0.036000000000000004
v 0.024000000000000007 -0.029393876913398134 0.029393876913398138
v 0.024000000000000007 -0.036000000000000004 0.020784609690826523
v 0.024000000000000007 -0.040152782579414778 0.010758905666016652
v 0.024000000000000007 -0.041569219381653054 5.0907611458795533e-18
v 0.024000000000000007 -0.040152782579414778 -0.010758905666016644
v 0.024000000000000007 -0.036000000000000004 -0.020784609690826517
v 0.024000000000000007 -0.029393876913398152 -0.02939387691339812
v 0.024000000000000007 -0.020784609690826544 -0.03599999999999999
v 0.024000000000000007 -0.010758905666016637 -0.040152782579414778
v 0.024000000000000007 -7.6361417188193296e-18 -0.041569219381653054
v 0.024000000000000007 0.010758905666016623 -0.040152782579414785
v 0.024000000000000007 0.02078460969082653 -0.035999999999999997
v 0.024000000000000007 0.029393876913398131 -0.029393876913398145
v 0.024000000000000007 0.03599999999999999 -0.020784609690826544
v 0.024000000000000007 0.040152782579414771 -0.010758905666016675
v 0.018368804753524311 0.044346217560541766 0
v 0.018368804753524311 0.0428351568399611 0.011477645682928056
v 0.018368804753524311 0.03840495096918075 0.02217310878027088
v 0.018368804753524311 0.031357511157033037 0.031357511157033037
v 0.018368804753524311 0.022173108780270886 0.038404950969180743
v 0.018368804753524311 0.011477645682928056 0.0428351568399611
v 0.018368804753524311 2.715422669490481e-18 0.044346217560541766
v 0.018368804753524311 -0.011477645682928053 0.0428351568399611
v 0.018368804753524311 -0.022173108780270873 0.03840495096918075
v 0.018368804753524311 -0.031357511157033037 0.031357511157033037
v 0.018368804753524311 -0.03840495096918075 0.02217310878027088
v 0.018368804753524311 -0.042835156839961093 0.011477645682928068
v 0.018368804753524311 -0.044346217560541766 5.430845338980962e-18
v 0.018368804753524311 -0.0428351568399611 -0.011477645682928059
v 0.018368804753524311 -0.038404950969180757 -0.022173108780270869
v 0.018368804753524311 -0.031357511157033058 -0.031357511157033023
v 0.018368804753524311 -0.022173108780270904 -0.038404950969180736
v 0.018368804753524311 -0.011477645682928053 -0.0428351568399611
v 0.018368804753524311 -8.146268008471443e-18 -0.044346217560541766
v 0.018368804753524311 0.011477645682928037 -0.0428351568399611
v 0.018368804753524311 0.022173108780270886 -0.038404950969180743
v 0.018368804753524311 0.03135751115703303 -0.031357511157033044
v 0.018368804753524311 0.038404950969180736 -0.022173108780270904
v 0.018368804753524311 0.042835156839961086 -0.011477645682928094
v 0.012423314164920997 0.046364439661875277 0
v 0.012423314164920997 0.044784609690826531 0.011999999999999999
v 0.012423314164920997 0.040152782579414785 0.023182219830937635
v 0.012423314164920997 0.032784609690826527 0.032784609690826527
v 0.012423314164920997 0.023182219830937642 0.040152782579414778
v 0.012423314164920997 0.011999999999999999 0.044784609690826531
v 0.012423314164920997 2.8390031313088075e-18 0.046364439661875277
v 0.012423314164920997 -0.011999999999999993 0.044784609690826531
v 0.012423314164920997 -0.023182219830937628 0.040152782579414785
v 0.012423314164920997 -0.032784609690826527 0.032784609690826527
v 0.012423314164920997 -0.040152782579414785 0.023182219830937635
v 0.012423314164920997 -0.044784609690826524 0.012000000000000012
v 0.012423314164920997 -0.046364439661875277 5.678006262617615e-18
v 0.012423314164920997 -0.044784609690826531 -0.012000000000000002
v 0.012423314164920997 -0.040152782579414785 -0.023182219830937625
v 0.012423314164920997 -0.032784609690826548 -0.032784609690826506
v 0.012423314164920997 -0.023182219830937659 -0.040152782579414764
v 0.012423314164920997 -0.011999999999999993 -0.044784609690826531
v 0.012423314164920997 -8.5170093939264218e-18 -0.046364439661875277
v 0.012423314164920997 0.011999999999999978 -0.044784609690826531
v 0.012423314164920997 0.023182219830937642 -0.040152782579414778
v 0.012423314164920997 0.03278460969082652 -0.032784609690826534
v 0.012423314164920997 0.040152782579414764 -0.023182219830937659
v 0.012423314164920997 0.044784609690826517 -0.012000000000000037
v 0.0062652572265624821 0.0475893533459429 0
v 0.0062652572265624821 0.045967785453242337 0.012317030990043392
v 0.0062652572265624821 0.041213588947260529 0.023794676672971447
v 0.0062652572265624821 0.033650754463198942 0.033650754463198936
v 0.0062652572265624821 0.023794676672971457 0.041213588947260522
v 0.0062652572265624821 0.012317030990043392 0.045967785453242337
v 0.0062652572265624821 2.9140074624300678e-18 0.0475893533459429
v 0.0062652572265624821 -0.012317030990043387 0.045967785453242337
v 0.0062652572265624821 -0.02379467667297144 0.041213588947260529
v 0.0062652572265624821 -0.033650754463198936 0.033650754463198942
v 0.0062652572265624821 -0.041213588947260529 0.023794676672971447
v 0.0062652572265624821 -0.04596778545324233 0.012317030990043405
v 0.0062652572265624821 -0.0475893533459429 5.8280149248601357e-18
v 0.0062652572265624821 -0.045967785453242337 -0.012317030990043394
v 0.0062652572265624821 -0.041213588947260536 -0.023794676672971436
v 0.0062652572265624821 -0.033650754463198956 -0.033650754463198922
v 0.0062652572265624821 -0.023794676672971471 -0.041213588947260515
v 0.0062652572265624821 -0.012317030990043387 -0.045967785453242337
v 0.0062652572265624821 -8.7420223872902031e-18 -0.0475893533459429
v 0.0062652572265624821 0.01231703099004337 -0.045967785453242337
v 0.0062652572265624821 0.023794676672971457 -0.041213588947260522
v 0.0062652572265624821 0.033650754463198929 -0.033650754463198949
v 0.0062652572265624821 0.041213588947260515 -0.023794676672971471
v 0.0062652572265624821 0.045967785453242323 -0.012317030990043431
v 2.9391523179536477e-18 0.048000000000000001 0
v 2.9391523179536477e-18 0.046364439661875277 0.012423314164920997
v 2.9391523179536477e-18 0.041569219381653061 0.023999999999999997
v 2.9391523179536477e-18 0.033941125496954286 0.033941125496954279
v 2.9391523179536477e-18 0.024000000000000007 0.041569219381653054
v 2.9391523179536477e-18 0.012423314164920997 0.046364439661875277
v 2.9391523179536477e-18 2.9391523179536477e-18 0.048000000000000001
v 2.9391523179536477e-18 -0.01242331416492099 0.046364439661875277
v 2.9391523179536477e-18 -0.02399999999999999 0.041569219381653061
v 2.9391523179536477e-18 -0.033941125496954279 0.033941125496954286
v 2.9391523179536477e-18 -0.041569219381653061 0.023999999999999997
v 2.9391523179536477e-18 -0.046364439661875277 0.012423314164921009
v 2.9391523179536477e-18 -0.048000000000000001 5.8783046359072955e-18
v 2.9391523179536477e-18 -0.046364439661875277 -0.012423314164920998
v 2.9391523179536477e-18 -0.041569219381653061 -0.023999999999999987
v 2.9391523179536477e-18 -0.0339411254969543 -0.033941125496954265
v 2.9391523179536477e-18 -0.024000000000000021 -0.04156921938165304
v 2.9391523179536477e-18 -0.01242331416492099 -0.046364439661875277
v 2.9391523179536477e-18 -8.8174569538609421e-18 -0.048000000000000001
v 2.9391523179536477e-18 0.012423314164920974 -0.046364439661875284
v 2.9391523179536477e-18 0.024000000000000007 -0.041569219381653054
v 2.9391523179536477e-18 0.033941125496954272 -0.033941125496954293
v 2.9391523179536477e-18 0.04156921938165304 -0.024000000000000021
v 2.9391523179536477e-18 0.04636443966187527 -0.012423314164921036
usemtl 1
f 1 2 3
f 1 3 4
f 1 4 5
f 1 5 6
f 1 6 7
f 1 7 8
f 1 8 9
f 1 9 10
f 1 10 11
f 1 11 12
f 1 12 13
f 1 13 14
f 1 14 15
f 1 15 16
f 1 16 17
f 1 17 18
f 1 18 19
f 1 19 20
f 1 20 21
f 1 21 22
f 1 22 23
f 1 23 24
f 1 24 25
f 1 25 2
f 2 26 27
f 2 27 3
f 3 27 28
f 3 28 4
f 4 28 29
f 4 29 5
f 5 29 30
f 5 30 6
f 6 30 31
f 6 31 7
f 7 31 32
f 7 32 8
f 8 32 33
f 8 33 9
f 9 33 34
f 9 34 10
f 10 34 35
f 10 35 11
f 11 35 36
f 11 36 12
f 12 36 37
f 12 37 13
f 13 37 38
f 13 38 14
f 14 38 39
f 14 39 15
f 15 39 40
f 15 40 16
f 16 40 41
f 16 41 17
f 17 41 42
f 17 42 18
f 18 42 43
f 18 43 19
f 19 43 44
f 19 44 20
f 20 44 45
f 20 45 21
f 21 45 46
f 21 46 22
f 22 46 47
f 22 47 23
f 23 47 48
f 23 48 24
f 24 48 49
f 24 49 25
f 25 49 26
f 25 26 2
f 26 50 51
f 26 51 27
f 27 51 52
f 27 52 28
f 28 52 53
f 28 53 29
f 29 53 54
f 29 54 30
f 30 54 55
f 30 55 31
f 31 55 56
f 31 56 32
f 32 56 57
f 32 57 33
f 33 57 58
f 33 58 34
f 34 58 59
f 34 59 35
f 35 59 60
f 35 60 36
f 36 60 61
f 36 61 37
f 37 61 62
f 37 62 38
f 38 62 63
f 38 63 39
f 39 63 64
f 39 64 40
f 40 64 65
f 40 65 41
f 41 65 66
f 41 66 42
f 42 66 67
f 42 67 43
f 43 67 68
f 43 68 44
f 44 68 69
f 44 69 45
f 45 69 70
f 45 70 46
f 46 70 71
f 46 71 47
f 47 71 72
f 47 72 48
f 48 72 73
f 48 73 49
f 49 73 50
f 49 50 26
f 50 74 75
f 50 75 51
f 51 75 76
f 51 76 52
f 52 76 77
f 52 77 53
f 53 77 78
f 53 78 54
f 54 78 79
f 54 79 55
f 55 79 80
f 55 80 56
f 56 80 81
f 56 81 57
f 57 81 82
f 57 82 58
f 58 82 83
f 58 83 59
f 59 83 84
f 59 84 60
f 60 84 85
f 60 85 61
f 61 85 86
f 61 86 62
f 62 86 87
f 62 87 63
f 63 87 88
f 63 88 64
f 64 88 89
f 64 89 65
f 65 89 90
f 65 90 66
f 66 90 91
f 66 91 67
f 67 91 92
f 67 92 68
f 68 92 93
f 68 93 69
f 69 93 94
f 69 94 70
f 70 94 95
f 70 95 71
f 71 95 96
f 71 96 72
f 72 96 97
f 72 97 73
f 73 97 74
f 73 74 50
f 74 98 99
f 74 99 75
f 75 99 100
f 75 100 76
f 76 100 101
f 76 101 77
f 77 101 102
f 77 102 78
f 78 102 103
f 78 103 79
f 79 103 104
f 79 104 80
f 80 104 105
f 80 105 81
f 81 105 106
f 81 106 82
f 82 106 107
f 82 107 83
f 83 107 108
f 83 108 84
f 84 108 109
f 84 109 85
f 85 109 110
f 85 110 86
f 86 110 111
f 86 111 87
f 87 111 112
f 87 112 88
f 88 112 113
f 88 113 89
f 89 113 114
f 89 114 90
f 90 114 115
f 90 115 91
f 91 115 116
f 91 116 92
f 92 116 117
f 92 117 93
f 93 117 118
f 93 118 94
f 94 118 119
f 94 119 95
f 95 119 120
f 95 120 96
f 96 120 121
f 96 121 97
f 97 121 98
f 97 98 74
f 98 122 123
f 98 123 99
f 99 123 124
f 99 124 100
f 100 124 125
f 100 125 101
f 101 125 126
f 101 126 102
f 102 126 127
f 102 127 103
f 103 127 128
f 103 128 104
f 104 128 129
f 104 129 105
f 105 129 130
f 105 130 106
f 106 130 131
f 106 131 107
f 107 131 132
f 107 132 108
f 108 132 133
f 108 133 109
f 109 133 134
f 109 134 110
f 110 134 135
f 110 135 111
f 111 135 136
f 111 136 112
f 112 136 137
f 112 137 113
f 113 137 138
f 113 138 114
f 114 138 139
f 114 139 115
f 115 139 140
f 115 140 116
f 116 140 141
f 116 141 117
f 117 141 142
f 117 142 118
f 118 142 143
f 118 143 119
f 119 143 144
f 119 144 120
f 120 144 145
f 120 145 121
f 121 145 122
f 121 122 98
f 122 146 147
f 122 147 123
f 123 147 148
f 123 148 124
f 124 148 149
f 124 149 125
f 125 149 150
f 125 150 126
f 126 150 151
f 126 151 127
f 127 151 152
f 127 152 128
f 128 152 153
f 128 153 129
f 129 153 154
f 129 154 130
f 130 154 155
f 130 155 131
f 131 155 156
f 131 156 132
f 132 156 157
f 132 157 133
f 133 157 158
f 133 158 134
f 134 158 159
f 134 159 135
f 135 159 160
f 135 160 136
f 136 160 161
f 136 161 137
f 137 161 162
f 137 162 138
f 138 162 163
f 138 163 139
f 139 163 164
f 139 164 140
f 140 164 165
f 140 165 141
f 141 165 166
f 141 166 142
f 142 166 167
f 142 167 143
f 143 167 168
f 143 168 144
f 144 168 169
f 144 169 145
f 145 169 146
f 145 146 122
f 146 170 171
f 146 171 147
f 147 171 172
f 147 172 148
f 148 172 173
f 148 173 149
f 149 173 174
f 149 174 150
f 150 174 175
f 150 175 151
f 151 175 176
f 151 176 152
f 152 176 177
f 152 177 153
f 153 177 178
f 153 178 154
f 154 178 179
f 154 179 155
f 155 179 180
f 155 180 156
f 156 180 181
f 156 181 157
f 157 181 182
f 157 182 158
f 158 182 183
f 158 183 159
f 159 183 184
f 159 184 160
f 160 184 185
f 160 185 161
f 161 185 186
f 161 186 162
f 162 186 187
f 162 187 163
f 163 187 188
f 163 188 164
f 164 188 189
f 164 189 165
f 165 189 190
f 165 190 166
f 166 190 191
f 166 191 167
f 167 191 192
f 167 192 168
f 168 192 193
f 168 193 169
f 169 193 170
f 169 170 146
f 170 194 195
f 170 195 171
f 171 195 196
f 171 196 172
f 172 196 197
f 172 197 173
f 173 197 198
f 173 198 174
f 174 198 199
f 174 199 175
f 175 199 200
f 175 200 176
f 176 200 201
f 176 201 177
f 177 201 202
f 177 202 178
f 178 202 203
f 178 203 179
f 179 203 204
f 179 204 180
f 180 204 205
f 180 205 181
f 181 205 206
f 181 206 182
f 182 206 207
f 182 207 183
f 183 207 208
f 183 208 184
f 184 208 209
f 184 209 185
f 185 209 210
f 185 210 186
f 186 210 211
f 186 211 187
f 187 211 212
f 187 212 188
f 188 212 213
f 188 213 189
f 189 213 214
f 189 214 190
f 190 214 215
f 190 215 191
f 191 215 216
f 191 216 192
f 192 216 217
f 192 217 193
f 193 217 194
f 193 194 170
f 194 218 219
f 194 219 195
f 195 219 220
f 195 220 196
f 196 220 221
f 196 221 197
f 197 221 222
f 197 222 198
f 198 222 223
f 198 223 199
f 199 223 224
f 199 224 200
f 200 224 225
f 200 225 201
f 201 225 226
f 201 226 202
f 202 226 227
f 202 227 203
f 203 227 228
f 203 228 204
f 204 228 229
f 204 229 205
f 205 229 230
f 205 230 206
f 206 230 231
f 206 231 207
f 207 231 232
f 207 232 208
f 208 232 233
f 208 233 209
f 209 233 234
f 209 234 210
f 210 234 235
f 210 235 211
f 211 235 236
f 211 236 212
f 212 236 237
f 212 237 213
f 213 237 238
f 213 238 214
f 214 238 239
f 214 239 215
f 215 239 240
f 215 240 216
f 216 240 241
f 216 241 217
f 217 241 218
f 217 218 194
f 218 242 243
f 218 243 219
f 219 243 244
f 219 244 220
f 220 244 245
f 220 245 221
f 221 245 246
f 221 246 222
f 222 246 247
f 222 247 223
f 223 247 248
f 223 248 224
f 224 248 249
f 224 249 225
f 225 249 250
f 225 250 226
f 226 250 251
f 226 251 227
f 227 251 252
f 227 252 228
f 228 252 253
f 228 253 229
f 229 253 254
f 229 254 230
f 230 254 255
f 230 255 231
f 231 255 256
f 231 256 232
f 232 256 257
f 232 257 233
f 233 257 258
f 233 258 234
f 234 258 259
f 234 259 235
f 235 259 260
f 235 260 236
f 236 260 261
f 236 261 237
f 237 261 262
f 237 262 238
f 238 262 263
f 238 263 239
f 239 263 264
f 239 264 240
f 240 264 265
f 240 265 241
f 241 265 242
f 241 242 218
f 242 266 267
f 242 267 243
f 243 267 268
f 243 268 244
f 244 268 269
f 244 269 245
f 245 269 270
f 245 270 246
f 246 270 271
f 246 271 247
f 247 271 272
f 247 272 248
f 248 272 273
f 248 273 249
f 249 273 274
f 249 274 250
f 250 274 275
f 250 275 251
f 251 275 276
f 251 276 252
f 252 276 277
f 252 277 253
f 253 277 278
f 253 278 254
f 254 278 279
f 254 279 255
f 255 279 280
f 255 280 256
f 256 280 281
f 256 281 257
f 257 281 282
f 257 282 258
f 258 282 283
f 258 283 259
f 259 283 284
f 259 284 260
f 260 284 285
f 260 285 261
f 261 285 286
f 261 286 262
f 262 286 287
f 262 287 263
f 263 287 288
f 263 288 264
f 264 288 289
f 264 289 265
f 265 289 266
f 265 266 242
usemtl 2
f 290 292 291
f 290 293 292
f 290 294 293
f 290 295 294
f 290 296 295
f 290 297 296
f 290 298 297
f 290 299 298
f 290 300 299
f 290 301 300
f 290 302 301
f 290 303 302
f 290 304 303
f 290 305 304
f 290 306 305
f 290 307 306
f 290 308 307
f 290 309 308
f 290 310 309
f 290 311 310
f 290 312 311
f 290 313 312
f 290 314 313
f 290 291 314
f 291 316 315
f 291 292 316
f 292 317 316
f 292 293 317
f 293 318 317
f 293 294 318
f 294 319 318
f 294 295 319
f 295 320 319
f 295 296 320
f 296 321 320
f 296 297 321
f 297 322 321
f 297 298 322
f 298 323 322
f 298 299 323
f 299 324 323
f 299 300 324
f 300 325 324
f 300 301 325
f 301 326 325
f 301 302 326
f 302 327 326
f 302 303 327
f 303 328 327
f 303 304 328
f 304 329 328
f 304 305 329
f 305 330 329
f 305 306 330
f 306 331 330
f 306 307 331
f 307 332 331
f 307 308 332
f 308 333 332
f 308 309 333
f 309 334 333
f 309 310 334
f 310 335 334
f 310 311 335
f 311 336 335
f 311 312 336
f 312 337 336
f 312 313 337
f 313 338 337
f 313 314 338
f 314 315 338
f 314 291 315
f 315 340 339
f 315 316 340
f 316 341 340
f 316 317 341
f 317 342 341
f 317 318 342
f 318 343 342
f 318 319 343
f 319 344 343
f 319 320 344
f 320 345 344
f 320 321 345
f 321 346 345
f 321 322 346
f 322 347 346
f 322 323 347
f 323 348 347
f 323 324 348
f 324 349 348
f 324 325 349
f 325 350 349
f 325 326 350
f 326 351 350
f 326 327 351
f 327 352 351
f 327 328 352
f 328 353 352
f 328 329 353
f 329 354 353
f 329 330 354
f 330 355 354
f 330 331 355
f 331 356 355
f 331 332 356
f 332 357 356
f 332 333 357
f 333 358 357
f 333 334 358
f 334 359 358
f 334 335 359
f 335 360 359
f 335 336 360
f 336 361 360
f 336 337 361
f 337 362 361
f 337 338 362
f 338 339 362
f 338 315 339
f 339 364 363
f 339 340 364
f 340 365 364
f 340 341 365
f 341 366 365
f 341 342 366
f 342 367 366
f 342 343 367
f 343 368 367
f 343 344 368
f 344 369 368
f 344 345 369
f 345 370 369
f 345 346 370
f 346 371 370
f 346 347 371
f 347 372 371
f 347 348 372
f 348 373 372
f 348 349 373
f 349 374 373
f 349 350 374
f 350 375 374
f 350 351 375
f 351 376 375
f 351 352 376
f 352 377 376
f 352 353 377
f 353 378 377
f 353 354 378
f 354 379 378
f 354 355 379
f 355 380 379
f 355 356 380
f 356 381 380
f 356 357 381
f 357 382 381
f 357 358 382
f 358 383 382
f 358 359 383
f 359 384 383
f 359 360 384
f 360 385 384
f 360 361 385
f 361 386 385
f 361 362 386
f 362 363 386
f 362 339 363
f 363 388 387
f 363 364 388
f 364 389 388
f 364 365 389
f 365 390 389
f 365 366 390
f 366 391 390
f 366 367 391
f 367 392 391
f 367 368 392
f 368 393 392
f 368 369 393
f 369 394 393
f 369 370 394
f 370 395 394
f 370 371 395
f 371 396 395
f 371 372 396
f 372 397 396
f 372 373 397
f 373 398 397
f 373 374 398
f 374 399 398
f 374 375 399
f 375 400 399
f 375 376 400
f 376 401 400
f 376 377 401
f 377 402 401
f 377 378 402
f 378 403 402
f 378 379 403
f 379 404 403
f 379 380 404
f 380 405 404
f 380 381 405
f 381 406 405
f 381 382 406
f 382 407 406
f 382 383 407
f 383 408 407
f 383 384 408
f 384 409 408
f 384 385 409
f 385 410 409
f 385 386 410
f 386 387 410
f 386 363 387
f 387 412 411
f 387 388 412
f 388 413 412
f 388 389 413
f 389 414 413
f 389 390 414
f 390 415 414
f 390 391 415
f 391 416 415
f 391 392 416
f 392 417 416
f 392 393 417
f 393 418 417
f 393 394 418
f 394 419 418
f 394 395 419
f 395 420 419
f 395 396 420
f 396 421 420
f 396 397 421
f 397 422 421
f 397 398 422
f 398 423 422
f 398 399 423
f 399 424 423
f 399 400 424
f 400 425 424
f 400 401 425
f 401 426 425
f 401 402 426
f 402 427 426
f 402 403 427
f 403 428 427
f 403 404 428
f 404 429 428
f 404 405 429
f 405 430 429
f 405 406 430
f 406 431 430
f 406 407 431
f 407 432 431
f 407 408 432
f 408 433 432
f 408 409 433
f 409 434 433
f 409 410 434
f 410 411 434
f 410 387 411
f 411 436 435
f 411 412 436
f 412 437 436
f 412 413 437
f 413 438 437
f 413 414 438
f 414 439 438
f 414 415 439
f 415 440 439
f 415 416 440
f 416 441 440
f 416 417 441
f 417 442 441
f 417 418 442
f 418 443 442
f 418 419 443
f 419 444 443
f 419 420 444
f 420 445 444
f 420 421 445
f 421 446 445
f 421 422 446
f 422 447 446
f 422 423 447
f 423 448 447
f 423 424 448
f 424 449 448
f 424 425 449
f 425 450 449
f 425 426 450
f 426 451 450
f 426 427 451
f 427 452 451
f 427 428 452
f 428 453 452
f 428 429 453
f 429 454 453
f 429 430 454
f 430 455 454
f 430 431 455
f 431 456 455
f 431 432 456
f 432 457 456
f 432 433 457
f 433 458 457
f 433 434 458
f 434 435 458
f 434 411 435
f 435 460 459
f 435 436 460
f 436 461 460
f 436 437 461
f 437 462 461
f 437 438 462
f 438 463 462
f 438 439 463
f 439 464 463
f 439 440 464
f 440 465 464
f 440 441 465
f 441 466 465
f 441 442 466
f 442 467 466
f 442 443 467
f 443 468 467
f 443 444 468
f 444 469 468
f 444 445 469
f 445 470 469
f 445 446 470
f 446 471 470
f 446 447 471
f 447 472 471
f 447 448 472
f 448 473 472
f 448 449 473
f 449 474 473
f 449 450 474
f 450 475 474
f 450 451 475
f 451 476 475
f 451 452 476
f 452 477 476
f 452 453 477
f 453 478 477
f 453 454 478
f 454 479 478
f 454 455 479
f 455 480 479
f 455 456 480
f 456 481 480
f 456 457 481
f 457 482 481
f 457 458 482
f 458 459 482
f 458 435 459
f 459 484 483
f 459 460 484
f 460 485 484
f 460 461 485
f 461 486 485
f 461 462 486
f 462 487 486
f 462 463 487
f 463 488 487
f 463 464 488
f 464 489 488
f 464 465 489
f 465 490 489
f 465 466 490
f 466 491 490
f 466 467 491
f 467 492 491
f 467 468 492
f 468 493 492
f 468 469 493
f 469 494 493
f 469 470 494
f 470 495 494
f 470 471 495
f 471 496 495
f 471 472 496
f 472 497 496
f 472 473 497
f 473 498 497
f 473 474 498
f 474 499 498
f 474 475 499
f 475 500 499
f 475 476 500
f 476 501 500
f 476 477 501
f 477 502 501
f 477 478 502
f 478 503 502
f 478 479 503
f 479 504 503
f 479 480 504
f 480 505 504
f 480 481 505
f 481 506 505
f 481 482 506
f 482 483 506
f 482 459 483
f 483 508 507
f 483 484 508
f 484 509 508
f 484 485 509
f 485 510 509
f 485 486 510
f 486 511 510
f 486 487 511
f 487 512 511
f 487 488 512
f 488 513 512
f 488 489 513
f 489 514 513
f 489 490 514
f 490 515 514
f 490 491 515
f 491 516 515
f 491 492 516
f 492 517 516
f 492 493 517
f 493 518 517
f 493 494 518
f 494 519 518
f 494 495 519
f 495 520 519
f 495 496 520
f 496 521 520
f 496 497 521
f 497 522 521
f 497 498 522
f 498 523 522
f 498 499 523
f 499 524 523
f 499 500 524
f 500 525 524
f 500 501 525
f 501 526 525
f 501 502 526
f 502 527 526
f 502 503 527
f 503 528 527
f 503 504 528
f 504 529 528
f 504 505 529
f 505 530 529
f 505 506 530
f 506 507 530
f 506 483 507
f 507 532 531
f 507 508 532
f 508 533 532
f 508 509 533
f 509 534 533
f 509 510 534
f 510 535 534
f 510 511 535
f 511 536 535
f 511 512 536
f 512 537 536
f 512 513 537
f 513 538 537
f 513 514 538
f 514 539 538
f 514 515 539
f 515 540 539
f 515 516 540
f 516 541 540
f 516 517 541
f 517 542 541
f 517 518 542
f 518 543 542
f 518 519 543
f 519 544 543
f 519 520 544
f 520 545 544
f 520 521 545
f 521 546 545
f 521 522 546
f 522 547 546
f 522 523 547
f 523 548 547
f 523 524 548
f 524 549 548
f 524 525 549
f 525 550 549
f 525 526 550
f 526 551 550
f 526 527 551
f 527 552 551
f 527 528 552
f 528 553 552
f 528 529 553
f 529 554 553
f 529 530 554
f 530 531 554
f 530 507 531
f 531 556 555
f 531 532 556
f 532 557 556
f 532 533 557
f 533 558 557
f 533 534 558
f 534 559 558
f 534 535 559
f 535 560 559
f 535 536 560
f 536 561 560
f 536 537 561
f 537 562 561
f 537 538 562
f 538 563 562
f 538 539 563
f 539 564 563
f 539 540 564
f 540 565 564
f 540 541 565
f 541 566 565
f 541 542 566
f 542 567 566
f 542 543 567
f 543 568 567
f 543 544 568
f 544 569 568
f 544 545 569
f 545 570 569
f 545 546 570
f 546 571 570
f 546 547 571
f 547 572 571
f 547 548 572
f 548 573 572
f 548 549 573
f 549 574 573
f 549 550 574
f 550 575 574
f 550 551 575
f 551 576 575
f 551 552 576
f 552 577 576
f 552 553 577
f 553 578 577
f 553 554 578
f 554 555 578
f 554 531 555
usemtl 3
f 266 556 267
f 266 555 556
f 267 557 268
f 267 556 557
f 268 558 269
f 268 557 558
f 269 559 270
f 269 558 559
f 270 560 271
f 270 559 560
f 271 561 272
f 271 560 561
f 272 562 273
f 272 561 562
f 273 563 274
f 273 562 563
f 274 564 275
f 274 563 564
f 275 565 276
f 275 564 565
f 276 566 277
f 276 565 566
f 277 567 278
f 277 566 567
f 278 568 279
f 278 567 568
f 279 569 280
f 279 568 569
f 280 570 281
f 280 569 570
f 281 571 282
f 281 570 571
f 282 572 283
f 282 571 572
f 283 573 284
f 283 572 573
f 284 574 285
f 284 573 574
f 285 575 286
f 285 574 575
f 286 576 287
f 286 575 576
f 287 577 288
f 287 576 577
f 288 578 289
f 288 577 578
f 289 555 266
f 289 578 555
