####
#
# OBJ File Generated by Meshlab
#
####
# Object 000_BN_h100.obj
#
# Vertices: 114
# Faces: 224
#
####
vn  0.000038128  0.003141336  -0.003133612
v  -0.071560356  0.001313654  -0.15
vn  0.000038109  -0.003141337  -0.003133674
v  -0.071515938  -0.001313091  -0.15
vn  0.000015884  -0.003141537  -0.003135362
v  -0.116954651  -0.001684401  -0.15
vn  0.000060728  0.003140989  -0.003135187
v  -0.024870026  0.00056053  -0.15
vn  0.00006043  -0.003140996  -0.003135303
v  -0.025777664  -0.000577074  -0.15
vn  0.000015693  0.003141538  -0.003135293
v  -0.117274239  0.001686007  -0.15
vn  0.000003019  -0.00314159  -0.003139632
v  -0.180447128  -0.001807616  -0.15
vn  0.00007055  -0.000000005  -0.000044918
v  0  0  -0.15
vn  -0.001570827  -0.001570796  -0.001570814
v  -0.3  -0.001805387  -0.15
vn  0.000000008  0.003141593  -0.003141662
v  -0.265248779  0.001804081  -0.15
vn  0.000002848  0.00314159  -0.003139714
v  -0.182711563  0.001806784  -0.15
vn  -0.001570737  0.001570796  -0.001570759
v  -0.3  0.001805387  -0.15
vn  0.000060728  0.003140989  -0.003147998
v  -0.024870026  0.00056053  -0.05
vn  0.003212142  -0.000000006  -0.003096675
v  0  0  -0.05
vn  0.000038128  0.003141337  -0.003149576
v  -0.071560356  0.001313654  -0.05
vn  0.000015693  0.003141538  -0.003147892
v  -0.117274239  0.001686007  -0.05
vn  0.000002848  0.00314159  -0.003143471
v  -0.182711563  0.001806784  -0.05
vn  0.000000008  0.003141593  -0.003141523
v  -0.265248779  0.001804081  -0.05
vn  -0.004712331  0.001570796  -0.001570835
v  -0.3  0.001805387  -0.05
vn  0.000003019  -0.00314159  -0.003143553
v  -0.180447128  -0.001807616  -0.05
vn  -0.00471242  -0.001570796  -0.001570777
v  -0.3  -0.001805387  -0.05
vn  0.000015884  -0.003141538  -0.003147824
v  -0.116954651  -0.001684401  -0.05
vn  0.000038109  -0.003141337  -0.003149512
v  -0.071515938  -0.001313091  -0.05
vn  0.00006043  -0.003140996  -0.003147885
v  -0.025777664  -0.000577074  -0.05
vn  0.000257608  0.003130814  -0.003119118
v  -0.26428833  0.070122757  -0.05
vn  0.000325296  0.003124535  -0.003120787
v  -0.249782196  0.0687649  -0.05
vn  0.00008157  0.00314006  -0.003106876
v  -0.288394531  0.071511002  -0.05
vn  0.000179253  0.003136177  -0.003114063
v  -0.276709015  0.071004356  -0.05
vn  0.000450683  0.003108953  -0.003122454
v  -0.21455304  0.064346977  -0.05
vn  0.000389366  0.003117208  -0.003121341
v  -0.232996323  0.066840614  -0.05
vn  -0.001557267  0.001570739  -0.001562183
v  -0.3  0.071610962  -0.05
vn  0.000508381  0.003100056  -0.003123564
v  -0.194873398  0.061301605  -0.05
vn  0.000652091  0.003073103  -0.003128545
v  -0.138650848  0.050741531  -0.05
vn  0.000563518  0.003090516  -0.003123997
v  -0.17380899  0.057651951  -0.05
vn  0.000611376  0.003081458  -0.00312818
v  -0.151535461  0.053387833  -0.05
vn  0.000746291  0.003051561  -0.003125626
v  -0.090329475  0.039739429  -0.05
vn  0.000880518  0.003015624  -0.003130497
v  -0.013151912  0.018919474  -0.05
vn  0.00201942  0.00150537  -0.001860432
v  0  0.015  -0.05
vn  0.000697034  0.003063184  -0.003125339
v  -0.114823822  0.045522934  -0.05
vn  0.000794031  0.003039496  -0.00312621
v  -0.065204903  0.033381958  -0.05
vn  0.000840598  0.003026949  -0.003126271
v  -0.039554371  0.0264699  -0.05
vn  0.000228367  -0.003133025  -0.003116089
v  -0.269500244  -0.070528923  -0.05
vn  0.000140394  -0.003138086  -0.003110991
v  -0.281921082  -0.071275192  -0.05
vn  0.000047966  -0.003140912  -0.003113317
v  -0.293068542  -0.071603111  -0.05
vn  0.00030344  -0.003126705  -0.00311913
v  -0.254753922  -0.069264832  -0.05
vn  0.000371335  -0.003119395  -0.003120579
v  -0.237825211  -0.067429794  -0.05
vn  0.000434718  -0.003111217  -0.003121917
v  -0.219574234  -0.065062462  -0.05
vn  0.000668197  -0.003069589  -0.0031243
v  -0.128689621  -0.048609901  -0.05
vn  0.000495362  -0.003102144  -0.003122229
v  -0.200048218  -0.06213805  -0.05
vn  0.000866188  -0.003019738  -0.003127246
v  -0.024405369  -0.022190353  -0.05
vn  0.000820891  -0.003032349  -0.003126005
v  -0.050183998  -0.029385017  -0.05
vn  0.000772129  -0.003045119  -0.003125089
v  -0.07680127  -0.036368427  -0.05
vn  0.000613506  -0.003080973  -0.00312332
v  -0.15282634  -0.05364587  -0.05
vn  0.000555377  -0.003091963  -0.003122201
v  -0.176906067  -0.058212486  -0.05
vn  0.002014721  -0.001506762  -0.001857312
v  0  -0.015  -0.05
vn  0.00072087  -0.003057651  -0.003124501
v  -0.103153374  -0.042819389  -0.05
vn  -0.001569017  -0.001570795  -0.001569664
v  -0.3  -0.071610962  -0.05
vn  0.000880517  0.003015624  0.003130497
v  -0.013151912  0.018919474  0.05
vn  0.00201942  0.00150537  0.001860432
v  0  0.015  0.05
vn  0.000840598  0.003026949  0.003126271
v  -0.039554371  0.0264699  0.05
vn  0.000794031  0.003039496  0.00312621
v  -0.065204903  0.033381958  0.05
vn  0.000746291  0.003051561  0.003125626
v  -0.090329475  0.039739429  0.05
vn  0.000697034  0.003063184  0.003125339
v  -0.114823822  0.045522934  0.05
vn  0.000652091  0.003073103  0.003128545
v  -0.138650848  0.050741531  0.05
vn  0.000611376  0.003081458  0.00312818
v  -0.151535461  0.053387833  0.05
vn  0.000563518  0.003090516  0.003123997
v  -0.17380899  0.057651951  0.05
vn  0.000508381  0.003100057  0.003123564
v  -0.194873398  0.061301605  0.05
vn  0.000450683  0.003108952  0.003122454
v  -0.21455304  0.064346977  0.05
vn  0.000389366  0.003117208  0.003121341
v  -0.232996323  0.066840614  0.05
vn  0.000325296  0.003124535  0.003120787
v  -0.249782196  0.0687649  0.05
vn  0.000257608  0.003130814  0.003119118
v  -0.26428833  0.070122757  0.05
vn  0.000179253  0.003136177  0.003114063
v  -0.276709015  0.071004356  0.05
vn  0.00008157  0.003140061  0.003106876
v  -0.288394531  0.071511002  0.05
vn  -0.001557268  0.001570738  0.001562183
v  -0.3  0.071610962  0.05
vn  0.003212143  -0.000000005  0.003096675
v  0  0  0.05
vn  0.002014721  -0.001506762  0.001857312
v  0  -0.015  0.05
vn  0.000047966  -0.003140913  0.003113317
v  -0.293068542  -0.071603111  0.05
vn  -0.001569017  -0.001570795  0.001569664
v  -0.3  -0.071610962  0.05
vn  0.000140394  -0.003138085  0.003110991
v  -0.281921082  -0.071275192  0.05
vn  0.000228367  -0.003133026  0.003116089
v  -0.269500244  -0.070528923  0.05
vn  0.00030344  -0.003126705  0.00311913
v  -0.254753922  -0.069264832  0.05
vn  0.000371335  -0.003119395  0.003120579
v  -0.237825211  -0.067429794  0.05
vn  0.000434718  -0.003111217  0.003121917
v  -0.219574234  -0.065062462  0.05
vn  0.000495362  -0.003102144  0.003122229
v  -0.200048218  -0.06213805  0.05
vn  0.000555377  -0.003091963  0.003122201
v  -0.176906067  -0.058212486  0.05
vn  0.000613506  -0.003080973  0.00312332
v  -0.15282634  -0.05364587  0.05
vn  0.000668197  -0.003069589  0.0031243
v  -0.128689621  -0.048609901  0.05
vn  0.00072087  -0.003057651  0.003124501
v  -0.103153374  -0.042819389  0.05
vn  0.000772129  -0.003045119  0.003125089
v  -0.07680127  -0.036368427  0.05
vn  0.000820891  -0.00303235  0.003126005
v  -0.050183998  -0.029385017  0.05
vn  0.000866188  -0.003019738  0.003127246
v  -0.024405369  -0.022190353  0.05
vn  0.000000008  0.003141593  0.003141523
v  -0.265248779  0.001804081  0.05
vn  0.000002848  0.00314159  0.003143471
v  -0.182711563  0.001806784  0.05
vn  -0.00471233  0.001570796  0.001570835
v  -0.3  0.001805387  0.05
vn  0.000015693  0.003141538  0.003147892
v  -0.117274239  0.001686007  0.05
vn  0.000060728  0.003140989  0.003147998
v  -0.024870026  0.00056053  0.05
vn  0.000038128  0.003141336  0.003149576
v  -0.071560356  0.001313654  0.05
vn  -0.00471242  -0.001570796  0.001570778
v  -0.3  -0.001805387  0.05
vn  0.000003019  -0.00314159  0.003143552
v  -0.180447128  -0.001807616  0.05
vn  0.000015884  -0.003141537  0.003147824
v  -0.116954651  -0.001684401  0.05
vn  0.00006043  -0.003140996  0.003147885
v  -0.025777664  -0.000577074  0.05
vn  0.000038109  -0.003141337  0.003149512
v  -0.071515938  -0.001313091  0.05
vn  -0.001570739  0.001570796  0.001570759
v  -0.3  0.001805387  0.15
vn  -0.001570826  -0.001570796  0.001570814
v  -0.3  -0.001805387  0.15
vn  0.000060728  0.003140989  0.003135187
v  -0.024870026  0.00056053  0.15
vn  0.00007055  -0.000000006  0.000044918
v  0  0  0.15
vn  0.000038128  0.003141337  0.003133612
v  -0.071560356  0.001313654  0.15
vn  0.000015693  0.003141538  0.003135293
v  -0.117274239  0.001686007  0.15
vn  0.000002848  0.00314159  0.003139714
v  -0.182711563  0.001806784  0.15
vn  0.000000008  0.003141593  0.003141662
v  -0.265248779  0.001804081  0.15
vn  0.000003019  -0.00314159  0.003139632
v  -0.180447128  -0.001807616  0.15
vn  0.000015884  -0.003141538  0.003135362
v  -0.116954651  -0.001684401  0.15
vn  0.000038109  -0.003141337  0.003133674
v  -0.071515938  -0.001313091  0.15
vn  0.00006043  -0.003140996  0.003135303
v  -0.025777664  -0.000577074  0.15
# 114 vertices, 0 vertices normals

f 1//1 2//2 3//3
f 1//1 4//4 5//5
f 5//5 2//2 1//1
f 6//6 3//3 7//7
f 4//4 8//8 5//5
f 3//3 6//6 1//1
f 7//7 9//9 10//10
f 10//10 11//11 7//7
f 9//9 12//12 10//10
f 7//7 11//11 6//6
f 4//4 13//13 14//14
f 1//1 15//15 13//13
f 6//6 16//16 15//15
f 11//11 17//17 16//16
f 10//10 18//18 17//17
f 12//12 19//19 18//18
f 18//18 10//10 12//12
f 17//17 11//11 10//10
f 16//16 6//6 11//11
f 15//15 1//1 6//6
f 13//13 4//4 1//1
f 14//14 8//8 4//4
f 7//7 20//20 21//21
f 3//3 22//22 20//20
f 2//2 23//23 22//22
f 5//5 24//24 23//23
f 8//8 14//14 24//24
f 24//24 5//5 8//8
f 23//23 2//2 5//5
f 22//22 3//3 2//2
f 20//20 7//7 3//3
f 21//21 9//9 7//7
f 18//18 25//25 26//26
f 19//19 27//27 28//28
f 17//17 18//18 29//29
f 26//26 30//30 18//18
f 19//19 31//31 27//27
f 30//30 29//29 18//18
f 28//28 18//18 19//19
f 29//29 32//32 17//17
f 16//16 17//17 33//33
f 17//17 34//34 35//35
f 32//32 34//34 17//17
f 35//35 33//33 17//17
f 15//15 16//16 36//36
f 13//13 37//37 38//38
f 33//33 39//39 16//16
f 16//16 39//39 36//36
f 15//15 40//40 41//41
f 13//13 41//41 37//37
f 36//36 40//40 15//15
f 38//38 14//14 13//13
f 41//41 13//13 15//15
f 28//28 25//25 18//18
f 21//21 42//42 43//43
f 43//43 44//44 21//21
f 21//21 45//45 42//42
f 21//21 46//46 45//45
f 21//21 20//20 47//47
f 47//47 46//46 21//21
f 20//20 22//22 48//48
f 20//20 49//49 47//47
f 24//24 50//50 51//51
f 22//22 23//23 52//52
f 48//48 53//53 20//20
f 20//20 54//54 49//49
f 24//24 14//14 55//55
f 51//51 23//23 24//24
f 52//52 56//56 22//22
f 44//44 57//57 21//21
f 51//51 52//52 23//23
f 53//53 54//54 20//20
f 56//56 48//48 22//22
f 55//55 50//50 24//24
f 58//58 59//59 38//38
f 41//41 60//60 58//58
f 40//40 61//61 60//60
f 36//36 62//62 61//61
f 39//39 63//63 62//62
f 64//64 63//63 39//39
f 35//35 65//65 64//64
f 34//34 66//66 65//65
f 32//32 67//67 66//66
f 68//68 67//67 32//32
f 69//69 68//68 29//29
f 26//26 70//70 69//69
f 25//25 71//71 70//70
f 72//72 71//71 25//25
f 27//27 73//73 72//72
f 31//31 74//74 73//73
f 73//73 27//27 31//31
f 72//72 28//28 27//27
f 25//25 28//28 72//72
f 70//70 26//26 25//25
f 69//69 30//30 26//26
f 29//29 30//30 69//69
f 32//32 29//29 68//68
f 66//66 34//34 32//32
f 65//65 35//35 34//34
f 64//64 33//33 35//35
f 39//39 33//33 64//64
f 62//62 36//36 39//39
f 61//61 40//40 36//36
f 60//60 41//41 40//40
f 58//58 37//37 41//41
f 38//38 37//37 58//58
f 14//14 38//38 59//59
f 14//14 75//75 76//76
f 76//76 55//55 14//14
f 59//59 75//75 14//14
f 44//44 77//77 78//78
f 79//79 77//77 44//44
f 42//42 80//80 79//79
f 81//81 80//80 42//42
f 46//46 82//82 81//81
f 47//47 83//83 82//82
f 49//49 84//84 83//83
f 85//85 84//84 49//49
f 86//86 85//85 54//54
f 87//87 86//86 53//53
f 56//56 88//88 87//87
f 89//89 88//88 56//56
f 51//51 90//90 89//89
f 50//50 91//91 90//90
f 55//55 76//76 91//91
f 91//91 50//50 55//55
f 90//90 51//51 50//50
f 89//89 52//52 51//51
f 56//56 52//52 89//89
f 87//87 48//48 56//56
f 53//53 48//48 87//87
f 54//54 53//53 86//86
f 49//49 54//54 85//85
f 83//83 47//47 49//49
f 82//82 46//46 47//47
f 81//81 45//45 46//46
f 42//42 45//45 81//81
f 79//79 43//43 42//42
f 44//44 43//43 79//79
f 78//78 57//57 44//44
f 92//92 69//69 70//70
f 92//92 68//68 69//69
f 93//93 67//67 68//68
f 94//94 92//92 72//72
f 68//68 92//92 93//93
f 72//72 73//73 94//94
f 93//93 64//64 65//65
f 95//95 63//63 64//64
f 93//93 66//66 67//67
f 92//92 71//71 72//72
f 96//96 75//75 59//59
f 97//97 61//61 62//62
f 64//64 93//93 95//95
f 73//73 74//74 94//94
f 59//59 58//58 96//96
f 97//97 96//96 60//60
f 62//62 95//95 97//97
f 70//70 71//71 92//92
f 60//60 61//61 97//97
f 65//65 66//66 93//93
f 62//62 63//63 95//95
f 58//58 60//60 96//96
f 98//98 77//77 79//79
f 98//98 78//78 77//77
f 79//79 80//80 98//98
f 98//98 82//82 83//83
f 80//80 81//81 98//98
f 81//81 82//82 98//98
f 83//83 99//99 98//98
f 99//99 86//86 87//87
f 83//83 84//84 99//99
f 99//99 85//85 86//86
f 100//100 88//88 89//89
f 101//101 102//102 90//90
f 87//87 100//100 99//99
f 100//100 87//87 88//88
f 102//102 89//89 90//90
f 101//101 91//91 76//76
f 89//89 102//102 100//100
f 76//76 75//75 101//101
f 90//90 91//91 101//101
f 84//84 85//85 99//99
f 21//21 57//57 78//78
f 78//78 98//98 21//21
f 103//103 94//94 98//98
f 98//98 94//94 21//21
f 9//9 21//21 19//19
f 74//74 31//31 19//19
f 94//94 74//74 21//21
f 19//19 21//21 74//74
f 19//19 12//12 9//9
f 98//98 104//104 103//103
f 96//96 105//105 106//106
f 97//97 107//107 105//105
f 95//95 108//108 107//107
f 93//93 109//109 108//108
f 92//92 110//110 109//109
f 94//94 103//103 110//110
f 110//110 92//92 94//94
f 109//109 93//93 92//92
f 108//108 95//95 93//93
f 107//107 97//97 95//95
f 105//105 96//96 97//97
f 106//106 75//75 96//96
f 99//99 111//111 104//104
f 100//100 112//112 111//111
f 102//102 113//113 112//112
f 101//101 114//114 113//113
f 75//75 106//106 114//114
f 114//114 101//101 75//75
f 113//113 102//102 101//101
f 112//112 100//100 102//102
f 111//111 99//99 100//100
f 104//104 98//98 99//99
f 107//107 113//113 114//114
f 107//107 108//108 112//112
f 112//112 113//113 107//107
f 114//114 105//105 107//107
f 108//108 109//109 111//111
f 111//111 109//109 110//110
f 111//111 112//112 108//108
f 114//114 106//106 105//105
f 110//110 104//104 111//111
f 110//110 103//103 104//104
# 224 faces, 0 coords texture

# End of File
