# mfmc-paper1-benchmark 1.0.0
o sphere_d0p1
v 0.050000000000000003 0 0
v 0.04829629131445342 0.012940952255126037 0
v 0.04829629131445342 0.012499999999999999 0.0033493649053890334
v 0.04829629131445342 0.011207193402100669 0.0064704761275630176
v 0.04829629131445342 0.0091506350946109656 0.0091506350946109639
v 0.04829629131445342 0.0064704761275630202 0.011207193402100668
v 0.04829629131445342 0.0033493649053890334 0.012499999999999999
v 0.04829629131445342 7.9240478785794118e-19 0.012940952255126037
v 0.04829629131445342 -0.0033493649053890316 0.012499999999999999
v 0.04829629131445342 -0.0064704761275630159 0.011207193402100669
v 0.04829629131445342 -0.0091506350946109639 0.0091506350946109656
v 0.04829629131445342 -0.011207193402100669 0.0064704761275630176
v 0.04829629131445342 -0.012499999999999997 0.0033493649053890368
v 0.04829629131445342 -0.012940952255126037 1.5848095757158824e-18
v 0.04829629131445342 -0.012499999999999999 -0.0033493649053890338
v 0.04829629131445342 -0.011207193402100669 -0.006470476127563015
v 0.04829629131445342 -0.0091506350946109708 -0.0091506350946109604
v 0.04829629131445342 -0.0064704761275630246 -0.011207193402100664
v 0.04829629131445342 -0.0033493649053890316 -0.012499999999999999
v 0.04829629131445342 -2.3772143635738232e-18 -0.012940952255126037
v 0.04829629131445342 0.0033493649053890273 -0.012500000000000001
v 0.04829629131445342 0.0064704761275630202 -0.011207193402100668
v 0.04829629131445342 0.0091506350946109639 -0.0091506350946109673
v 0.04829629131445342 0.011207193402100664 -0.0064704761275630246
v 0.04829629131445342 0.012499999999999995 -0.0033493649053890442
v 0.04330127018922194 0.024999999999999998 0
v 0.04330127018922194 0.024148145657226706 0.0064704761275630176
v 0.04330127018922194 0.021650635094610966 0.012499999999999997
v 0.04330127018922194 0.017677669529663688 0.017677669529663684
v 0.04330127018922194 0.012500000000000002 0.021650635094610963
v 0.04330127018922194 0.0064704761275630176 0.024148145657226706
v 0.04330127018922194 1.5308084989341914e-18 0.024999999999999998
v 0.04330127018922194 -0.006470476127563015 0.024148145657226706
v 0.04330127018922194 -0.012499999999999994 0.021650635094610966
v 0.04330127018922194 -0.017677669529663684 0.017677669529663688
v 0.04330127018922194 -0.021650635094610966 0.012499999999999997
v 0.04330127018922194 -0.024148145657226703 0.0064704761275630246
v 0.04330127018922194 -0.024999999999999998 3.0616169978683828e-18
v 0.04330127018922194 -0.024148145657226706 -0.0064704761275630194
v 0.04330127018922194 -0.02165063509461097 -0.012499999999999992
v 0.04330127018922194 -0.017677669529663695 -0.017677669529663678
v 0.04330127018922194 -0.012500000000000009 -0.021650635094610956
v 0.04330127018922194 -0.006470476127563015 -0.024148145657226706
v 0.04330127018922194 -4.5924254968025736e-18 -0.024999999999999998
v 0.04330127018922194 0.0064704761275630072 -0.02414814565722671
v 0.04330127018922194 0.012500000000000002 -0.021650635094610963
v 0.04330127018922194 0.017677669529663681 -0.017677669529663691
v 0.04330127018922194 0.021650635094610956 -0.012500000000000009
v 0.04330127018922194 0.024148145657226699 -0.0064704761275630384
v 0.035355339059327383 0.035355339059327376 0
v 0.035355339059327383 0.034150635094610964 0.0091506350946109656
v 0.035355339059327383 0.030618621784789728 0.017677669529663684
v 0.035355339059327383 0.025000000000000001 0.024999999999999998
v 0.035355339059327383 0.017677669529663691 0.030618621784789725
v 0.035355339059327383 0.0091506350946109656 0.034150635094610964
v 0.035355339059327383 2.1648901405887331e-18 0.035355339059327376
v 0.035355339059327383 -0.0091506350946109621 0.034150635094610964
v 0.035355339059327383 -0.017677669529663681 0.030618621784789728
v 0.035355339059327383 -0.024999999999999998 0.025000000000000001
v 0.035355339059327383 -0.030618621784789728 0.017677669529663684
v 0.035355339059327383 -0.034150635094610964 0.0091506350946109743
v 0.035355339059327383 -0.035355339059327376 4.3297802811774661e-18
v 0.035355339059327383 -0.034150635094610964 -0.0091506350946109673
v 0.035355339059327383 -0.030618621784789732 -0.017677669529663678
v 0.035355339059327383 -0.025000000000000012 -0.024999999999999984
v 0.035355339059327383 -0.017677669529663705 -0.030618621784789718
v 0.035355339059327383 -0.0091506350946109621 -0.034150635094610964
v 0.035355339059327383 -6.4946704217661992e-18 -0.035355339059327376
v 0.035355339059327383 0.00915063509461095 -0.03415063509461097
v 0.035355339059327383 0.017677669529663691 -0.030618621784789725
v 0.035355339059327383 0.024999999999999994 -0.025000000000000005
v 0.035355339059327383 0.030618621784789718 -0.017677669529663705
v 0.035355339059327383 0.034150635094610957 -0.0091506350946109951
v 0.025000000000000008 0.043301270189221933 0
v 0.025000000000000008 0.041825815186890394 0.011207193402100668
v 0.025000000000000008 0.037500000000000006 0.021650635094610963
v 0.025000000000000008 0.030618621784789728 0.030618621784789725
v 0.025000000000000008 0.02165063509461097 0.037499999999999999
v 0.025000000000000008 0.011207193402100668 0.041825815186890394
v 0.025000000000000008 2.6514380968122674e-18 0.043301270189221933
v 0.025000000000000008 -0.011207193402100663 0.041825815186890394
v 0.025000000000000008 -0.021650635094610956 0.037500000000000006
v 0.025000000000000008 -0.030618621784789725 0.030618621784789728
v 0.025000000000000008 -0.037500000000000006 0.021650635094610963
v 0.025000000000000008 -0.041825815186890394 0.01120719340210068
v 0.025000000000000008 -0.043301270189221933 5.3028761936245347e-18
v 0.025000000000000008 -0.041825815186890394 -0.011207193402100671
v 0.025000000000000008 -0.037500000000000006 -0.021650635094610956
v 0.025000000000000008 -0.030618621784789742 -0.030618621784789708
v 0.025000000000000008 -0.021650635094610987 -0.037499999999999992
v 0.025000000000000008 -0.011207193402100663 -0.041825815186890394
v 0.025000000000000008 -7.9543142904368009e-18 -0.043301270189221933
v 0.025000000000000008 0.011207193402100649 -0.041825815186890401
v 0.025000000000000008 0.02165063509461097 -0.037499999999999999
v 0.025000000000000008 0.030618621784789718 -0.030618621784789732
v 0.025000000000000008 0.037499999999999992 -0.021650635094610987
v 0.025000000000000008 0.041825815186890387 -0.011207193402100704
v 0.012940952255126037 0.04829629131445342 0
v 0.012940952255126037 0.046650635094610975 0.012500000000000001
v 0.012940952255126037 0.041825815186890401 0.024148145657226706
v 0.012940952255126037 0.03415063509461097 0.034150635094610964
v 0.012940952255126037 0.024148145657226717 0.041825815186890394
v 0.012940952255126037 0.012500000000000001 0.046650635094610975
v 0.012940952255126037 2.9572949284466749e-18 0.04829629131445342
v 0.012940952255126037 -0.012499999999999995 0.046650635094610975
v 0.012940952255126037 -0.024148145657226699 0.041825815186890401
v 0.012940952255126037 -0.034150635094610964 0.03415063509461097
v 0.012940952255126037 -0.041825815186890401 0.024148145657226706
v 0.012940952255126037 -0.046650635094610968 0.012500000000000015
v 0.012940952255126037 -0.04829629131445342 5.9145898568933498e-18
v 0.012940952255126037 -0.046650635094610975 -0.012500000000000002
v 0.012940952255126037 -0.041825815186890408 -0.024148145657226696
v 0.012940952255126037 -0.034150635094610991 -0.03415063509461095
v 0.012940952255126037 -0.024148145657226731 -0.041825815186890387
v 0.012940952255126037 -0.012499999999999995 -0.046650635094610975
v 0.012940952255126037 -8.8718847853400232e-18 -0.04829629131445342
v 0.012940952255126037 0.012499999999999978 -0.046650635094610975
v 0.012940952255126037 0.024148145657226717 -0.041825815186890394
v 0.012940952255126037 0.034150635094610964 -0.034150635094610977
v 0.012940952255126037 0.041825815186890387 -0.024148145657226731
v 0.012940952255126037 0.046650635094610961 -0.012500000000000041
v 3.0616169978683832e-18 0.050000000000000003 0
v 3.0616169978683832e-18 0.04829629131445342 0.012940952255126037
v 3.0616169978683832e-18 0.04330127018922194 0.024999999999999998
v 3.0616169978683832e-18 0.035355339059327383 0.035355339059327376
v 3.0616169978683832e-18 0.025000000000000008 0.043301270189221933
v 3.0616169978683832e-18 0.012940952255126037 0.04829629131445342
v 3.0616169978683832e-18 3.0616169978683832e-18 0.050000000000000003
v 3.0616169978683832e-18 -0.012940952255126032 0.04829629131445342
v 3.0616169978683832e-18 -0.024999999999999991 0.04330127018922194
v 3.0616169978683832e-18 -0.035355339059327376 0.035355339059327383
v 3.0616169978683832e-18 -0.04330127018922194 0.024999999999999998
v 3.0616169978683832e-18 -0.048296291314453413 0.012940952255126051
v 3.0616169978683832e-18 -0.050000000000000003 6.1232339957367663e-18
v 3.0616169978683832e-18 -0.04829629131445342 -0.01294095225512604
v 3.0616169978683832e-18 -0.043301270189221946 -0.024999999999999988
v 3.0616169978683832e-18 -0.035355339059327397 -0.035355339059327355
v 3.0616169978683832e-18 -0.025000000000000022 -0.043301270189221919
v 3.0616169978683832e-18 -0.012940952255126032 -0.04829629131445342
v 3.0616169978683832e-18 -9.1848509936051487e-18 -0.050000000000000003
v 3.0616169978683832e-18 0.012940952255126016 -0.048296291314453427
v 3.0616169978683832e-18 0.025000000000000008 -0.043301270189221933
v 3.0616169978683832e-18 0.035355339059327369 -0.035355339059327383
v 3.0616169978683832e-18 0.043301270189221919 -0.025000000000000022
v 3.0616169978683832e-18 0.048296291314453406 -0.012940952255126079
v -0.012940952255126032 0.04829629131445342 0
v -0.012940952255126032 0.046650635094610975 0.012500000000000001
v -0.012940952255126032 0.041825815186890401 0.024148145657226706
v -0.012940952255126032 0.03415063509461097 0.034150635094610964
v -0.012940952255126032 0.024148145657226717 0.041825815186890394
v -0.012940952255126032 0.012500000000000001 0.046650635094610975
v -0.012940952255126032 2.9572949284466749e-18 0.04829629131445342
v -0.012940952255126032 -0.012499999999999995 0.046650635094610975
v -0.012940952255126032 -0.024148145657226699 0.041825815186890401
v -0.012940952255126032 -0.034150635094610964 0.03415063509461097
v -0.012940952255126032 -0.041825815186890401 0.024148145657226706
v -0.012940952255126032 -0.046650635094610968 0.012500000000000015
v -0.012940952255126032 -0.04829629131445342 5.9145898568933498e-18
v -0.012940952255126032 -0.046650635094610975 -0.012500000000000002
v -0.012940952255126032 -0.041825815186890408 -0.024148145657226696
v -0.012940952255126032 -0.034150635094610991 -0.03415063509461095
v -0.012940952255126032 -0.024148145657226731 -0.041825815186890387
v -0.012940952255126032 -0.012499999999999995 -0.046650635094610975
v -0.012940952255126032 -8.8718847853400232e-18 -0.04829629131445342
v -0.012940952255126032 0.012499999999999978 -0.046650635094610975
v -0.012940952255126032 0.024148145657226717 -0.041825815186890394
v -0.012940952255126032 0.034150635094610964 -0.034150635094610977
v -0.012940952255126032 0.041825815186890387 -0.024148145657226731
v -0.012940952255126032 0.046650635094610961 -0.012500000000000041
v -0.024999999999999991 0.04330127018922194 0
v -0.024999999999999991 0.041825815186890401 0.011207193402100669
v -0.024999999999999991 0.037500000000000006 0.021650635094610966
v -0.024999999999999991 0.030618621784789732 0.030618621784789728
v -0.024999999999999991 0.021650635094610973 0.037500000000000006
v -0.024999999999999991 0.011207193402100669 0.041825815186890401
v -0.024999999999999991 2.6514380968122677e-18 0.04330127018922194
v -0.024999999999999991 -0.011207193402100666 0.041825815186890401
v -0.024999999999999991 -0.021650635094610959 0.037500000000000006
v -0.024999999999999991 -0.030618621784789728 0.030618621784789732
v -0.024999999999999991 -0.037500000000000006 0.021650635094610966
v -0.024999999999999991 -0.041825815186890401 0.011207193402100682
v -0.024999999999999991 -0.04330127018922194 5.3028761936245355e-18
v -0.024999999999999991 -0.041825815186890401 -0.011207193402100673
v -0.024999999999999991 -0.037500000000000012 -0.021650635094610959
v -0.024999999999999991 -0.030618621784789749 -0.030618621784789714
v -0.024999999999999991 -0.021650635094610991 -0.037499999999999992
v -0.024999999999999991 -0.011207193402100666 -0.041825815186890401
v -0.024999999999999991 -7.9543142904368025e-18 -0.04330127018922194
v -0.024999999999999991 0.01120719340210065 -0.041825815186890408
v -0.024999999999999991 0.021650635094610973 -0.037500000000000006
v -0.024999999999999991 0.030618621784789725 -0.030618621784789739
v -0.024999999999999991 0.037499999999999992 -0.021650635094610991
v -0.024999999999999991 0.041825815186890394 -0.011207193402100706
v -0.035355339059327376 0.035355339059327383 0
v -0.035355339059327376 0.03415063509461097 0.0091506350946109673
v -0.035355339059327376 0.030618621784789735 0.017677669529663688
v -0.035355339059327376 0.025000000000000005 0.025000000000000001
v -0.035355339059327376 0.017677669529663695 0.030618621784789732
v -0.035355339059327376 0.0091506350946109673 0.03415063509461097
v -0.035355339059327376 2.1648901405887338e-18 0.035355339059327383
v -0.035355339059327376 -0.0091506350946109639 0.03415063509461097
v -0.035355339059327376 -0.017677669529663684 0.030618621784789735
v -0.035355339059327376 -0.025000000000000001 0.025000000000000005
v -0.035355339059327376 -0.030618621784789735 0.017677669529663688
v -0.035355339059327376 -0.03415063509461097 0.009150635094610976
v -0.035355339059327376 -0.035355339059327383 4.3297802811774677e-18
v -0.035355339059327376 -0.03415063509461097 -0.0091506350946109691
v -0.035355339059327376 -0.030618621784789739 -0.017677669529663681
v -0.035355339059327376 -0.025000000000000019 -0.024999999999999991
v -0.035355339059327376 -0.017677669529663709 -0.030618621784789721
v -0.035355339059327376 -0.0091506350946109639 -0.03415063509461097
v -0.035355339059327376 -6.4946704217662007e-18 -0.035355339059327383
v -0.035355339059327376 0.0091506350946109517 -0.034150635094610977
v -0.035355339059327376 0.017677669529663695 -0.030618621784789732
v -0.035355339059327376 0.024999999999999998 -0.025000000000000012
v -0.035355339059327376 0.030618621784789721 -0.017677669529663709
v -0.035355339059327376 0.034150635094610964 -0.0091506350946109968
v -0.04330127018922194 0.024999999999999998 0
v -0.04330127018922194 0.024148145657226706 0.0064704761275630176
v -0.04330127018922194 0.021650635094610966 0.012499999999999997
v -0.04330127018922194 0.017677669529663688 0.017677669529663684
v -0.04330127018922194 0.012500000000000002 0.021650635094610963
v -0.04330127018922194 0.0064704761275630176 0.024148145657226706
v -0.04330127018922194 1.5308084989341914e-18 0.024999999999999998
v -0.04330127018922194 -0.006470476127563015 0.024148145657226706
v -0.04330127018922194 -0.012499999999999994 0.021650635094610966
v -0.04330127018922194 -0.017677669529663684 0.017677669529663688
v -0.04330127018922194 -0.021650635094610966 0.012499999999999997
v -0.04330127018922194 -0.024148145657226703 0.0064704761275630246
v -0.04330127018922194 -0.024999999999999998 3.0616169978683828e-18
v -0.04330127018922194 -0.024148145657226706 -0.0064704761275630194
v -0.04330127018922194 -0.02165063509461097 -0.012499999999999992
v -0.04330127018922194 -0.017677669529663695 -0.017677669529663678
v -0.04330127018922194 -0.012500000000000009 -0.021650635094610956
v -0.04330127018922194 -0.006470476127563015 -0.024148145657226706
v -0.04330127018922194 -4.5924254968025736e-18 -0.024999999999999998
v -0.04330127018922194 0.0064704761275630072 -0.02414814565722671
v -0.04330127018922194 0.012500000000000002 -0.021650635094610963
v -0.04330127018922194 0.017677669529663681 -0.017677669529663691
v -0.04330127018922194 0.021650635094610956 -0.012500000000000009
v -0.04330127018922194 0.024148145657226699 -0.0064704761275630384
v -0.048296291314453413 0.012940952255126051 0
v -0.048296291314453413 0.012500000000000013 0.0033493649053890368
v -0.048296291314453413 0.011207193402100682 0.0064704761275630246
v -0.048296291314453413 0.009150635094610976 0.0091506350946109743
v -0.048296291314453413 0.0064704761275630272 0.01120719340210068
v -0.048296291314453413 0.0033493649053890368 0.012500000000000013
v -0.048296291314453413 7.9240478785794204e-19 0.012940952255126051
v -0.048296291314453413 -0.0033493649053890355 0.012500000000000013
v -0.048296291314453413 -0.0064704761275630228 0.011207193402100682
v -0.048296291314453413 -0.0091506350946109743 0.009150635094610976
v -0.048296291314453413 -0.011207193402100682 0.0064704761275630246
v -0.048296291314453413 -0.012500000000000011 0.0033493649053890403
v -0.048296291314453413 -0.012940952255126051 1.5848095757158841e-18
v -0.048296291314453413 -0.012500000000000013 -0.0033493649053890377
v -0.048296291314453413 -0.011207193402100682 -0.006470476127563022
v -0.048296291314453413 -0.0091506350946109795 -0.0091506350946109708
v -0.048296291314453413 -0.0064704761275630315 -0.011207193402100676
v -0.048296291314453413 -0.0033493649053890355 -0.012500000000000013
v -0.048296291314453413 -2.3772143635738259e-18 -0.012940952255126051
v -0.048296291314453413 0.0033493649053890312 -0.012500000000000015
v -0.048296291314453413 0.0064704761275630272 -0.01120719340210068
v -0.048296291314453413 0.0091506350946109725 -0.0091506350946109778
v -0.048296291314453413 0.011207193402100676 -0.0064704761275630315
v -0.048296291314453413 0.012500000000000009 -0.0033493649053890477
v -0.050000000000000003 0 0
usemtl 1
f 1 2 3
f 1 3 4
f 1 4 5
f 1 5 6
f 1 6 7
f 1 7 8
f 1 8 9
f 1 9 10
f 1 10 11
f 1 11 12
f 1 12 13
f 1 13 14
f 1 14 15
f 1 15 16
f 1 16 17
f 1 17 18
f 1 18 19
f 1 19 20
f 1 20 21
f 1 21 22
f 1 22 23
f 1 23 24
f 1 24 25
f 1 25 2
f 2 26 27
f 2 27 3
f 3 27 28
f 3 28 4
f 4 28 29
f 4 29 5
f 5 29 30
f 5 30 6
f 6 30 31
f 6 31 7
f 7 31 32
f 7 32 8
f 8 32 33
f 8 33 9
f 9 33 34
f 9 34 10
f 10 34 35
f 10 35 11
f 11 35 36
f 11 36 12
f 12 36 37
f 12 37 13
f 13 37 38
f 13 38 14
f 14 38 39
f 14 39 15
f 15 39 40
f 15 40 16
f 16 40 41
f 16 41 17
f 17 41 42
f 17 42 18
f 18 42 43
f 18 43 19
f 19 43 44
f 19 44 20
f 20 44 45
f 20 45 21
f 21 45 46
f 21 46 22
f 22 46 47
f 22 47 23
f 23 47 48
f 23 48 24
f 24 48 49
f 24 49 25
f 25 49 26
f 25 26 2
f 26 50 51
f 26 51 27
f 27 51 52
f 27 52 28
f 28 52 53
f 28 53 29
f 29 53 54
f 29 54 30
f 30 54 55
f 30 55 31
f 31 55 56
f 31 56 32
f 32 56 57
f 32 57 33
f 33 57 58
f 33 58 34
f 34 58 59
f 34 59 35
f 35 59 60
f 35 60 36
f 36 60 61
f 36 61 37
f 37 61 62
f 37 62 38
f 38 62 63
f 38 63 39
f 39 63 64
f 39 64 40
f 40 64 65
f 40 65 41
f 41 65 66
f 41 66 42
f 42 66 67
f 42 67 43
f 43 67 68
f 43 68 44
f 44 68 69
f 44 69 45
f 45 69 70
f 45 70 46
f 46 70 71
f 46 71 47
f 47 71 72
f 47 72 48
f 48 72 73
f 48 73 49
f 49 73 50
f 49 50 26
f 50 74 75
f 50 75 51
f 51 75 76
f 51 76 52
f 52 76 77
f 52 77 53
f 53 77 78
f 53 78 54
f 54 78 79
f 54 79 55
f 55 79 80
f 55 80 56
f 56 80 81
f 56 81 57
f 57 81 82
f 57 82 58
f 58 82 83
f 58 83 59
f 59 83 84
f 59 84 60
f 60 84 85
f 60 85 61
f 61 85 86
f 61 86 62
f 62 86 87
f 62 87 63
f 63 87 88
f 63 88 64
f 64 88 89
f 64 89 65
f 65 89 90
f 65 90 66
f 66 90 91
f 66 91 67
f 67 91 92
f 67 92 68
f 68 92 93
f 68 93 69
f 69 93 94
f 69 94 70
f 70 94 95
f 70 95 71
f 71 95 96
f 71 96 72
f 72 96 97
f 72 97 73
f 73 97 74
f 73 74 50
f 74 98 99
f 74 99 75
f 75 99 100
f 75 100 76
f 76 100 101
f 76 101 77
f 77 101 102
f 77 102 78
f 78 102 103
f 78 103 79
f 79 103 104
f 79 104 80
f 80 104 105
f 80 105 81
f 81 105 106
f 81 106 82
f 82 106 107
f 82 107 83
f 83 107 108
f 83 108 84
f 84 108 109
f 84 109 85
f 85 109 110
f 85 110 86
f 86 110 111
f 86 111 87
f 87 111 112
f 87 112 88
f 88 112 113
f 88 113 89
f 89 113 114
f 89 114 90
f 90 114 115
f 90 115 91
f 91 115 116
f 91 116 92
f 92 116 117
f 92 117 93
f 93 117 118
f 93 118 94
f 94 118 119
f 94 119 95
f 95 119 120
f 95 120 96
f 96 120 121
f 96 121 97
f 97 121 98
f 97 98 74
f 98 122 123
f 98 123 99
f 99 123 124
f 99 124 100
f 100 124 125
f 100 125 101
f 101 125 126
f 101 126 102
f 102 126 127
f 102 127 103
f 103 127 128
f 103 128 104
f 104 128 129
f 104 129 105
f 105 129 130
f 105 130 106
f 106 130 131
f 106 131 107
f 107 131 132
f 107 132 108
f 108 132 133
f 108 133 109
f 109 133 134
f 109 134 110
f 110 134 135
f 110 135 111
f 111 135 136
f 111 136 112
f 112 136 137
f 112 137 113
f 113 137 138
f 113 138 114
f 114 138 139
f 114 139 115
f 115 139 140
f 115 140 116
f 116 140 141
f 116 141 117
f 117 141 142
f 117 142 118
f 118 142 143
f 118 143 119
f 119 143 144
f 119 144 120
f 120 144 145
f 120 145 121
f 121 145 122
f 121 122 98
f 122 146 147
f 122 147 123
f 123 147 148
f 123 148 124
f 124 148 149
f 124 149 125
f 125 149 150
f 125 150 126
f 126 150 151
f 126 151 127
f 127 151 152
f 127 152 128
f 128 152 153
f 128 153 129
f 129 153 154
f 129 154 130
f 130 154 155
f 130 155 131
f 131 155 156
f 131 156 132
f 132 156 157
f 132 157 133
f 133 157 158
f 133 158 134
f 134 158 159
f 134 159 135
f 135 159 160
f 135 160 136
f 136 160 161
f 136 161 137
f 137 161 162
f 137 162 138
f 138 162 163
f 138 163 139
f 139 163 164
f 139 164 140
f 140 164 165
f 140 165 141
f 141 165 166
f 141 166 142
f 142 166 167
f 142 167 143
f 143 167 168
f 143 168 144
f 144 168 169
f 144 169 145
f 145 169 146
f 145 146 122
f 146 170 171
f 146 171 147
f 147 171 172
f 147 172 148
f 148 172 173
f 148 173 149
f 149 173 174
f 149 174 150
f 150 174 175
f 150 175 151
f 151 175 176
f 151 176 152
f 152 176 177
f 152 177 153
f 153 177 178
f 153 178 154
f 154 178 179
f 154 179 155
f 155 179 180
f 155 180 156
f 156 180 181
f 156 181 157
f 157 181 182
f 157 182 158
f 158 182 183
f 158 183 159
f 159 183 184
f 159 184 160
f 160 184 185
f 160 185 161
f 161 185 186
f 161 186 162
f 162 186 187
f 162 187 163
f 163 187 188
f 163 188 164
f 164 188 189
f 164 189 165
f 165 189 190
f 165 190 166
f 166 190 191
f 166 191 167
f 167 191 192
f 167 192 168
f 168 192 193
f 168 193 169
f 169 193 170
f 169 170 146
f 170 194 195
f 170 195 171
f 171 195 196
f 171 196 172
f 172 196 197
f 172 197 173
f 173 197 198
f 173 198 174
f 174 198 199
f 174 199 175
f 175 199 200
f 175 200 176
f 176 200 201
f 176 201 177
f 177 201 202
f 177 202 178
f 178 202 203
f 178 203 179
f 179 203 204
f 179 204 180
f 180 204 205
f 180 205 181
f 181 205 206
f 181 206 182
f 182 206 207
f 182 207 183
f 183 207 208
f 183 208 184
f 184 208 209
f 184 209 185
f 185 209 210
f 185 210 186
f 186 210 211
f 186 211 187
f 187 211 212
f 187 212 188
f 188 212 213
f 188 213 189
f 189 213 214
f 189 214 190
f 190 214 215
f 190 215 191
f 191 215 216
f 191 216 192
f 192 216 217
f 192 217 193
f 193 217 194
f 193 194 170
f 194 218 219
f 194 219 195
f 195 219 220
f 195 220 196
f 196 220 221
f 196 221 197
f 197 221 222
f 197 222 198
f 198 222 223
f 198 223 199
f 199 223 224
f 199 224 200
f 200 224 225
f 200 225 201
f 201 225 226
f 201 226 202
f 202 226 227
f 202 227 203
f 203 227 228
f 203 228 204
f 204 228 229
f 204 229 205
f 205 229 230
f 205 230 206
f 206 230 231
f 206 231 207
f 207 231 232
f 207 232 208
f 208 232 233
f 208 233 209
f 209 233 234
f 209 234 210
f 210 234 235
f 210 235 211
f 211 235 236
f 211 236 212
f 212 236 237
f 212 237 213
f 213 237 238
f 213 238 214
f 214 238 239
f 214 239 215
f 215 239 240
f 215 240 216
f 216 240 241
f 216 241 217
f 217 241 218
f 217 218 194
f 218 242 243
f 218 243 219
f 219 243 244
f 219 244 220
f 220 244 245
f 220 245 221
f 221 245 246
f 221 246 222
f 222 246 247
f 222 247 223
f 223 247 248
f 223 248 224
f 224 248 249
f 224 249 225
f 225 249 250
f 225 250 226
f 226 250 251
f 226 251 227
f 227 251 252
f 227 252 228
f 228 252 253
f 228 253 229
f 229 253 254
f 229 254 230
f 230 254 255
f 230 255 231
f 231 255 256
f 231 256 232
f 232 256 257
f 232 257 233
f 233 257 258
f 233 258 234
f 234 258 259
f 234 259 235
f 235 259 260
f 235 260 236
f 236 260 261
f 236 261 237
f 237 261 262
f 237 262 238
f 238 262 263
f 238 263 239
f 239 263 264
f 239 264 240
f 240 264 265
f 240 265 241
f 241 265 242
f 241 242 218
f 242 266 243
f 243 266 244
f 244 266 245
f 245 266 246
f 246 266 247
f 247 266 248
f 248 266 249
f 249 266 250
f 250 266 251
f 251 266 252
f 252 266 253
f 253 266 254
f 254 266 255
f 255 266 256
f 256 266 257
f 257 266 258
f 258 266 259
f 259 266 260
f 260 266 261
f 261 266 262
f 262 266 263
f 263 266 264
f 264 266 265
f 265 266 242
