solid cylinder_hex
  facet normal -0.6228857781289554 0 -0.78231279383932195
    outer loop
      vertex 0 -0.0027867372751916308 -0.0039810532502737583
      vertex 0.020000000000000004 0.013933686375958154 -0.019905266251368792
      vertex 0.020000000000000004 -0.013933686375958154 -0.019905266251368792
    endloop
  endfacet
  facet normal -0.62288577812895551 0 -0.78231279383932217
    outer loop
      vertex 0 -0.0027867372751916308 -0.0039810532502737583
      vertex 0 0.0027867372751916308 -0.0039810532502737583
      vertex 0.020000000000000004 0.013933686375958154 -0.019905266251368792
    endloop
  endfacet
  facet normal -0.69144458445962498 0.51083480041078677 -0.51083480041078677
    outer loop
      vertex 0 0.0027867372751916308 -0.0039810532502737583
      vertex 0.020000000000000004 0.019905266251368792 -0.013933686375958154
      vertex 0.020000000000000004 0.013933686375958154 -0.019905266251368792
    endloop
  endfacet
  facet normal -0.69144458445962498 0.51083480041078677 -0.51083480041078677
    outer loop
      vertex 0 0.0027867372751916308 -0.0039810532502737583
      vertex 0 0.0039810532502737583 -0.0027867372751916308
      vertex 0.020000000000000004 0.019905266251368792 -0.013933686375958154
    endloop
  endfacet
  facet normal -0.6228857781289554 0.78231279383932195 0
    outer loop
      vertex 0 0.0039810532502737583 -0.0027867372751916308
      vertex 0.020000000000000004 0.019905266251368792 0.013933686375958154
      vertex 0.020000000000000004 0.019905266251368792 -0.013933686375958154
    endloop
  endfacet
  facet normal -0.62288577812895551 0.78231279383932217 0
    outer loop
      vertex 0 0.0039810532502737583 -0.0027867372751916308
      vertex 0 0.0039810532502737583 0.0027867372751916308
      vertex 0.020000000000000004 0.019905266251368792 0.013933686375958154
    endloop
  endfacet
  facet normal -0.69144458445962498 0.51083480041078677 0.51083480041078677
    outer loop
      vertex 0 0.0039810532502737583 0.0027867372751916308
      vertex 0.020000000000000004 0.013933686375958154 0.019905266251368792
      vertex 0.020000000000000004 0.019905266251368792 0.013933686375958154
    endloop
  endfacet
  facet normal -0.69144458445962498 0.51083480041078677 0.51083480041078677
    outer loop
      vertex 0 0.0039810532502737583 0.0027867372751916308
      vertex 0 0.0027867372751916308 0.0039810532502737583
      vertex 0.020000000000000004 0.013933686375958154 0.019905266251368792
    endloop
  endfacet
  facet normal -0.6228857781289554 0 0.78231279383932195
    outer loop
      vertex 0 0.0027867372751916308 0.0039810532502737583
      vertex 0.020000000000000004 -0.013933686375958154 0.019905266251368792
      vertex 0.020000000000000004 0.013933686375958154 0.019905266251368792
    endloop
  endfacet
  facet normal -0.62288577812895551 0 0.78231279383932217
    outer loop
      vertex 0 0.0027867372751916308 0.0039810532502737583
      vertex 0 -0.0027867372751916308 0.0039810532502737583
      vertex 0.020000000000000004 -0.013933686375958154 0.019905266251368792
    endloop
  endfacet
  facet normal -0.69144458445962498 -0.51083480041078677 0.51083480041078677
    outer loop
      vertex 0 -0.0027867372751916308 0.0039810532502737583
      vertex 0.020000000000000004 -0.019905266251368792 0.013933686375958154
      vertex 0.020000000000000004 -0.013933686375958154 0.019905266251368792
    endloop
  endfacet
  facet normal -0.69144458445962498 -0.51083480041078677 0.51083480041078677
    outer loop
      vertex 0 -0.0027867372751916308 0.0039810532502737583
      vertex 0 -0.0039810532502737583 0.0027867372751916308
      vertex 0.020000000000000004 -0.019905266251368792 0.013933686375958154
    endloop
  endfacet
  facet normal -0.6228857781289554 -0.78231279383932195 0
    outer loop
      vertex 0 -0.0039810532502737583 0.0027867372751916308
      vertex 0.020000000000000004 -0.019905266251368792 -0.013933686375958154
      vertex 0.020000000000000004 -0.019905266251368792 0.013933686375958154
    endloop
  endfacet
  facet normal -0.62288577812895551 -0.78231279383932217 -0
    outer loop
      vertex 0 -0.0039810532502737583 0.0027867372751916308
      vertex 0 -0.0039810532502737583 -0.0027867372751916308
      vertex 0.020000000000000004 -0.019905266251368792 -0.013933686375958154
    endloop
  endfacet
  facet normal -0.69144458445962498 -0.51083480041078677 -0.51083480041078677
    outer loop
      vertex 0 -0.0039810532502737583 -0.0027867372751916308
      vertex 0.020000000000000004 -0.013933686375958154 -0.019905266251368792
      vertex 0.020000000000000004 -0.019905266251368792 -0.013933686375958154
    endloop
  endfacet
  facet normal -0.69144458445962498 -0.51083480041078677 -0.51083480041078677
    outer loop
      vertex 0 -0.0039810532502737583 -0.0027867372751916308
      vertex 0 -0.0027867372751916308 -0.0039810532502737583
      vertex 0.020000000000000004 -0.013933686375958154 -0.019905266251368792
    endloop
  endfacet
  facet normal 0 0 -1
    outer loop
      vertex 0.020000000000000004 -0.013933686375958154 -0.019905266251368792
      vertex 0.080000000000000016 0.013933686375958154 -0.019905266251368792
      vertex 0.080000000000000016 -0.013933686375958154 -0.019905266251368792
    endloop
  endfacet
  facet normal 0 0 -1
    outer loop
      vertex 0.020000000000000004 -0.013933686375958154 -0.019905266251368792
      vertex 0.020000000000000004 0.013933686375958154 -0.019905266251368792
      vertex 0.080000000000000016 0.013933686375958154 -0.019905266251368792
    endloop
  endfacet
  facet normal 0 0.70710678118654757 -0.70710678118654757
    outer loop
      vertex 0.020000000000000004 0.013933686375958154 -0.019905266251368792
      vertex 0.080000000000000016 0.019905266251368792 -0.013933686375958154
      vertex 0.080000000000000016 0.013933686375958154 -0.019905266251368792
    endloop
  endfacet
  facet normal 0 0.70710678118654757 -0.70710678118654757
    outer loop
      vertex 0.020000000000000004 0.013933686375958154 -0.019905266251368792
      vertex 0.020000000000000004 0.019905266251368792 -0.013933686375958154
      vertex 0.080000000000000016 0.019905266251368792 -0.013933686375958154
    endloop
  endfacet
  facet normal 0 1 0
    outer loop
      vertex 0.020000000000000004 0.019905266251368792 -0.013933686375958154
      vertex 0.080000000000000016 0.019905266251368792 0.013933686375958154
      vertex 0.080000000000000016 0.019905266251368792 -0.013933686375958154
    endloop
  endfacet
  facet normal 0 1 0
    outer loop
      vertex 0.020000000000000004 0.019905266251368792 -0.013933686375958154
      vertex 0.020000000000000004 0.019905266251368792 0.013933686375958154
      vertex 0.080000000000000016 0.019905266251368792 0.013933686375958154
    endloop
  endfacet
  facet normal -0 0.70710678118654757 0.70710678118654757
    outer loop
      vertex 0.020000000000000004 0.019905266251368792 0.013933686375958154
      vertex 0.080000000000000016 0.013933686375958154 0.019905266251368792
      vertex 0.080000000000000016 0.019905266251368792 0.013933686375958154
    endloop
  endfacet
  facet normal 0 0.70710678118654757 0.70710678118654757
    outer loop
      vertex 0.020000000000000004 0.019905266251368792 0.013933686375958154
      vertex 0.020000000000000004 0.013933686375958154 0.019905266251368792
      vertex 0.080000000000000016 0.013933686375958154 0.019905266251368792
    endloop
  endfacet
  facet normal -0 0 1
    outer loop
      vertex 0.020000000000000004 0.013933686375958154 0.019905266251368792
      vertex 0.080000000000000016 -0.013933686375958154 0.019905266251368792
      vertex 0.080000000000000016 0.013933686375958154 0.019905266251368792
    endloop
  endfacet
  facet normal 0 0 1
    outer loop
      vertex 0.020000000000000004 0.013933686375958154 0.019905266251368792
      vertex 0.020000000000000004 -0.013933686375958154 0.019905266251368792
      vertex 0.080000000000000016 -0.013933686375958154 0.019905266251368792
    endloop
  endfacet
  facet normal 0 -0.70710678118654757 0.70710678118654757
    outer loop
      vertex 0.020000000000000004 -0.013933686375958154 0.019905266251368792
      vertex 0.080000000000000016 -0.019905266251368792 0.013933686375958154
      vertex 0.080000000000000016 -0.013933686375958154 0.019905266251368792
    endloop
  endfacet
  facet normal 0 -0.70710678118654757 0.70710678118654757
    outer loop
      vertex 0.020000000000000004 -0.013933686375958154 0.019905266251368792
      vertex 0.020000000000000004 -0.019905266251368792 0.013933686375958154
      vertex 0.080000000000000016 -0.019905266251368792 0.013933686375958154
    endloop
  endfacet
  facet normal 0 -1 0
    outer loop
      vertex 0.020000000000000004 -0.019905266251368792 0.013933686375958154
      vertex 0.080000000000000016 -0.019905266251368792 -0.013933686375958154
      vertex 0.080000000000000016 -0.019905266251368792 0.013933686375958154
    endloop
  endfacet
  facet normal 0 -1 0
    outer loop
      vertex 0.020000000000000004 -0.019905266251368792 0.013933686375958154
      vertex 0.020000000000000004 -0.019905266251368792 -0.013933686375958154
      vertex 0.080000000000000016 -0.019905266251368792 -0.013933686375958154
    endloop
  endfacet
  facet normal 0 -0.70710678118654757 -0.70710678118654757
    outer loop
      vertex 0.020000000000000004 -0.019905266251368792 -0.013933686375958154
      vertex 0.080000000000000016 -0.013933686375958154 -0.019905266251368792
      vertex 0.080000000000000016 -0.019905266251368792 -0.013933686375958154
    endloop
  endfacet
  facet normal 0 -0.70710678118654757 -0.70710678118654757
    outer loop
      vertex 0.020000000000000004 -0.019905266251368792 -0.013933686375958154
      vertex 0.020000000000000004 -0.013933686375958154 -0.019905266251368792
      vertex 0.080000000000000016 -0.013933686375958154 -0.019905266251368792
    endloop
  endfacet
  facet normal 0.48016330551674918 0 -0.87717911513853841
    outer loop
      vertex 0.080000000000000016 -0.013933686375958154 -0.019905266251368792
      vertex 0.10000000000000001 0.0062701588691811685 -0.0089573698131159545
      vertex 0.10000000000000001 -0.0062701588691811685 -0.0089573698131159545
    endloop
  endfacet
  facet normal 0.48016330551674918 0 -0.87717911513853819
    outer loop
      vertex 0.080000000000000016 -0.013933686375958154 -0.019905266251368792
      vertex 0.080000000000000016 0.013933686375958154 -0.019905266251368792
      vertex 0.10000000000000001 0.0062701588691811685 -0.0089573698131159545
    endloop
  endfacet
  facet normal 0.5496855687664457 0.59069695085124185 -0.59069695085124208
    outer loop
      vertex 0.080000000000000016 0.013933686375958154 -0.019905266251368792
      vertex 0.10000000000000001 0.0089573698131159545 -0.0062701588691811685
      vertex 0.10000000000000001 0.0062701588691811685 -0.0089573698131159545
    endloop
  endfacet
  facet normal 0.5496855687664457 0.59069695085124196 -0.59069695085124196
    outer loop
      vertex 0.080000000000000016 0.013933686375958154 -0.019905266251368792
      vertex 0.080000000000000016 0.019905266251368792 -0.013933686375958154
      vertex 0.10000000000000001 0.0089573698131159545 -0.0062701588691811685
    endloop
  endfacet
  facet normal 0.48016330551674918 0.87717911513853841 0
    outer loop
      vertex 0.080000000000000016 0.019905266251368792 -0.013933686375958154
      vertex 0.10000000000000001 0.0089573698131159545 0.0062701588691811685
      vertex 0.10000000000000001 0.0089573698131159545 -0.0062701588691811685
    endloop
  endfacet
  facet normal 0.48016330551674918 0.87717911513853819 -0
    outer loop
      vertex 0.080000000000000016 0.019905266251368792 -0.013933686375958154
      vertex 0.080000000000000016 0.019905266251368792 0.013933686375958154
      vertex 0.10000000000000001 0.0089573698131159545 0.0062701588691811685
    endloop
  endfacet
  facet normal 0.5496855687664457 0.59069695085124208 0.59069695085124185
    outer loop
      vertex 0.080000000000000016 0.019905266251368792 0.013933686375958154
      vertex 0.10000000000000001 0.0062701588691811685 0.0089573698131159545
      vertex 0.10000000000000001 0.0089573698131159545 0.0062701588691811685
    endloop
  endfacet
  facet normal 0.5496855687664457 0.59069695085124196 0.59069695085124196
    outer loop
      vertex 0.080000000000000016 0.019905266251368792 0.013933686375958154
      vertex 0.080000000000000016 0.013933686375958154 0.019905266251368792
      vertex 0.10000000000000001 0.0062701588691811685 0.0089573698131159545
    endloop
  endfacet
  facet normal 0.48016330551674918 0 0.87717911513853841
    outer loop
      vertex 0.080000000000000016 0.013933686375958154 0.019905266251368792
      vertex 0.10000000000000001 -0.0062701588691811685 0.0089573698131159545
      vertex 0.10000000000000001 0.0062701588691811685 0.0089573698131159545
    endloop
  endfacet
  facet normal 0.48016330551674918 0 0.87717911513853819
    outer loop
      vertex 0.080000000000000016 0.013933686375958154 0.019905266251368792
      vertex 0.080000000000000016 -0.013933686375958154 0.019905266251368792
      vertex 0.10000000000000001 -0.0062701588691811685 0.0089573698131159545
    endloop
  endfacet
  facet normal 0.5496855687664457 -0.59069695085124185 0.59069695085124208
    outer loop
      vertex 0.080000000000000016 -0.013933686375958154 0.019905266251368792
      vertex 0.10000000000000001 -0.0089573698131159545 0.0062701588691811685
      vertex 0.10000000000000001 -0.0062701588691811685 0.0089573698131159545
    endloop
  endfacet
  facet normal 0.5496855687664457 -0.59069695085124196 0.59069695085124196
    outer loop
      vertex 0.080000000000000016 -0.013933686375958154 0.019905266251368792
      vertex 0.080000000000000016 -0.019905266251368792 0.013933686375958154
      vertex 0.10000000000000001 -0.0089573698131159545 0.0062701588691811685
    endloop
  endfacet
  facet normal 0.48016330551674918 -0.87717911513853841 0
    outer loop
      vertex 0.080000000000000016 -0.019905266251368792 0.013933686375958154
      vertex 0.10000000000000001 -0.0089573698131159545 -0.0062701588691811685
      vertex 0.10000000000000001 -0.0089573698131159545 0.0062701588691811685
    endloop
  endfacet
  facet normal 0.48016330551674918 -0.87717911513853819 0
    outer loop
      vertex 0.080000000000000016 -0.019905266251368792 0.013933686375958154
      vertex 0.080000000000000016 -0.019905266251368792 -0.013933686375958154
      vertex 0.10000000000000001 -0.0089573698131159545 -0.0062701588691811685
    endloop
  endfacet
  facet normal 0.5496855687664457 -0.59069695085124208 -0.59069695085124185
    outer loop
      vertex 0.080000000000000016 -0.019905266251368792 -0.013933686375958154
      vertex 0.10000000000000001 -0.0062701588691811685 -0.0089573698131159545
      vertex 0.10000000000000001 -0.0089573698131159545 -0.0062701588691811685
    endloop
  endfacet
  facet normal 0.5496855687664457 -0.59069695085124196 -0.59069695085124196
    outer loop
      vertex 0.080000000000000016 -0.019905266251368792 -0.013933686375958154
      vertex 0.080000000000000016 -0.013933686375958154 -0.019905266251368792
      vertex 0.10000000000000001 -0.0062701588691811685 -0.0089573698131159545
    endloop
  endfacet
  facet normal -1 0 -0
    outer loop
      vertex 0 0 0
      vertex 0 0.0027867372751916308 -0.0039810532502737583
      vertex 0 -0.0027867372751916308 -0.0039810532502737583
    endloop
  endfacet
  facet normal 1 0 0
    outer loop
      vertex 0.10000000000000001 0 0
      vertex 0.10000000000000001 -0.0062701588691811685 -0.0089573698131159545
      vertex 0.10000000000000001 0.0062701588691811685 -0.0089573698131159545
    endloop
  endfacet
  facet normal -1 0 0
    outer loop
      vertex 0 0 0
      vertex 0 0.0039810532502737583 -0.0027867372751916308
      vertex 0 0.0027867372751916308 -0.0039810532502737583
    endloop
  endfacet
  facet normal 1 0 0
    outer loop
      vertex 0.10000000000000001 0 0
      vertex 0.10000000000000001 0.0062701588691811685 -0.0089573698131159545
      vertex 0.10000000000000001 0.0089573698131159545 -0.0062701588691811685
    endloop
  endfacet
  facet normal -1 0 0
    outer loop
      vertex 0 0 0
      vertex 0 0.0039810532502737583 0.0027867372751916308
      vertex 0 0.0039810532502737583 -0.0027867372751916308
    endloop
  endfacet
  facet normal 1 -0 0
    outer loop
      vertex 0.10000000000000001 0 0
      vertex 0.10000000000000001 0.0089573698131159545 -0.0062701588691811685
      vertex 0.10000000000000001 0.0089573698131159545 0.0062701588691811685
    endloop
  endfacet
  facet normal -1 0 0
    outer loop
      vertex 0 0 0
      vertex 0 0.0027867372751916308 0.0039810532502737583
      vertex 0 0.0039810532502737583 0.0027867372751916308
    endloop
  endfacet
  facet normal 1 0 0
    outer loop
      vertex 0.10000000000000001 0 0
      vertex 0.10000000000000001 0.0089573698131159545 0.0062701588691811685
      vertex 0.10000000000000001 0.0062701588691811685 0.0089573698131159545
    endloop
  endfacet
  facet normal -1 0 0
    outer loop
      vertex 0 0 0
      vertex 0 -0.0027867372751916308 0.0039810532502737583
      vertex 0 0.0027867372751916308 0.0039810532502737583
    endloop
  endfacet
  facet normal 1 0 -0
    outer loop
      vertex 0.10000000000000001 0 0
      vertex 0.10000000000000001 0.0062701588691811685 0.0089573698131159545
      vertex 0.10000000000000001 -0.0062701588691811685 0.0089573698131159545
    endloop
  endfacet
  facet normal -1 0 0
    outer loop
      vertex 0 0 0
      vertex 0 -0.0039810532502737583 0.0027867372751916308
      vertex 0 -0.0027867372751916308 0.0039810532502737583
    endloop
  endfacet
  facet normal 1 0 0
    outer loop
      vertex 0.10000000000000001 0 0
      vertex 0.10000000000000001 -0.0062701588691811685 0.0089573698131159545
      vertex 0.10000000000000001 -0.0089573698131159545 0.0062701588691811685
    endloop
  endfacet
  facet normal -1 -0 0
    outer loop
      vertex 0 0 0
      vertex 0 -0.0039810532502737583 -0.0027867372751916308
      vertex 0 -0.0039810532502737583 0.0027867372751916308
    endloop
  endfacet
  facet normal 1 0 0
    outer loop
      vertex 0.10000000000000001 0 0
      vertex 0.10000000000000001 -0.0089573698131159545 0.0062701588691811685
      vertex 0.10000000000000001 -0.0089573698131159545 -0.0062701588691811685
    endloop
  endfacet
  facet normal -1 0 0
    outer loop
      vertex 0 0 0
      vertex 0 -0.0027867372751916308 -0.0039810532502737583
      vertex 0 -0.0039810532502737583 -0.0027867372751916308
    endloop
  endfacet
  facet normal 1 0 0
    outer loop
      vertex 0.10000000000000001 0 0
      vertex 0.10000000000000001 -0.0089573698131159545 -0.0062701588691811685
      vertex 0.10000000000000001 -0.0062701588691811685 -0.0089573698131159545
    endloop
  endfacet
endsolid cylinder_hex
