$MeshFormat
2.2 0 8
$EndMeshFormat
$PhysicalNames
4
2 2 "IN"
2 3 "OUT"
2 4 "CYLINDER_HEX"
3 1 "GAS"
$EndPhysicalNames
$Nodes
127
1 0 -0.002786737275191631 -0.003981053250273758
2 0 0.002786737275191631 -0.003981053250273758
3 0 0.003981053250273758 -0.002786737275191631
4 0 0.003981053250273758 0.002786737275191631
5 0 0.002786737275191631 0.003981053250273758
6 0 -0.002786737275191631 0.003981053250273758
7 0 -0.003981053250273758 0.002786737275191631
8 0 -0.003981053250273758 -0.002786737275191631
9 0.02 -0.01393368637595815 -0.01990526625136879
10 0.02 0.01393368637595815 -0.01990526625136879
11 0.02 0.01990526625136879 -0.01393368637595815
12 0.02 0.01990526625136879 0.01393368637595815
13 0.02 0.01393368637595815 0.01990526625136879
14 0.02 -0.01393368637595815 0.01990526625136879
15 0.02 -0.01990526625136879 0.01393368637595815
16 0.02 -0.01990526625136879 -0.01393368637595815
17 0.08000000000000002 -0.01393368637595815 -0.01990526625136879
18 0.08000000000000002 0.01393368637595815 -0.01990526625136879
19 0.08000000000000002 0.01990526625136879 -0.01393368637595815
20 0.08000000000000002 0.01990526625136879 0.01393368637595815
21 0.08000000000000002 0.01393368637595815 0.01990526625136879
22 0.08000000000000002 -0.01393368637595815 0.01990526625136879
23 0.08000000000000002 -0.01990526625136879 0.01393368637595815
24 0.08000000000000002 -0.01990526625136879 -0.01393368637595815
25 0.1 -0.006270158869181169 -0.008957369813115955
26 0.1 0.006270158869181169 -0.008957369813115955
27 0.1 0.008957369813115955 -0.006270158869181169
28 0.1 0.008957369813115955 0.006270158869181169
29 0.1 0.006270158869181169 0.008957369813115955
30 0.1 -0.006270158869181169 0.008957369813115955
31 0.1 -0.008957369813115955 0.006270158869181169
32 0.1 -0.008957369813115955 -0.006270158869181169
33 0 0 0
34 0.1 0 0
35 -0.05 -0.1 -0.1
36 0.2 -0.1 -0.1
37 0.2 0.1 -0.1
38 -0.05 0.1 -0.1
39 -0.05 -0.1 0.1
40 0.2 -0.1 0.1
41 0.2 0.1 0.1
42 -0.05 0.1 0.1
43 0.009999999999972843 0.005573474550360558 -0.01194315975079965
44 0.009999999999972843 0.01194315975079965 0.005573474550360558
45 0.009999999999972843 -0.005573474550360558 0.01194315975079965
46 0.009999999999972843 -0.01194315975079965 -0.005573474550360558
47 0.03999999999995517 -0.004644562125340208 -0.01990526625136879
48 0.05999999999995471 0.004644562125298343 -0.01990526625136879
49 0.04999999999991937 -0.01393368637595815 -0.01990526625136879
50 0.04999999999991937 0.01393368637595815 -0.01990526625136879
51 0.03999999999995249 0.0159242130010903 -0.01791473962623664
52 0.05999999999995033 0.01791473962622697 -0.01592421300109998
53 0.04999999999991937 0.01990526625136879 -0.01393368637595815
54 0.03999999999995517 0.01990526625136879 -0.004644562125340208
55 0.05999999999995471 0.01990526625136879 0.004644562125298343
56 0.04999999999991937 0.01990526625136879 0.01393368637595815
57 0.03999999999995249 0.01791473962623664 0.0159242130010903
58 0.05999999999995033 0.01592421300109998 0.01791473962622697
59 0.04999999999991937 0.01393368637595815 0.01990526625136879
60 0.03999999999995517 0.004644562125340208 0.01990526625136879
61 0.05999999999995471 -0.004644562125298343 0.01990526625136879
62 0.04999999999991937 -0.01393368637595815 0.01990526625136879
63 0.03999999999995249 -0.0159242130010903 0.01791473962623664
64 0.05999999999995033 -0.01791473962622697 0.01592421300109998
65 0.04999999999991937 -0.01990526625136879 0.01393368637595815
66 0.03999999999995517 -0.01990526625136879 0.004644562125340208
67 0.05999999999995471 -0.01990526625136879 -0.004644562125298343
68 0.04999999999991937 -0.01990526625136879 -0.01393368637595815
69 0.03999999999995249 -0.01791473962623664 -0.0159242130010903
70 0.05999999999995033 -0.01592421300109998 -0.01791473962622697
71 0.08999999999997672 -0.003831763753412022 -0.01443131803225512
72 0.08999999999997672 0.01443131803225512 -0.003831763753412022
73 0.08999999999997672 0.003831763753412022 0.01443131803225512
74 0.08999999999997672 -0.01443131803225512 0.003831763753412022
75 0.07499999999966961 -0.1 -0.1
76 0.2 -2.655375919147218e-13 -0.1
77 0.07500000000037987 0.1 -0.1
78 -0.05 2.655375919147218e-13 -0.1
79 0.07499999999966961 -0.1 0.1
80 0.2 -2.655375919147218e-13 0.1
81 0.07500000000037987 0.1 0.1
82 -0.05 2.655375919147218e-13 0.1
83 -0.05 -0.1 -2.655375919147218e-13
84 0.2 -0.1 -2.655375919147218e-13
85 0.2 0.1 -2.655375919147218e-13
86 -0.05 0.1 -2.655375919147218e-13
87 0.02035920329678093 0.03455099587917509 -0.09999999999999999
88 0.1006250000000502 0.00390624999995498 -0.09999999999999999
89 0.01919684065930014 -0.03230855082412088 -0.09999999999999999
90 0.02035920329678093 0.03455099587917509 0.09999999999999999
91 0.1006250000000502 0.00390624999995498 0.09999999999999999
92 0.01919684065930014 -0.03230855082412088 0.09999999999999999
93 0.1296407967031742 -0.09999999999999999 0.03455099587902701
94 0.04937499999986433 -0.09999999999999999 0.003906250000074579
95 0.1308031593405416 -0.09999999999999999 -0.03230855082423279
96 0.2 0.04772230320686995 0.04772230320686995
97 0.2 -0.02500000000013276 0.02499999999999999
98 0.2 0.02982871720109382 -0.02850461613221739
99 0.2 -0.04374999999990872 -0.04374999999990874
100 0.02035920329683964 0.09999999999999999 0.03455099587902441
101 0.1006250000001481 0.09999999999999999 0.003906250000077355
102 0.01919684065947352 0.09999999999999999 -0.03230855082423276
103 -0.05 -0.04772230320686995 0.04772230320686995
104 -0.05 0.02500000000013276 0.02499999999999999
105 -0.05 -0.02982871720109382 -0.02850461613221739
106 -0.05 0.04374999999990872 -0.04374999999990874
107 0.1352184057520579 0.05375451544822406 0.0448753886330016
108 0.05140252025025439 -0.06979868120181563 -0.05570672952839859
109 0.03781855020165785 -0.06066639346822976 0.05268211052861482
110 0.06376043957075887 0.0557564214838356 0.05275988393771686
111 0.04473944073682024 0.05579843939037532 -0.05687517227850163
112 0.156895173997437 0.003847122803619321 -0.004138912887037515
113 0.1340061446408716 0.05474874910008874 -0.04635582997870461
114 0.1204156426300048 -0.0453335431112613 -0.0453335431112613
115 0.1201743502451339 -0.04507424819048191 0.04507424819048192
116 -0.004774735220899236 -0.04754156901172889 0.01303744519388825
117 0.05120959431140874 0.06983078894684019 -0.002604323677509951
118 0.1235034874764687 -0.06007181557900457 -0.001074182317286989
119 -0.007028363619984644 0.04808976998165907 -0.01284813311708799
120 -0.003129926610301176 -0.006264404881508736 0.05696046354194557
121 -0.01260398887936401 6.986841233587076e-18 -0.06083467576602154
122 0.05120959431140874 0.002604323677509915 0.07145475584168745
123 0.05120959431140874 -0.00260432367750995 -0.07104786901718924
124 0.1174619588412401 0 0.05047866202773017
125 0.1175890124796366 -1.734723475976807e-18 -0.05071076805670677
126 -0.0005693329994040479 0.05245693924465773 0.05245693924465773
127 0.06250087600207635 -0.05107973162157794 5.755113013114647e-05
$EndNodes
$Elements
616
1 2 2 4 1 43 9 1
2 2 2 4 1 9 43 10
3 2 2 4 2 43 1 2
4 2 2 4 2 43 2 10
5 2 2 4 3 2 11 10
6 2 2 4 4 2 3 11
7 2 2 4 5 44 11 3
8 2 2 4 5 11 44 12
9 2 2 4 6 4 44 3
10 2 2 4 6 12 44 4
11 2 2 4 7 4 13 12
12 2 2 4 8 4 5 13
13 2 2 4 9 45 13 5
14 2 2 4 9 13 45 14
15 2 2 4 10 6 45 5
16 2 2 4 10 14 45 6
17 2 2 4 11 6 15 14
18 2 2 4 12 6 7 15
19 2 2 4 13 46 15 7
20 2 2 4 13 16 15 46
21 2 2 4 14 46 7 8
22 2 2 4 14 46 8 16
23 2 2 4 15 8 9 16
24 2 2 4 16 1 9 8
25 2 2 4 17 47 49 9
26 2 2 4 17 18 17 48
27 2 2 4 17 17 49 48
28 2 2 4 17 49 47 48
29 2 2 4 18 10 47 9
30 2 2 4 18 50 47 10
31 2 2 4 18 50 18 48
32 2 2 4 18 47 50 48
33 2 2 4 19 51 50 10
34 2 2 4 19 18 52 19
35 2 2 4 19 18 50 52
36 2 2 4 19 52 50 51
37 2 2 4 20 11 51 10
38 2 2 4 20 53 51 11
39 2 2 4 20 52 53 19
40 2 2 4 20 52 51 53
41 2 2 4 21 54 53 11
42 2 2 4 21 19 55 20
43 2 2 4 21 19 53 55
44 2 2 4 21 55 53 54
45 2 2 4 22 12 54 11
46 2 2 4 22 56 54 12
47 2 2 4 22 55 56 20
48 2 2 4 22 55 54 56
49 2 2 4 23 57 56 12
50 2 2 4 23 20 58 21
51 2 2 4 23 20 56 58
52 2 2 4 23 58 56 57
53 2 2 4 24 13 57 12
54 2 2 4 24 59 57 13
55 2 2 4 24 58 59 21
56 2 2 4 24 58 57 59
57 2 2 4 25 60 59 13
58 2 2 4 25 21 61 22
59 2 2 4 25 21 59 61
60 2 2 4 25 59 60 61
61 2 2 4 26 14 60 13
62 2 2 4 26 62 60 14
63 2 2 4 26 61 62 22
64 2 2 4 26 60 62 61
65 2 2 4 27 63 62 14
66 2 2 4 27 22 64 23
67 2 2 4 27 64 22 62
68 2 2 4 27 63 64 62
69 2 2 4 28 15 63 14
70 2 2 4 28 65 63 15
71 2 2 4 28 64 65 23
72 2 2 4 28 64 63 65
73 2 2 4 29 66 65 15
74 2 2 4 29 24 23 67
75 2 2 4 29 23 65 67
76 2 2 4 29 65 66 67
77 2 2 4 30 16 66 15
78 2 2 4 30 68 66 16
79 2 2 4 30 68 24 67
80 2 2 4 30 66 68 67
81 2 2 4 31 69 68 16
82 2 2 4 31 24 70 17
83 2 2 4 31 70 24 68
84 2 2 4 31 69 70 68
85 2 2 4 32 16 9 69
86 2 2 4 32 69 9 49
87 2 2 4 32 49 17 70
88 2 2 4 32 70 69 49
89 2 2 4 33 71 25 17
90 2 2 4 33 25 71 26
91 2 2 4 34 18 71 17
92 2 2 4 34 26 71 18
93 2 2 4 35 18 27 26
94 2 2 4 36 18 19 27
95 2 2 4 37 72 27 19
96 2 2 4 37 27 72 28
97 2 2 4 38 20 72 19
98 2 2 4 38 28 72 20
99 2 2 4 39 20 29 28
100 2 2 4 40 20 21 29
101 2 2 4 41 73 29 21
102 2 2 4 41 30 29 73
103 2 2 4 42 22 73 21
104 2 2 4 42 22 30 73
105 2 2 4 43 22 31 30
106 2 2 4 44 22 23 31
107 2 2 4 45 74 31 23
108 2 2 4 45 31 74 32
109 2 2 4 46 24 74 23
110 2 2 4 46 32 74 24
111 2 2 4 47 24 25 32
112 2 2 4 48 17 25 24
113 2 2 4 49 1 33 2
114 2 2 4 50 25 26 34
115 2 2 4 51 2 33 3
116 2 2 4 52 26 27 34
117 2 2 4 53 3 33 4
118 2 2 4 54 27 28 34
119 2 2 4 55 4 33 5
120 2 2 4 56 28 29 34
121 2 2 4 57 5 33 6
122 2 2 4 58 29 30 34
123 2 2 4 59 6 33 7
124 2 2 4 60 30 31 34
125 2 2 4 61 7 33 8
126 2 2 4 62 31 32 34
127 2 2 4 63 1 8 33
128 2 2 4 64 25 34 32
129 2 2 3 65 35 75 89
130 2 2 3 65 78 35 89
131 2 2 3 65 75 36 88
132 2 2 3 65 36 76 88
133 2 2 3 65 76 37 88
134 2 2 3 65 37 77 88
135 2 2 3 65 77 38 87
136 2 2 3 65 38 78 87
137 2 2 3 65 75 88 89
138 2 2 3 65 77 87 88
139 2 2 3 65 87 78 89
140 2 2 3 65 88 87 89
141 2 2 3 66 39 79 92
142 2 2 3 66 82 39 92
143 2 2 3 66 79 40 91
144 2 2 3 66 40 80 91
145 2 2 3 66 80 41 91
146 2 2 3 66 41 81 91
147 2 2 3 66 81 42 90
148 2 2 3 66 42 82 90
149 2 2 3 66 79 91 92
150 2 2 3 66 81 90 91
151 2 2 3 66 90 82 92
152 2 2 3 66 91 90 92
153 2 2 3 67 35 75 94
154 2 2 3 67 83 35 94
155 2 2 3 67 75 36 95
156 2 2 3 67 36 84 95
157 2 2 3 67 79 39 94
158 2 2 3 67 39 83 94
159 2 2 3 67 40 79 93
160 2 2 3 67 84 40 93
161 2 2 3 67 94 75 95
162 2 2 3 67 93 79 94
163 2 2 3 67 84 93 95
164 2 2 3 67 93 94 95
165 2 2 3 68 36 76 99
166 2 2 3 68 84 36 99
167 2 2 3 68 76 37 98
168 2 2 3 68 37 85 98
169 2 2 3 68 80 40 97
170 2 2 3 68 40 84 97
171 2 2 3 68 41 80 96
172 2 2 3 68 85 41 96
173 2 2 3 68 76 98 99
174 2 2 3 68 96 80 97
175 2 2 3 68 97 84 99
176 2 2 3 68 85 96 98
177 2 2 3 68 96 97 98
178 2 2 3 68 98 97 99
179 2 2 3 69 37 77 101
180 2 2 3 69 85 37 101
181 2 2 3 69 77 38 102
182 2 2 3 69 38 86 102
183 2 2 3 69 81 41 101
184 2 2 3 69 41 85 101
185 2 2 3 69 42 81 100
186 2 2 3 69 86 42 100
187 2 2 3 69 101 77 102
188 2 2 3 69 100 81 101
189 2 2 3 69 86 100 102
190 2 2 3 69 100 101 102
191 2 2 2 70 78 35 105
192 2 2 2 70 35 83 105
193 2 2 2 70 38 78 106
194 2 2 2 70 86 38 106
195 2 2 2 70 39 82 103
196 2 2 2 70 83 39 103
197 2 2 2 70 82 42 104
198 2 2 2 70 42 86 104
199 2 2 2 70 78 105 106
200 2 2 2 70 103 82 104
201 2 2 2 70 83 103 105
202 2 2 2 70 104 86 106
203 2 2 2 70 103 104 105
204 2 2 2 70 105 104 106
205 4 2 1 1 16 66 15 127
206 4 2 1 1 58 56 57 110
207 4 2 1 1 104 8 1 33
208 4 2 1 1 29 30 34 112
209 4 2 1 1 8 16 46 105
210 4 2 1 1 10 11 111 119
211 4 2 1 1 104 7 8 33
212 4 2 1 1 1 2 104 33
213 4 2 1 1 52 51 53 111
214 4 2 1 1 65 15 66 127
215 4 2 1 1 29 34 28 112
216 4 2 1 1 31 34 30 112
217 4 2 1 1 27 28 34 112
218 4 2 1 1 31 32 34 112
219 4 2 1 1 27 107 28 112
220 4 2 1 1 32 112 31 118
221 4 2 1 1 6 7 104 33
222 4 2 1 1 104 2 3 33
223 4 2 1 1 19 18 52 111
224 4 2 1 1 27 34 26 112
225 4 2 1 1 32 25 34 112
226 4 2 1 1 26 34 25 112
227 4 2 1 1 15 116 16 127
228 4 2 1 1 20 58 21 110
229 4 2 1 1 11 51 10 111
230 4 2 1 1 58 57 59 110
231 4 2 1 1 104 5 6 33
232 4 2 1 1 104 3 4 33
233 4 2 1 1 4 5 104 33
234 4 2 1 1 52 50 51 111
235 4 2 1 1 70 68 69 108
236 4 2 1 1 10 119 111 121
237 4 2 1 1 32 31 74 118
238 4 2 1 1 2 3 11 119
239 4 2 1 1 69 16 9 108
240 4 2 1 1 6 45 5 120
241 4 2 1 1 2 43 1 121
242 4 2 1 1 15 6 7 116
243 4 2 1 1 15 109 14 116
244 4 2 1 1 5 45 13 120
245 4 2 1 1 1 43 9 121
246 4 2 1 1 11 10 2 119
247 4 2 1 1 64 63 65 109
248 4 2 1 1 14 6 15 116
249 4 2 1 1 61 62 22 122
250 4 2 1 1 24 70 17 108
251 4 2 1 1 18 48 50 123
252 4 2 1 1 56 20 55 117
253 4 2 1 1 68 66 16 127
254 4 2 1 1 14 60 13 122
255 4 2 1 1 12 13 57 126
256 4 2 1 1 10 47 9 123
257 4 2 1 1 9 8 1 105
258 4 2 1 1 63 15 65 109
259 4 2 1 1 24 32 74 118
260 4 2 1 1 70 69 49 108
261 4 2 1 1 23 22 64 109
262 4 2 1 1 12 54 11 117
263 4 2 1 1 8 16 105 9
264 4 2 1 1 59 13 60 122
265 4 2 1 1 49 9 47 123
266 4 2 1 1 16 105 108 116
267 4 2 1 1 53 11 54 117
268 4 2 1 1 72 20 101 19
269 4 2 1 1 22 21 61 122
270 4 2 1 1 63 14 15 109
271 4 2 1 1 13 4 5 104
272 4 2 1 1 18 17 48 123
273 4 2 1 1 20 19 55 117
274 4 2 1 1 11 44 12 119
275 4 2 1 1 9 43 10 121
276 4 2 1 1 45 14 13 120
277 4 2 1 1 14 116 109 120
278 4 2 1 1 12 117 11 119
279 4 2 1 1 62 60 14 122
280 4 2 1 1 64 62 63 109
281 4 2 1 1 50 47 10 123
282 4 2 1 1 31 112 30 115
283 4 2 1 1 46 16 15 116
284 4 2 1 1 2 104 3 119
285 4 2 1 1 56 54 12 117
286 4 2 1 1 112 114 99 118
287 4 2 1 1 103 109 83 116
288 4 2 1 1 84 112 99 118
289 4 2 1 1 29 28 20 107
290 4 2 1 1 18 19 27 113
291 4 2 1 1 7 6 104 116
292 4 2 1 1 61 21 59 122
293 4 2 1 1 48 17 49 123
294 4 2 1 1 3 44 11 119
295 4 2 1 1 83 108 105 116
296 4 2 1 1 4 44 3 119
297 4 2 1 1 20 21 29 107
298 4 2 1 1 55 19 53 117
299 4 2 1 1 46 15 7 116
300 4 2 1 1 35 94 75 108
301 4 2 1 1 7 8 46 116
302 4 2 1 1 46 105 16 116
303 4 2 1 1 14 13 120 122
304 4 2 1 1 10 9 121 123
305 4 2 1 1 112 115 31 118
306 4 2 1 1 31 30 22 115
307 4 2 1 1 32 25 112 114
308 4 2 1 1 95 99 114 118
309 4 2 1 1 96 85 98 112
310 4 2 1 1 97 112 84 118
311 4 2 1 1 25 32 24 114
312 4 2 1 1 19 18 111 113
313 4 2 1 1 95 84 99 118
314 4 2 1 1 92 116 103 120
315 4 2 1 1 105 2 1 121
316 4 2 1 1 97 115 112 118
317 4 2 1 1 1 9 105 121
318 4 2 1 1 32 114 112 118
319 4 2 1 1 61 60 62 122
320 4 2 1 1 31 22 23 115
321 4 2 1 1 79 94 39 109
322 4 2 1 1 47 50 48 123
323 4 2 1 1 107 112 27 113
324 4 2 1 1 102 106 111 119
325 4 2 1 1 99 84 97 112
326 4 2 1 1 60 61 59 122
327 4 2 1 1 20 21 107 110
328 4 2 1 1 100 110 90 126
329 4 2 1 1 24 17 25 114
330 4 2 1 1 47 48 49 123
331 4 2 1 1 54 56 55 117
332 4 2 1 1 29 30 112 124
333 4 2 1 1 104 5 13 120
334 4 2 1 1 21 73 29 124
335 4 2 1 1 17 71 25 125
336 4 2 1 1 65 109 15 127
337 4 2 1 1 54 55 53 117
338 4 2 1 1 7 105 8 116
339 4 2 1 1 83 94 35 108
340 4 2 1 1 8 105 46 116
341 4 2 1 1 4 104 44 119
342 4 2 1 1 12 57 110 126
343 4 2 1 1 6 104 116 120
344 4 2 1 1 117 119 12 126
345 4 2 1 1 96 107 85 112
346 4 2 1 1 21 22 73 124
347 4 2 1 1 17 18 71 125
348 4 2 1 1 97 93 115 118
349 4 2 1 1 101 77 37 113
350 4 2 1 1 23 22 109 115
351 4 2 1 1 17 24 108 114
352 4 2 1 1 104 6 5 120
353 4 2 1 1 85 101 37 113
354 4 2 1 1 100 81 90 110
355 4 2 1 1 97 84 93 118
356 4 2 1 1 98 112 85 113
357 4 2 1 1 19 113 111 117
358 4 2 1 1 68 24 67 127
359 4 2 1 1 103 39 83 109
360 4 2 1 1 107 110 21 122
361 4 2 1 1 109 116 92 120
362 4 2 1 1 80 40 91 115
363 4 2 1 1 1 2 105 104
364 4 2 1 1 105 7 8 104
365 4 2 1 1 76 36 99 114
366 4 2 1 1 105 8 1 104
367 4 2 1 1 88 36 76 114
368 4 2 1 1 79 91 40 115
369 4 2 1 1 76 99 112 125
370 4 2 1 1 20 101 19 117
371 4 2 1 1 95 93 84 118
372 4 2 1 1 76 99 98 112
373 4 2 1 1 75 36 88 114
374 4 2 1 1 100 90 42 126
375 4 2 1 1 22 109 115 122
376 4 2 1 1 105 104 2 119
377 4 2 1 1 4 3 104 119
378 4 2 1 1 21 122 22 124
379 4 2 1 1 17 123 18 125
380 4 2 1 1 77 88 37 113
381 4 2 1 1 16 116 94 127
382 4 2 1 1 18 111 88 123
383 4 2 1 1 92 109 103 116
384 4 2 1 1 35 105 83 108
385 4 2 1 1 83 109 94 116
386 4 2 1 1 91 81 41 107
387 4 2 1 1 101 41 81 107
388 4 2 1 1 39 94 83 109
389 4 2 1 1 16 108 94 116
390 4 2 1 1 23 118 115 127
391 4 2 1 1 87 77 38 111
392 4 2 1 1 38 77 102 111
393 4 2 1 1 22 122 115 124
394 4 2 1 1 85 112 107 113
395 4 2 1 1 94 108 83 116
396 4 2 1 1 24 114 32 118
397 4 2 1 1 26 112 25 125
398 4 2 1 1 88 76 37 113
399 4 2 1 1 80 91 41 107
400 4 2 1 1 101 85 41 107
401 4 2 1 1 26 71 18 125
402 4 2 1 1 30 73 22 124
403 4 2 1 1 17 114 108 123
404 4 2 1 1 97 96 112 124
405 4 2 1 1 107 122 21 124
406 4 2 1 1 93 79 40 115
407 4 2 1 1 87 106 78 121
408 4 2 1 1 86 106 102 119
409 4 2 1 1 76 112 98 125
410 4 2 1 1 100 42 90 81
411 4 2 1 1 76 114 99 125
412 4 2 1 1 120 122 13 126
413 4 2 1 1 95 36 75 114
414 4 2 1 1 89 78 35 121
415 4 2 1 1 66 68 67 127
416 4 2 1 1 104 105 7 116
417 4 2 1 1 40 80 97 115
418 4 2 1 1 105 35 78 121
419 4 2 1 1 17 114 123 125
420 4 2 1 1 80 96 97 124
421 4 2 1 1 30 115 112 124
422 4 2 1 1 82 92 103 120
423 4 2 1 1 24 114 118 127
424 4 2 1 1 89 108 75 123
425 4 2 1 1 94 108 16 127
426 4 2 1 1 12 110 117 126
427 4 2 1 1 103 92 39 109
428 4 2 1 1 25 71 26 125
429 4 2 1 1 29 73 30 124
430 4 2 1 1 40 97 93 115
431 4 2 1 1 80 97 115 124
432 4 2 1 1 99 114 112 125
433 4 2 1 1 23 115 109 127
434 4 2 1 1 88 18 123 125
435 4 2 1 1 23 65 67 127
436 4 2 1 1 101 20 110 117
437 4 2 1 1 65 66 67 127
438 4 2 1 1 80 41 96 107
439 4 2 1 1 96 41 85 107
440 4 2 1 1 89 35 75 108
441 4 2 1 1 78 87 38 106
442 4 2 1 1 79 39 92 109
443 4 2 1 1 102 86 38 106
444 4 2 1 1 103 116 104 120
445 4 2 1 1 24 108 114 127
446 4 2 1 1 99 36 95 114
447 4 2 1 1 107 112 96 124
448 4 2 1 1 102 77 101 111
449 4 2 1 1 103 83 105 116
450 4 2 1 1 101 107 27 113
451 4 2 1 1 93 97 40 84
452 4 2 1 1 91 80 115 124
453 4 2 1 1 88 111 18 113
454 4 2 1 1 23 67 24 127
455 4 2 1 1 21 29 107 124
456 4 2 1 1 86 42 104 126
457 4 2 1 1 42 82 104 126
458 4 2 1 1 76 88 114 125
459 4 2 1 1 82 120 104 126
460 4 2 1 1 80 107 96 124
461 4 2 1 1 82 39 103 92
462 4 2 1 1 94 95 75 108
463 4 2 1 1 86 100 42 126
464 4 2 1 1 90 82 42 126
465 4 2 1 1 104 106 86 119
466 4 2 1 1 90 120 82 126
467 4 2 1 1 84 95 99 36
468 4 2 1 1 90 91 92 122
469 4 2 1 1 96 98 97 112
470 4 2 1 1 100 119 117 126
471 4 2 1 1 19 101 113 117
472 4 2 1 1 101 81 100 110
473 4 2 1 1 89 88 87 123
474 4 2 1 1 106 104 105 119
475 4 2 1 1 86 119 100 126
476 4 2 1 1 104 103 105 116
477 4 2 1 1 105 78 106 121
478 4 2 1 1 102 117 100 119
479 4 2 1 1 82 103 104 120
480 4 2 1 1 104 119 86 126
481 4 2 1 1 102 100 86 119
482 4 2 1 1 90 110 91 122
483 4 2 1 1 13 104 120 126
484 4 2 1 1 18 88 113 125
485 4 2 1 1 100 102 101 117
486 4 2 1 1 91 109 92 122
487 4 2 1 1 89 75 88 123
488 4 2 1 1 112 115 97 124
489 4 2 1 1 112 114 25 125
490 4 2 1 1 76 98 113 125
491 4 2 1 1 101 20 107 110
492 4 2 1 1 75 108 88 123
493 4 2 1 1 88 111 87 123
494 4 2 1 1 37 76 98 113
495 4 2 1 1 101 85 107 113
496 4 2 1 1 85 37 98 113
497 4 2 1 1 95 114 108 118
498 4 2 1 1 93 95 94 118
499 4 2 1 1 99 97 98 112
500 4 2 1 1 30 22 115 124
501 4 2 1 1 102 111 101 117
502 4 2 1 1 108 114 88 123
503 4 2 1 1 90 92 82 120
504 4 2 1 1 78 89 87 121
505 4 2 1 1 91 115 109 122
506 4 2 1 1 17 25 114 125
507 4 2 1 1 77 87 88 111
508 4 2 1 1 112 113 98 125
509 4 2 1 1 81 91 90 110
510 4 2 1 1 108 118 114 127
511 4 2 1 1 92 91 79 109
512 4 2 1 1 75 88 108 114
513 4 2 1 1 79 109 91 115
514 4 2 1 1 95 108 94 118
515 4 2 1 1 91 107 80 124
516 4 2 1 1 94 79 93 109
517 4 2 1 1 76 113 88 125
518 4 2 1 1 101 111 77 113
519 4 2 1 1 75 108 95 114
520 4 2 1 1 90 122 120 126
521 4 2 1 1 79 93 109 115
522 4 2 1 1 91 110 107 122
523 4 2 1 1 111 113 101 117
524 4 2 1 1 100 117 110 126
525 4 2 1 1 77 111 88 113
526 4 2 1 1 110 122 90 126
527 4 2 1 1 115 122 91 124
528 4 2 1 1 87 121 89 123
529 4 2 1 1 90 92 120 122
530 4 2 1 1 81 107 91 110
531 4 2 1 1 100 101 110 117
532 4 2 1 1 94 118 108 127
533 4 2 1 1 101 107 81 110
534 4 2 1 1 91 122 107 124
535 4 2 1 1 88 123 114 125
536 4 2 1 1 108 9 105 16
537 4 2 1 1 108 105 9 121
538 4 2 1 1 12 56 110 57
539 4 2 1 1 12 110 56 117
540 4 2 1 1 19 53 111 52
541 4 2 1 1 19 111 53 117
542 4 2 1 1 12 4 104 44
543 4 2 1 1 104 119 12 44
544 4 2 1 1 12 119 104 126
545 4 2 1 1 10 50 111 51
546 4 2 1 1 10 111 50 123
547 4 2 1 1 14 62 109 63
548 4 2 1 1 14 109 62 122
549 4 2 1 1 17 49 108 70
550 4 2 1 1 17 108 49 123
551 4 2 1 1 21 59 110 58
552 4 2 1 1 21 110 59 122
553 4 2 1 1 62 22 109 64
554 4 2 1 1 62 109 22 122
555 4 2 1 1 50 18 111 52
556 4 2 1 1 50 111 18 123
557 4 2 1 1 56 20 110 58
558 4 2 1 1 56 110 20 117
559 4 2 1 1 19 27 101 72
560 4 2 1 1 19 101 27 113
561 4 2 1 1 59 13 126 57
562 4 2 1 1 126 13 59 122
563 4 2 1 1 126 110 59 57
564 4 2 1 1 59 110 126 122
565 4 2 1 1 49 9 108 69
566 4 2 1 1 108 9 49 123
567 4 2 1 1 53 11 111 51
568 4 2 1 1 111 11 53 117
569 4 2 1 1 12 13 104 4
570 4 2 1 1 104 13 12 126
571 4 2 1 1 112 29 107 28
572 4 2 1 1 112 107 29 124
573 4 2 1 1 23 31 118 74
574 4 2 1 1 23 118 31 115
575 4 2 1 1 121 108 123 9
576 4 2 1 1 121 123 108 89
577 4 2 1 1 111 121 123 10
578 4 2 1 1 123 121 111 87
579 4 2 1 1 24 23 118 74
580 4 2 1 1 24 118 23 127
581 4 2 1 1 18 26 113 27
582 4 2 1 1 18 113 26 125
583 4 2 1 1 112 113 26 27
584 4 2 1 1 112 26 113 125
585 4 2 1 1 109 120 122 14
586 4 2 1 1 122 120 109 92
587 4 2 1 1 105 119 121 106
588 4 2 1 1 121 119 105 2
589 4 2 1 1 68 108 16 69
590 4 2 1 1 16 108 68 127
591 4 2 1 1 111 119 117 102
592 4 2 1 1 117 119 111 11
593 4 2 1 1 38 111 106 87
594 4 2 1 1 106 111 38 102
595 4 2 1 1 127 116 109 15
596 4 2 1 1 127 109 116 94
597 4 2 1 1 121 35 108 105
598 4 2 1 1 121 108 35 89
599 4 2 1 1 68 24 108 70
600 4 2 1 1 68 108 24 127
601 4 2 1 1 14 6 120 45
602 4 2 1 1 120 6 14 116
603 4 2 1 1 10 2 121 43
604 4 2 1 1 10 121 2 119
605 4 2 1 1 23 65 109 64
606 4 2 1 1 109 65 23 127
607 4 2 1 1 106 111 121 87
608 4 2 1 1 106 121 111 119
609 4 2 1 1 127 115 94 118
610 4 2 1 1 127 94 115 109
611 4 2 1 1 93 94 115 118
612 4 2 1 1 93 115 94 109
613 4 2 1 1 27 28 101 72
614 4 2 1 1 27 101 28 107
615 4 2 1 1 20 101 28 72
616 4 2 1 1 20 28 101 107
$EndElements
