$MeshFormat
2.2 0 8
$EndMeshFormat
$PhysicalNames
4
2 2 "IN"
2 3 "OUT"
2 4 "CYLINDER_HEX"
3 1 "GAS"
$EndPhysicalNames
$Nodes
366
1 0 -0.002786737275191631 -0.003981053250273758
2 0 0.002786737275191631 -0.003981053250273758
3 0 0.003981053250273758 -0.002786737275191631
4 0 0.003981053250273758 0.002786737275191631
5 0 0.002786737275191631 0.003981053250273758
6 0 -0.002786737275191631 0.003981053250273758
7 0 -0.003981053250273758 0.002786737275191631
8 0 -0.003981053250273758 -0.002786737275191631
9 0.02 -0.01393368637595815 -0.01990526625136879
10 0.02 0.01393368637595815 -0.01990526625136879
11 0.02 0.01990526625136879 -0.01393368637595815
12 0.02 0.01990526625136879 0.01393368637595815
13 0.02 0.01393368637595815 0.01990526625136879
14 0.02 -0.01393368637595815 0.01990526625136879
15 0.02 -0.01990526625136879 0.01393368637595815
16 0.02 -0.01990526625136879 -0.01393368637595815
17 0.08000000000000002 -0.01393368637595815 -0.01990526625136879
18 0.08000000000000002 0.01393368637595815 -0.01990526625136879
19 0.08000000000000002 0.01990526625136879 -0.01393368637595815
20 0.08000000000000002 0.01990526625136879 0.01393368637595815
21 0.08000000000000002 0.01393368637595815 0.01990526625136879
22 0.08000000000000002 -0.01393368637595815 0.01990526625136879
23 0.08000000000000002 -0.01990526625136879 0.01393368637595815
24 0.08000000000000002 -0.01990526625136879 -0.01393368637595815
25 0.1 -0.006270158869181169 -0.008957369813115955
26 0.1 0.006270158869181169 -0.008957369813115955
27 0.1 0.008957369813115955 -0.006270158869181169
28 0.1 0.008957369813115955 0.006270158869181169
29 0.1 0.006270158869181169 0.008957369813115955
30 0.1 -0.006270158869181169 0.008957369813115955
31 0.1 -0.008957369813115955 0.006270158869181169
32 0.1 -0.008957369813115955 -0.006270158869181169
33 0 0 0
34 0.1 0 0
35 -0.05 -0.1 -0.1
36 0.2 -0.1 -0.1
37 0.2 0.1 -0.1
38 -0.05 0.1 -0.1
39 -0.05 -0.1 0.1
40 0.2 -0.1 0.1
41 0.2 0.1 0.1
42 -0.05 0.1 0.1
43 0.006666666666647856 0.002786737275175904 -0.009289124250623792
44 0.01333333333331614 0.008360211825560515 -0.01459719525099009
45 0.02 -2.409357435784187e-14 -0.01990526625136879
46 0.009999999999982079 -0.008360211825564904 -0.011943159750807
47 0.009999999999982079 0.008360211825564904 -0.011943159750807
48 0.009999999999970456 0.01134600176325492 -0.008957369813101253
49 0.009999999999982079 0.011943159750807 -0.008360211825564904
50 0.006666666666647856 0.009289124250623792 0.002786737275175904
51 0.01333333333331614 0.01459719525099009 0.008360211825560515
52 0.02 0.01990526625136879 -2.409357435784187e-14
53 0.009999999999982079 0.011943159750807 0.008360211825564904
54 0.009999999999970456 0.008957369813101253 0.01134600176325492
55 0.009999999999982079 0.008360211825564904 0.011943159750807
56 0.006666666666647856 -0.002786737275175904 0.009289124250623792
57 0.01333333333331614 -0.008360211825560515 0.01459719525099009
58 0.02 2.409357435784187e-14 0.01990526625136879
59 0.009999999999982079 -0.008360211825564904 0.011943159750807
60 0.009999999999970456 -0.01134600176325492 0.008957369813101253
61 0.009999999999982079 -0.011943159750807 0.008360211825564904
62 0.006666666666647856 -0.009289124250623792 -0.002786737275175904
63 0.01333333333331614 -0.01459719525099009 -0.008360211825560515
64 0.02 -0.01990526625136879 2.409357435784187e-14
65 0.009999999999982079 -0.011943159750807 -0.008360211825564904
66 0.009999999999970456 -0.008957369813101253 -0.01134600176325492
67 0.03199999999997712 -0.008360211825585523 -0.01990526625136879
68 0.04399999999994086 -0.002786737275219104 -0.01990526625136879
69 0.05599999999994407 0.002786737275165652 -0.01990526625136879
70 0.0679999999999697 0.00836021182556081 -0.01990526625136879
71 0.08000000000000002 -2.409357435784187e-14 -0.01990526625136879
72 0.03499999999996714 -0.01393368637595815 -0.01990526625136879
73 0.04999999999991937 -0.01393368637595815 -0.01990526625136879
74 0.0649999999999651 -0.01393368637595815 -0.01990526625136879
75 0.03499999999996714 0.01393368637595815 -0.01990526625136879
76 0.04999999999991937 0.01393368637595815 -0.01990526625136879
77 0.0649999999999651 0.01393368637595815 -0.01990526625136879
78 0.03199999999997633 0.01512800235103793 -0.01871095027628902
79 0.0439999999999366 0.0163223183261161 -0.01751663430121085
80 0.05599999999993852 0.01751663430119842 -0.01632231832612853
81 0.06799999999996649 0.01871095027628333 -0.01512800235104362
82 0.03499999999996714 0.01990526625136879 -0.01393368637595815
83 0.04999999999991937 0.01990526625136879 -0.01393368637595815
84 0.0649999999999651 0.01990526625136879 -0.01393368637595815
85 0.03199999999997712 0.01990526625136879 -0.008360211825585523
86 0.04399999999994086 0.01990526625136879 -0.002786737275219104
87 0.05599999999994407 0.01990526625136879 0.002786737275165652
88 0.0679999999999697 0.01990526625136879 0.00836021182556081
89 0.08000000000000002 0.01990526625136879 -2.409357435784187e-14
90 0.03499999999996714 0.01990526625136879 0.01393368637595815
91 0.04999999999991937 0.01990526625136879 0.01393368637595815
92 0.0649999999999651 0.01990526625136879 0.01393368637595815
93 0.03199999999997633 0.01871095027628902 0.01512800235103793
94 0.0439999999999366 0.01751663430121085 0.0163223183261161
95 0.05599999999993852 0.01632231832612853 0.01751663430119842
96 0.06799999999996649 0.01512800235104362 0.01871095027628333
97 0.03499999999996714 0.01393368637595815 0.01990526625136879
98 0.04999999999991937 0.01393368637595815 0.01990526625136879
99 0.0649999999999651 0.01393368637595815 0.01990526625136879
100 0.03199999999997712 0.008360211825585523 0.01990526625136879
101 0.04399999999994086 0.002786737275219104 0.01990526625136879
102 0.05599999999994407 -0.002786737275165652 0.01990526625136879
103 0.0679999999999697 -0.00836021182556081 0.01990526625136879
104 0.08000000000000002 2.409357435784187e-14 0.01990526625136879
105 0.03499999999996714 -0.01393368637595815 0.01990526625136879
106 0.04999999999991937 -0.01393368637595815 0.01990526625136879
107 0.0649999999999651 -0.01393368637595815 0.01990526625136879
108 0.03199999999997633 -0.01512800235103793 0.01871095027628902
109 0.0439999999999366 -0.0163223183261161 0.01751663430121085
110 0.05599999999993852 -0.01751663430119842 0.01632231832612853
111 0.06799999999996649 -0.01871095027628333 0.01512800235104362
112 0.03499999999996714 -0.01990526625136879 0.01393368637595815
113 0.04999999999991937 -0.01990526625136879 0.01393368637595815
114 0.0649999999999651 -0.01990526625136879 0.01393368637595815
115 0.03199999999997712 -0.01990526625136879 0.008360211825585523
116 0.04399999999994086 -0.01990526625136879 0.002786737275219104
117 0.05599999999994407 -0.01990526625136879 -0.002786737275165652
118 0.0679999999999697 -0.01990526625136879 -0.00836021182556081
119 0.08000000000000002 -0.01990526625136879 2.409357435784187e-14
120 0.03499999999996714 -0.01990526625136879 -0.01393368637595815
121 0.04999999999991937 -0.01990526625136879 -0.01393368637595815
122 0.0649999999999651 -0.01990526625136879 -0.01393368637595815
123 0.03199999999997633 -0.01871095027628902 -0.01512800235103793
124 0.0439999999999366 -0.01751663430121085 -0.0163223183261161
125 0.05599999999993852 -0.01632231832612853 -0.01751663430119842
126 0.06799999999996649 -0.01512800235104362 -0.01871095027628333
127 0.08666666666665154 -0.00719907129426034 -0.01625596743862613
128 0.09333333333331732 -0.0004644562125481165 -0.01260666862587567
129 0.08999999999997849 -0.01010192262257791 -0.01443131803225416
130 0.08999999999997849 0.01010192262257791 -0.01443131803225416
131 0.08999999999997961 0.01144552809454213 -0.01308771256028889
132 0.08999999999997849 0.01443131803225416 -0.01010192262257791
133 0.08666666666665154 0.01625596743862613 -0.00719907129426034
134 0.09333333333331732 0.01260666862587567 -0.0004644562125481165
135 0.08999999999997849 0.01443131803225416 0.01010192262257791
136 0.08999999999997961 0.01308771256028889 0.01144552809454213
137 0.08999999999997849 0.01010192262257791 0.01443131803225416
138 0.08666666666665154 0.00719907129426034 0.01625596743862613
139 0.09333333333331732 0.0004644562125481165 0.01260666862587567
140 0.08999999999997849 -0.01010192262257791 0.01443131803225416
141 0.08999999999997961 -0.01144552809454213 0.01308771256028889
142 0.08999999999997849 -0.01443131803225416 0.01010192262257791
143 0.08666666666665154 -0.01625596743862613 0.00719907129426034
144 0.09333333333331732 -0.01260666862587567 0.0004644562125481165
145 0.08999999999997849 -0.01443131803225416 -0.01010192262257791
146 0.08999999999997961 -0.01308771256028889 -0.01144552809454213
147 0.01249999999984226 -0.1 -0.1
148 0.07499999999966961 -0.1 -0.1
149 0.1374999999998388 -0.1 -0.1
150 0.2 -0.03333333333350134 -0.1
151 0.2 0.03333333333315269 -0.1
152 0.1375000000001561 0.1 -0.1
153 0.07500000000037987 0.1 -0.1
154 0.01250000000019139 0.1 -0.1
155 -0.05 0.03333333333350134 -0.1
156 -0.05 -0.03333333333315269 -0.1
157 0.01249999999984226 -0.1 0.1
158 0.07499999999966961 -0.1 0.1
159 0.1374999999998388 -0.1 0.1
160 0.2 -0.03333333333350134 0.1
161 0.2 0.03333333333315269 0.1
162 0.1375000000001561 0.1 0.1
163 0.07500000000037987 0.1 0.1
164 0.01250000000019139 0.1 0.1
165 -0.05 0.03333333333350134 0.1
166 -0.05 -0.03333333333315269 0.1
167 -0.05 -0.1 -0.03333333333350134
168 -0.05 -0.1 0.03333333333315269
169 0.2 -0.1 -0.03333333333350134
170 0.2 -0.1 0.03333333333315269
171 0.2 0.1 -0.03333333333350134
172 0.2 0.1 0.03333333333315269
173 -0.05 0.1 -0.03333333333350134
174 -0.05 0.1 0.03333333333315269
175 0.01399999999998921 -0.002229389820162146 -0.01512800235103169
176 0.01399999999998921 0.01512800235103169 -0.002229389820162146
177 0.01399999999998921 0.002229389820162146 0.01512800235103169
178 0.01399999999998921 -0.01512800235103169 0.002229389820162146
179 0.06891948306231535 -0.003112317356413922 -0.01990526625136879
180 0.05731359241260225 -0.006929955011559692 -0.01990526625136879
181 0.03108051693767683 0.003112317356392537 -0.01990526625136879
182 0.04268640758728873 0.006929955011513951 -0.01990526625136879
183 0.0732499999999829 0.01662089731989211 -0.01721805530743484
184 0.02674999999998587 0.01721805530743342 -0.01662089731989352
185 0.06891948306231535 0.01990526625136879 -0.003112317356413922
186 0.05731359241260225 0.01990526625136879 -0.006929955011559692
187 0.03108051693767683 0.01990526625136879 0.003112317356392537
188 0.04268640758728873 0.01990526625136879 0.006929955011513951
189 0.0732499999999829 0.01721805530743484 0.0166208973198921
190 0.02674999999998587 0.01662089731989353 0.01721805530743341
191 0.06891948306231535 0.003112317356413922 0.01990526625136879
192 0.05731359241260225 0.006929955011559692 0.01990526625136879
193 0.03108051693767683 -0.003112317356392537 0.01990526625136879
194 0.04268640758728873 -0.006929955011513951 0.01990526625136879
195 0.0732499999999829 -0.01662089731989211 0.01721805530743484
196 0.02674999999998587 -0.01721805530743342 0.01662089731989352
197 0.06891948306231535 -0.01990526625136879 0.003112317356413922
198 0.05731359241260225 -0.01990526625136879 0.006929955011559692
199 0.03108051693767683 -0.01990526625136879 -0.003112317356392537
200 0.04268640758728873 -0.01990526625136879 -0.006929955011513951
201 0.0732499999999829 -0.01721805530743484 -0.0166208973198921
202 0.02674999999998587 -0.01662089731989353 -0.01721805530743341
203 0.08674799600715494 0.002802114707732327 -0.01621144817876499
204 0.08674799600715494 0.01621144817876499 0.002802114707732327
205 0.08674799600715492 -0.002802114707732333 0.016211448178765
206 0.08674799600715494 -0.01621144817876499 -0.002802114707732327
207 0.007160947886269839 7.309728219543184e-14 -0.09999999999999999
208 0.1057991342861347 -0.04816552361306692 -0.09999999999999999
209 0.1057991342865513 0.04816552361319461 -0.09999999999999999
210 0.04374999999975593 -0.04839742106980914 -0.09999999999999999
211 0.04375000000028564 0.04839742106984353 -0.09999999999999999
212 0.1463382421200838 -1.205193747146385e-13 -0.09999999999999999
213 0.07370466939087812 2.121687409822446e-13 -0.09999999999999999
214 0.1550237230036592 0.05379828198250063 -0.09999999999999999
215 -0.00731781042265063 0.0563461508806836 -0.09999999999999999
216 -0.0073178104228264 -0.05634615088057775 -0.09999999999999999
217 0.1550237230032774 -0.05379828198233316 -0.09999999999999999
218 0.007160947886269839 7.309728219543184e-14 0.09999999999999999
219 0.1057991342861347 -0.04816552361306692 0.09999999999999999
220 0.1057991342865513 0.04816552361319461 0.09999999999999999
221 0.04374999999975593 -0.04839742106980914 0.09999999999999999
222 0.04375000000028564 0.04839742106984353 0.09999999999999999
223 0.1463382421200838 -1.205193747146385e-13 0.09999999999999999
224 0.07370466939087812 2.121687409822446e-13 0.09999999999999999
225 0.1550237230036592 0.05379828198250063 0.09999999999999999
226 -0.00731781042265063 0.0563461508806836 0.09999999999999999
227 -0.0073178104228264 -0.05634615088057775 0.09999999999999999
228 0.1550237230032774 -0.05379828198233316 0.09999999999999999
229 0.1428390521136206 -0.09999999999999999 -8.156273275819866e-14
230 0.04420086571345903 -0.09999999999999999 -0.04816552361318165
231 0.04420086571345301 -0.09999999999999999 0.04816552361313418
232 0.1062499999997542 -0.09999999999999999 0.0483974210696861
233 0.1062499999997542 -0.09999999999999999 -0.04839742106985484
234 0.003661757879780996 -0.09999999999999999 -1.451932796679102e-13
235 0.07523464254264391 -0.09999999999999999 -5.273274938956871e-14
236 -0.005023723003640602 -0.09999999999999999 0.05379828198248282
237 0.1573178104226427 -0.09999999999999999 0.05634615088055145
238 0.1573178104226427 -0.09999999999999999 -0.05634615088068756
239 -0.005023723003569951 -0.09999999999999999 -0.05379828198252359
240 0.2 -1.386889346318627e-13 -0.03971047697404195
241 0.2 -1.470138181809307e-13 0.04057332426379683
242 0.2 0.05051201634316688 0.0001438078815356007
243 0.2 -0.05051201634327739 0.000143807881535603
244 0.2 0.0515360490295948 0.0515360490295948
245 0.2 -0.0515360490296406 0.05153604902954542
246 0.2 0.05153604902969221 -0.05153604902978741
247 0.2 -0.05153604902973803 -0.05153604902973803
248 0.007160947886407953 0.09999999999999999 -8.155678513485245e-14
249 0.1057991342865669 0.09999999999999999 -0.04816552361320391
250 0.1057991342865729 0.09999999999999999 0.04816552361315644
251 0.04375000000028563 0.09999999999999999 0.0483974210696748
252 0.04375000000028563 0.09999999999999999 -0.04839742106984353
253 0.1463382421202168 0.09999999999999999 -1.451948278830669e-13
254 0.07476535745739564 0.09999999999999999 -5.273095115978149e-14
255 0.1550237230036592 0.09999999999999999 0.05379828198250063
256 -0.00731781042262301 0.09999999999999999 0.05634615088054919
257 -0.007317810422623009 0.09999999999999999 -0.05634615088068529
258 0.1550237230035885 0.09999999999999999 -0.05379828198254144
259 -0.05 1.386889346318627e-13 -0.03971047697404195
260 -0.05 1.470138181809307e-13 0.04057332426379683
261 -0.05 -0.05051201634316688 0.0001438078815356007
262 -0.05 0.05051201634327739 0.000143807881535603
263 -0.05 -0.0515360490295948 0.0515360490295948
264 -0.05 0.0515360490296406 0.05153604902954542
265 -0.05 -0.05153604902969221 -0.05153604902978741
266 -0.05 0.05153604902973803 -0.05153604902973803
267 0.1275037416037975 -0.04474745198140461 -0.0447474519814046
268 0.07793252476096307 -0.0527107400172088 -0.0527107400172088
269 0.108067603922053 -0.002175326261029865 -0.06045647047728505
270 0.1205486324802992 -0.04905334920777282 -6.505213034913027e-19
271 0.1528937332727509 -0.006673240510771386 0
272 0.03105583438898308 -0.04868003529579908 -0.05140922499481855
273 0.1216992650223045 0.03949426302450054 -0.03815065755253322
274 0.1162759526584616 0.05215502811739484 0.005910283635375603
275 0.07793252476096307 0.0494927465955739 -0.04949274659557389
276 0.03105583438898308 0.05130479018772531 -0.04857560048870584
277 0.1093329599265758 -0.03943956902044611 0.04242535895815136
278 0.1174055384586112 0.006566981817107662 0.0537589062251824
279 0.06208037083950699 -0.05268523253529744 0.05110413401413118
280 0.0689441656109766 0.05481588997429648 0.05208670027525017
281 0.01941035202203233 0.06386146249034855 0.05161272539310533
282 0.04249999999994326 -0.06593305604593855 0.01078239925605194
283 0.04475697408077235 0.06850294139835776 0.0187312167886584
284 0.04249999999994326 -0.0144450565879916 0.06417866504723718
285 -0.01326700631205195 0.03308423930559799 0.03607002924310523
286 -0.008027327933820997 -0.006966843187967029 0.05265474072303029
287 0.03917090790420945 -0.008094504246328581 -0.06202769705694517
288 0.02206747523901514 -0.04570206237566619 0.04570206237566619
289 0.07249999999998255 -0.05829484748164657 -0.01437653234139522
290 0.07597950522128315 0.006966843187991123 0.05914755818122747
291 0.1041416513886835 0.03482693403088606 0.03617053950284795
292 0.07597950522128315 0.05894568240895048 -0.006966843187991124
293 -0.009535472119016748 0.03989898331277751 0.002316078220094589
294 -0.008351489540670335 0.03085776482889163 -0.03145492281639661
295 -0.007982320985899707 -0.006966843187991123 -0.05162415884068029
296 0.07249999999998255 0.01437653234139522 -0.05508287659832602
297 -0.007613560700462412 -0.05213507016432811 -0.00696684318796703
298 0.1016246779184608 -0.03414197125941107 -0.03115618132170579
299 0.02749999999998357 0.01437653234139189 0.05332682182751836
300 -0.02019681351223128 -0.02682323843191049 0.02383744849402475
301 -0.02987630930768458 0.00273907584104101 0.002973214303509668
302 0.02749999999998357 0.0528279438664973 -0.01437653234139189
303 -0.01796909449805135 -0.02419385965658195 -0.02359670166900127
304 0.09380108327446761 -0.04132910266886995 -0.00696684318796703
305 0.09856328527814734 0.04116486452560906 -0.01313396363417601
306 0.05749999999994224 -0.03039148340535124 -0.04527797267283975
307 0.04968527812960256 0.03597514489770045 0.03913734194002461
308 0.07249999999998255 0.04103952465240494 0.02739357615718593
309 0.07793252476096307 -0.03342517079155659 -0.03342517079155659
310 0.09721892009358182 -0.008932210578991524 0.0416501583401556
311 0.05749999999994224 0.04396729163021205 -0.02908080236272355
312 0.1023567650512376 0.020602586388936 -0.02670552388793195
313 0.109353496574289 0 -0.02860168350349475
314 0.1277985631880569 0.009943331135391989 -0.009943331135391989
315 0.04938380800567733 -0.05042885471815246 -0.02777262088542133
316 0.02402049477869578 -0.04616090490807404 -0.00696684318796703
317 0.04249999999994326 0.02657563321360723 -0.04146212248102674
318 0.1074831368882895 -0.02190789025881584 0.02489368019653326
319 0.1283552053775223 -8.673617379884035e-19 0.01919287336296459
320 0.07249999999998255 -0.02857625253772801 0.04222220103294698
321 0.05027865779477478 -0.03255487578182704 0.03333764477684432
322 0.04902250351761295 -0.03962060809028661 0.001083925280093234
323 0.07249999999998256 -0.04601406920236421 0.01052967488421649
324 0.1046571068654667 0.03092931437681243 0.005910283635375609
325 0.09585667152378448 0.01313396363417601 0.03622032788402057
326 0.02622005446643164 0.03809117275567744 0.02735600763555853
327 0.108783970267035 -0.02756125293225907 -1.626303258728257e-19
328 0.09464485575824828 -0.03400654047313127 0.01313396363417601
329 0.02206747523901514 -0.0328841288066091 -0.0328841288066091
330 0.02118347301744808 0.02944869653799332 -0.03147342667487555
331 0.09060298933896703 -0.006966843187991125 -0.03800385803674288
332 0.05129860942595921 0.002795978158952633 0.04567167367681739
333 0.1512982153771342 -0.005700616039294983 -0.04593321408597496
334 0.06390442549535803 -0.007416371140374253 -0.04294125972939312
335 0.02402049477869578 0.04089962141156307 0.00696684318796703
336 0.02402049477869578 0.006966843187967029 -0.045615761321166
337 0.0608290920957017 0.04128828826836206 0.00809450424629966
338 0.10825856309711 0 0.02660142074369502
339 0.1183237908873346 -0.01060677920147965 0.0010445381627651
340 0.03105583438898308 -0.03172590177716773 0.02899671207814826
341 -0.01557418212219774 0.0009509302840843592 0.02654192326748788
342 -0.009402175569863317 0.01045956904577052 -0.02263023890616395
343 0.04021046811294195 -0.01588558422710749 -0.03744735379895723
344 0.02749999999998357 -0.01052967488416973 0.04399000808946833
345 0.07793252476096307 0.03303646056619905 -0.03303646056619905
346 0.1042509273569529 0.0197597731068344 0.0197597731068344
347 0.1131075797167986 -0.01974092495320802 -0.01974092495320802
348 -0.005406011526864201 -0.02783984547385308 0.001098821094732266
349 0.0759414761602228 -0.00696684318796703 0.03978175259993939
350 0.08407120930968889 0.04173542694238645 0.006966843187967029
351 0.07215230871545522 0.02141905933587276 0.0387061083682374
352 0.1539408611194721 0.03943910744964559 0.03625663230571309
353 0.1568086393536578 -0.02517642037596716 0.05263044677500373
354 0.04467073704989084 0.03801450582497682 0.01692180955925536
355 0.04991647380238035 0.006700461070615954 -0.03764599879850815
356 0.02749999999998357 0.0209929672940713 0.0346389157891895
357 0.0002564040777449558 0.01976184215744716 0.0194594583921702
358 0.06270981458017472 0.02540354223716818 -0.03014683780065225
359 0.07358650495217404 -0.03347362306762307 0.02454172950711166
360 0.05008352619752121 0.03719153407285616 -0.006700461070626117
361 0.07249999999998256 0.03604953553474467 -0.01620088317813551
362 0.007068605800549134 0.00696684318796703 -0.03369501727128789
363 0.006004512718195732 -0.006966843187967029 0.03503146395443667
364 0.00666793639637616 -0.03113416265601462 0.03113416265601462
365 0.0989395349193108 -0.07077185051247364 0.02299332146143016
366 0.03729018541973803 0.03009274728921016 -0.0253494517257822
$EndNodes
$Elements
1886
1 2 2 4 1 43 46 1
2 2 2 4 1 45 9 175
3 2 2 4 1 9 46 175
4 2 2 4 1 45 44 10
5 2 2 4 1 43 44 175
6 2 2 4 1 46 43 175
7 2 2 4 1 44 45 175
8 2 2 4 2 43 1 2
9 2 2 4 2 43 2 47
10 2 2 4 2 47 10 44
11 2 2 4 2 43 47 44
12 2 2 4 3 48 47 2
13 2 2 4 3 10 48 11
14 2 2 4 3 10 47 48
15 2 2 4 4 3 48 2
16 2 2 4 4 49 48 3
17 2 2 4 4 48 49 11
18 2 2 4 5 50 49 3
19 2 2 4 5 11 49 176
20 2 2 4 5 52 11 176
21 2 2 4 5 52 51 12
22 2 2 4 5 49 50 176
23 2 2 4 5 50 51 176
24 2 2 4 5 51 52 176
25 2 2 4 6 4 50 3
26 2 2 4 6 53 50 4
27 2 2 4 6 51 53 12
28 2 2 4 6 50 53 51
29 2 2 4 7 54 53 4
30 2 2 4 7 12 54 13
31 2 2 4 7 12 53 54
32 2 2 4 8 5 54 4
33 2 2 4 8 55 54 5
34 2 2 4 8 54 55 13
35 2 2 4 9 56 55 5
36 2 2 4 9 13 55 177
37 2 2 4 9 58 13 177
38 2 2 4 9 14 58 57
39 2 2 4 9 55 56 177
40 2 2 4 9 56 57 177
41 2 2 4 9 57 58 177
42 2 2 4 10 6 56 5
43 2 2 4 10 59 56 6
44 2 2 4 10 59 14 57
45 2 2 4 10 56 59 57
46 2 2 4 11 60 59 6
47 2 2 4 11 14 60 15
48 2 2 4 11 14 59 60
49 2 2 4 12 60 6 7
50 2 2 4 12 60 7 61
51 2 2 4 12 61 15 60
52 2 2 4 13 62 61 7
53 2 2 4 13 15 61 178
54 2 2 4 13 64 15 178
55 2 2 4 13 64 63 16
56 2 2 4 13 61 62 178
57 2 2 4 13 62 63 178
58 2 2 4 13 63 64 178
59 2 2 4 14 62 7 8
60 2 2 4 14 62 8 65
61 2 2 4 14 65 16 63
62 2 2 4 14 62 65 63
63 2 2 4 15 66 65 8
64 2 2 4 15 16 66 9
65 2 2 4 15 16 65 66
66 2 2 4 16 8 1 66
67 2 2 4 16 66 1 46
68 2 2 4 16 9 66 46
69 2 2 4 17 67 72 9
70 2 2 4 17 71 17 179
71 2 2 4 17 17 74 179
72 2 2 4 17 71 70 18
73 2 2 4 17 68 72 67
74 2 2 4 17 68 69 180
75 2 2 4 17 73 72 68
76 2 2 4 17 73 68 180
77 2 2 4 17 69 70 179
78 2 2 4 17 69 179 180
79 2 2 4 17 70 71 179
80 2 2 4 17 74 73 180
81 2 2 4 17 179 74 180
82 2 2 4 18 45 67 9
83 2 2 4 18 45 10 181
84 2 2 4 18 10 75 181
85 2 2 4 18 70 77 18
86 2 2 4 18 67 45 181
87 2 2 4 18 68 67 181
88 2 2 4 18 69 68 182
89 2 2 4 18 68 181 182
90 2 2 4 18 69 77 70
91 2 2 4 18 77 69 76
92 2 2 4 18 76 69 182
93 2 2 4 18 75 76 182
94 2 2 4 18 181 75 182
95 2 2 4 19 78 75 10
96 2 2 4 19 19 18 183
97 2 2 4 19 18 77 183
98 2 2 4 19 81 19 183
99 2 2 4 19 79 76 75
100 2 2 4 19 78 79 75
101 2 2 4 19 77 76 80
102 2 2 4 19 80 76 79
103 2 2 4 19 81 77 80
104 2 2 4 19 77 81 183
105 2 2 4 20 10 11 184
106 2 2 4 20 78 10 184
107 2 2 4 20 11 82 184
108 2 2 4 20 81 84 19
109 2 2 4 20 79 78 82
110 2 2 4 20 82 78 184
111 2 2 4 20 80 79 83
112 2 2 4 20 83 79 82
113 2 2 4 20 81 80 84
114 2 2 4 20 80 83 84
115 2 2 4 21 85 82 11
116 2 2 4 21 19 84 185
117 2 2 4 21 89 19 185
118 2 2 4 21 88 20 89
119 2 2 4 21 83 82 86
120 2 2 4 21 86 82 85
121 2 2 4 21 84 83 186
122 2 2 4 21 83 86 186
123 2 2 4 21 185 84 186
124 2 2 4 21 86 87 186
125 2 2 4 21 87 88 185
126 2 2 4 21 87 185 186
127 2 2 4 21 88 89 185
128 2 2 4 22 52 85 11
129 2 2 4 22 52 12 187
130 2 2 4 22 12 90 187
131 2 2 4 22 88 92 20
132 2 2 4 22 85 52 187
133 2 2 4 22 86 85 187
134 2 2 4 22 87 86 188
135 2 2 4 22 86 187 188
136 2 2 4 22 88 87 92
137 2 2 4 22 92 87 91
138 2 2 4 22 91 87 188
139 2 2 4 22 90 91 188
140 2 2 4 22 187 90 188
141 2 2 4 23 93 90 12
142 2 2 4 23 21 20 189
143 2 2 4 23 20 92 189
144 2 2 4 23 96 21 189
145 2 2 4 23 94 91 90
146 2 2 4 23 93 94 90
147 2 2 4 23 92 91 95
148 2 2 4 23 95 91 94
149 2 2 4 23 96 92 95
150 2 2 4 23 92 96 189
151 2 2 4 24 12 13 190
152 2 2 4 24 93 12 190
153 2 2 4 24 13 97 190
154 2 2 4 24 96 99 21
155 2 2 4 24 94 93 97
156 2 2 4 24 97 93 190
157 2 2 4 24 95 94 98
158 2 2 4 24 98 94 97
159 2 2 4 24 96 95 99
160 2 2 4 24 95 98 99
161 2 2 4 25 100 97 13
162 2 2 4 25 21 99 191
163 2 2 4 25 104 21 191
164 2 2 4 25 103 22 104
165 2 2 4 25 98 97 101
166 2 2 4 25 101 97 100
167 2 2 4 25 99 98 192
168 2 2 4 25 98 101 192
169 2 2 4 25 191 99 192
170 2 2 4 25 101 102 192
171 2 2 4 25 102 103 191
172 2 2 4 25 102 191 192
173 2 2 4 25 103 104 191
174 2 2 4 26 58 100 13
175 2 2 4 26 58 14 193
176 2 2 4 26 14 105 193
177 2 2 4 26 103 107 22
178 2 2 4 26 100 58 193
179 2 2 4 26 101 100 193
180 2 2 4 26 102 101 194
181 2 2 4 26 101 193 194
182 2 2 4 26 103 102 107
183 2 2 4 26 107 102 106
184 2 2 4 26 106 102 194
185 2 2 4 26 105 106 194
186 2 2 4 26 193 105 194
187 2 2 4 27 108 105 14
188 2 2 4 27 23 22 195
189 2 2 4 27 22 107 195
190 2 2 4 27 111 23 195
191 2 2 4 27 109 106 105
192 2 2 4 27 108 109 105
193 2 2 4 27 107 106 110
194 2 2 4 27 110 106 109
195 2 2 4 27 111 107 110
196 2 2 4 27 107 111 195
197 2 2 4 28 14 15 196
198 2 2 4 28 108 14 196
199 2 2 4 28 15 112 196
200 2 2 4 28 111 114 23
201 2 2 4 28 109 108 112
202 2 2 4 28 112 108 196
203 2 2 4 28 110 109 113
204 2 2 4 28 113 109 112
205 2 2 4 28 111 110 114
206 2 2 4 28 110 113 114
207 2 2 4 29 115 112 15
208 2 2 4 29 23 114 197
209 2 2 4 29 119 23 197
210 2 2 4 29 118 24 119
211 2 2 4 29 113 112 116
212 2 2 4 29 116 112 115
213 2 2 4 29 114 113 198
214 2 2 4 29 113 116 198
215 2 2 4 29 197 114 198
216 2 2 4 29 116 117 198
217 2 2 4 29 117 118 197
218 2 2 4 29 117 197 198
219 2 2 4 29 118 119 197
220 2 2 4 30 64 115 15
221 2 2 4 30 64 16 199
222 2 2 4 30 16 120 199
223 2 2 4 30 118 122 24
224 2 2 4 30 115 64 199
225 2 2 4 30 116 115 199
226 2 2 4 30 117 116 200
227 2 2 4 30 116 199 200
228 2 2 4 30 118 117 122
229 2 2 4 30 122 117 121
230 2 2 4 30 121 117 200
231 2 2 4 30 120 121 200
232 2 2 4 30 199 120 200
233 2 2 4 31 123 120 16
234 2 2 4 31 17 24 201
235 2 2 4 31 126 17 201
236 2 2 4 31 24 122 201
237 2 2 4 31 124 121 120
238 2 2 4 31 123 124 120
239 2 2 4 31 125 122 121
240 2 2 4 31 124 125 121
241 2 2 4 31 126 122 125
242 2 2 4 31 122 126 201
243 2 2 4 32 9 202 16
244 2 2 4 32 72 202 9
245 2 2 4 32 16 202 123
246 2 2 4 32 126 74 17
247 2 2 4 32 124 72 73
248 2 2 4 32 123 72 124
249 2 2 4 32 123 202 72
250 2 2 4 32 73 74 125
251 2 2 4 32 125 124 73
252 2 2 4 32 125 74 126
253 2 2 4 33 127 129 17
254 2 2 4 33 25 128 26
255 2 2 4 33 25 129 128
256 2 2 4 33 128 129 127
257 2 2 4 34 71 127 17
258 2 2 4 34 71 18 203
259 2 2 4 34 18 130 203
260 2 2 4 34 128 130 26
261 2 2 4 34 127 71 203
262 2 2 4 34 128 127 203
263 2 2 4 34 130 128 203
264 2 2 4 35 130 18 131
265 2 2 4 35 131 27 26
266 2 2 4 35 130 131 26
267 2 2 4 36 19 131 18
268 2 2 4 36 132 131 19
269 2 2 4 36 131 132 27
270 2 2 4 37 133 132 19
271 2 2 4 37 27 134 28
272 2 2 4 37 134 27 132
273 2 2 4 37 133 134 132
274 2 2 4 38 89 133 19
275 2 2 4 38 89 20 204
276 2 2 4 38 20 135 204
277 2 2 4 38 134 135 28
278 2 2 4 38 133 89 204
279 2 2 4 38 134 133 204
280 2 2 4 38 135 134 204
281 2 2 4 39 136 135 20
282 2 2 4 39 28 136 29
283 2 2 4 39 28 135 136
284 2 2 4 40 21 136 20
285 2 2 4 40 136 21 137
286 2 2 4 40 29 136 137
287 2 2 4 41 138 137 21
288 2 2 4 41 29 139 30
289 2 2 4 41 29 137 139
290 2 2 4 41 139 137 138
291 2 2 4 42 104 138 21
292 2 2 4 42 104 22 205
293 2 2 4 42 22 140 205
294 2 2 4 42 140 30 139
295 2 2 4 42 138 104 205
296 2 2 4 42 139 138 205
297 2 2 4 42 140 139 205
298 2 2 4 43 141 140 22
299 2 2 4 43 30 141 31
300 2 2 4 43 30 140 141
301 2 2 4 44 23 141 22
302 2 2 4 44 142 141 23
303 2 2 4 44 141 142 31
304 2 2 4 45 143 142 23
305 2 2 4 45 31 144 32
306 2 2 4 45 31 142 144
307 2 2 4 45 144 142 143
308 2 2 4 46 119 143 23
309 2 2 4 46 119 24 206
310 2 2 4 46 24 145 206
311 2 2 4 46 32 144 145
312 2 2 4 46 143 119 206
313 2 2 4 46 144 143 206
314 2 2 4 46 145 144 206
315 2 2 4 47 145 24 146
316 2 2 4 47 146 25 32
317 2 2 4 47 145 146 32
318 2 2 4 48 24 17 146
319 2 2 4 48 146 17 129
320 2 2 4 48 129 25 146
321 2 2 4 49 1 33 2
322 2 2 4 50 25 26 34
323 2 2 4 51 2 33 3
324 2 2 4 52 26 27 34
325 2 2 4 53 3 33 4
326 2 2 4 54 27 28 34
327 2 2 4 55 4 33 5
328 2 2 4 56 28 29 34
329 2 2 4 57 5 33 6
330 2 2 4 58 29 30 34
331 2 2 4 59 6 33 7
332 2 2 4 60 30 31 34
333 2 2 4 61 7 33 8
334 2 2 4 62 31 32 34
335 2 2 4 63 1 8 33
336 2 2 4 64 25 34 32
337 2 2 3 65 35 147 216
338 2 2 3 65 156 35 216
339 2 2 3 65 149 36 217
340 2 2 3 65 36 150 217
341 2 2 3 65 151 37 214
342 2 2 3 65 37 152 214
343 2 2 3 65 154 38 215
344 2 2 3 65 38 155 215
345 2 2 3 65 147 148 210
346 2 2 3 65 147 210 216
347 2 2 3 65 148 149 208
348 2 2 3 65 148 208 210
349 2 2 3 65 208 149 217
350 2 2 3 65 150 151 212
351 2 2 3 65 150 212 217
352 2 2 3 65 212 151 214
353 2 2 3 65 152 153 209
354 2 2 3 65 152 209 214
355 2 2 3 65 153 154 211
356 2 2 3 65 209 153 211
357 2 2 3 65 211 154 215
358 2 2 3 65 155 156 207
359 2 2 3 65 155 207 215
360 2 2 3 65 207 156 216
361 2 2 3 65 207 210 213
362 2 2 3 65 210 207 216
363 2 2 3 65 211 207 213
364 2 2 3 65 207 211 215
365 2 2 3 65 210 208 213
366 2 2 3 65 208 212 213
367 2 2 3 65 212 208 217
368 2 2 3 65 209 211 213
369 2 2 3 65 212 209 213
370 2 2 3 65 209 212 214
371 2 2 3 66 39 157 227
372 2 2 3 66 166 39 227
373 2 2 3 66 159 40 228
374 2 2 3 66 40 160 228
375 2 2 3 66 161 41 225
376 2 2 3 66 41 162 225
377 2 2 3 66 164 42 226
378 2 2 3 66 42 165 226
379 2 2 3 66 157 158 221
380 2 2 3 66 157 221 227
381 2 2 3 66 158 159 219
382 2 2 3 66 158 219 221
383 2 2 3 66 219 159 228
384 2 2 3 66 160 161 223
385 2 2 3 66 160 223 228
386 2 2 3 66 223 161 225
387 2 2 3 66 162 163 220
388 2 2 3 66 162 220 225
389 2 2 3 66 163 164 222
390 2 2 3 66 220 163 222
391 2 2 3 66 222 164 226
392 2 2 3 66 165 166 218
393 2 2 3 66 165 218 226
394 2 2 3 66 218 166 227
395 2 2 3 66 218 221 224
396 2 2 3 66 221 218 227
397 2 2 3 66 222 218 224
398 2 2 3 66 218 222 226
399 2 2 3 66 221 219 224
400 2 2 3 66 219 223 224
401 2 2 3 66 223 219 228
402 2 2 3 66 220 222 224
403 2 2 3 66 223 220 224
404 2 2 3 66 220 223 225
405 2 2 3 67 35 147 239
406 2 2 3 67 167 35 239
407 2 2 3 67 149 36 238
408 2 2 3 67 36 169 238
409 2 2 3 67 157 39 236
410 2 2 3 67 39 168 236
411 2 2 3 67 40 159 237
412 2 2 3 67 170 40 237
413 2 2 3 67 147 148 230
414 2 2 3 67 147 230 239
415 2 2 3 67 148 149 233
416 2 2 3 67 230 148 233
417 2 2 3 67 233 149 238
418 2 2 3 67 158 157 231
419 2 2 3 67 231 157 236
420 2 2 3 67 159 158 232
421 2 2 3 67 158 231 232
422 2 2 3 67 159 232 237
423 2 2 3 67 168 167 234
424 2 2 3 67 234 167 239
425 2 2 3 67 168 234 236
426 2 2 3 67 169 170 229
427 2 2 3 67 169 229 238
428 2 2 3 67 229 170 237
429 2 2 3 67 229 232 235
430 2 2 3 67 232 229 237
431 2 2 3 67 233 229 235
432 2 2 3 67 229 233 238
433 2 2 3 67 230 233 235
434 2 2 3 67 234 230 235
435 2 2 3 67 230 234 239
436 2 2 3 67 232 231 235
437 2 2 3 67 231 234 235
438 2 2 3 67 234 231 236
439 2 2 3 68 36 150 247
440 2 2 3 68 169 36 247
441 2 2 3 68 151 37 246
442 2 2 3 68 37 171 246
443 2 2 3 68 160 40 245
444 2 2 3 68 40 170 245
445 2 2 3 68 41 161 244
446 2 2 3 68 172 41 244
447 2 2 3 68 150 151 240
448 2 2 3 68 150 240 247
449 2 2 3 68 240 151 246
450 2 2 3 68 161 160 241
451 2 2 3 68 241 160 245
452 2 2 3 68 161 241 244
453 2 2 3 68 170 169 243
454 2 2 3 68 243 169 247
455 2 2 3 68 170 243 245
456 2 2 3 68 171 172 242
457 2 2 3 68 171 242 246
458 2 2 3 68 242 172 244
459 2 2 3 68 241 240 242
460 2 2 3 68 240 241 243
461 2 2 3 68 242 240 246
462 2 2 3 68 240 243 247
463 2 2 3 68 241 242 244
464 2 2 3 68 243 241 245
465 2 2 3 69 37 152 258
466 2 2 3 69 171 37 258
467 2 2 3 69 154 38 257
468 2 2 3 69 38 173 257
469 2 2 3 69 162 41 255
470 2 2 3 69 41 172 255
471 2 2 3 69 42 164 256
472 2 2 3 69 174 42 256
473 2 2 3 69 152 153 249
474 2 2 3 69 152 249 258
475 2 2 3 69 153 154 252
476 2 2 3 69 249 153 252
477 2 2 3 69 252 154 257
478 2 2 3 69 163 162 250
479 2 2 3 69 250 162 255
480 2 2 3 69 164 163 251
481 2 2 3 69 163 250 251
482 2 2 3 69 164 251 256
483 2 2 3 69 172 171 253
484 2 2 3 69 253 171 258
485 2 2 3 69 172 253 255
486 2 2 3 69 173 174 248
487 2 2 3 69 173 248 257
488 2 2 3 69 248 174 256
489 2 2 3 69 248 251 254
490 2 2 3 69 251 248 256
491 2 2 3 69 252 248 254
492 2 2 3 69 248 252 257
493 2 2 3 69 249 252 254
494 2 2 3 69 253 249 254
495 2 2 3 69 249 253 258
496 2 2 3 69 251 250 254
497 2 2 3 69 250 253 254
498 2 2 3 69 253 250 255
499 2 2 2 70 156 35 265
500 2 2 2 70 35 167 265
501 2 2 2 70 38 155 266
502 2 2 2 70 173 38 266
503 2 2 2 70 39 166 263
504 2 2 2 70 168 39 263
505 2 2 2 70 165 42 264
506 2 2 2 70 42 174 264
507 2 2 2 70 155 156 259
508 2 2 2 70 155 259 266
509 2 2 2 70 259 156 265
510 2 2 2 70 166 165 260
511 2 2 2 70 260 165 264
512 2 2 2 70 166 260 263
513 2 2 2 70 167 168 261
514 2 2 2 70 167 261 265
515 2 2 2 70 261 168 263
516 2 2 2 70 174 173 262
517 2 2 2 70 262 173 266
518 2 2 2 70 174 262 264
519 2 2 2 70 260 259 261
520 2 2 2 70 259 260 262
521 2 2 2 70 261 259 265
522 2 2 2 70 259 262 266
523 2 2 2 70 260 261 263
524 2 2 2 70 262 260 264
525 4 2 1 1 276 330 294 336
526 4 2 1 1 242 274 273 314
527 4 2 1 1 130 203 18 331
528 4 2 1 1 126 125 74 309
529 4 2 1 1 126 122 125 309
530 4 2 1 1 24 119 118 304
531 4 2 1 1 132 134 27 324
532 4 2 1 1 124 120 123 329
533 4 2 1 1 123 72 124 329
534 4 2 1 1 96 92 95 308
535 4 2 1 1 134 132 133 324
536 4 2 1 1 49 176 11 293
537 4 2 1 1 50 49 3 293
538 4 2 1 1 3 4 50 293
539 4 2 1 1 52 11 176 293
540 4 2 1 1 130 18 312 331
541 4 2 1 1 132 131 19 312
542 4 2 1 1 283 326 281 335
543 4 2 1 1 18 312 331 345
544 4 2 1 1 146 17 129 298
545 4 2 1 1 130 18 131 312
546 4 2 1 1 146 145 24 298
547 4 2 1 1 242 314 273 333
548 4 2 1 1 242 274 314 352
549 4 2 1 1 194 105 106 344
550 4 2 1 1 65 62 8 348
551 4 2 1 1 237 270 277 353
552 4 2 1 1 100 193 101 344
553 4 2 1 1 204 134 133 324
554 4 2 1 1 55 177 13 363
555 4 2 1 1 237 277 270 365
556 4 2 1 1 24 118 122 289
557 4 2 1 1 267 270 243 271
558 4 2 1 1 50 4 53 357
559 4 2 1 1 215 276 294 336
560 4 2 1 1 51 50 53 293
561 4 2 1 1 131 18 19 312
562 4 2 1 1 55 54 5 357
563 4 2 1 1 51 176 50 293
564 4 2 1 1 176 49 50 293
565 4 2 1 1 250 308 292 350
566 4 2 1 1 116 113 112 322
567 4 2 1 1 95 99 96 308
568 4 2 1 1 272 303 297 329
569 4 2 1 1 70 18 71 296
570 4 2 1 1 93 97 94 356
571 4 2 1 1 51 52 176 293
572 4 2 1 1 115 322 112 340
573 4 2 1 1 268 331 269 334
574 4 2 1 1 9 67 72 343
575 4 2 1 1 24 17 146 298
576 4 2 1 1 197 117 118 322
577 4 2 1 1 16 64 63 348
578 4 2 1 1 268 309 298 331
579 4 2 1 1 94 98 95 307
580 4 2 1 1 107 106 110 321
581 4 2 1 1 80 79 83 366
582 4 2 1 1 201 24 122 309
583 4 2 1 1 99 98 192 332
584 4 2 1 1 132 27 312 324
585 4 2 1 1 115 116 112 322
586 4 2 1 1 97 100 101 332
587 4 2 1 1 270 319 318 353
588 4 2 1 1 233 270 267 298
589 4 2 1 1 98 94 97 356
590 4 2 1 1 22 141 140 318
591 4 2 1 1 99 192 191 332
592 4 2 1 1 5 54 4 357
593 4 2 1 1 203 71 18 331
594 4 2 1 1 193 194 101 344
595 4 2 1 1 243 267 229 270
596 4 2 1 1 114 113 198 323
597 4 2 1 1 271 314 242 333
598 4 2 1 1 95 91 94 307
599 4 2 1 1 107 103 102 349
600 4 2 1 1 72 202 9 329
601 4 2 1 1 296 312 273 345
602 4 2 1 1 4 54 53 357
603 4 2 1 1 197 198 117 322
604 4 2 1 1 293 294 248 302
605 4 2 1 1 206 145 144 327
606 4 2 1 1 64 115 15 316
607 4 2 1 1 250 292 274 350
608 4 2 1 1 48 10 47 342
609 4 2 1 1 46 175 9 362
610 4 2 1 1 253 273 242 274
611 4 2 1 1 97 101 98 332
612 4 2 1 1 19 89 133 305
613 4 2 1 1 45 67 9 336
614 4 2 1 1 113 112 322 340
615 4 2 1 1 58 193 100 344
616 4 2 1 1 243 270 229 353
617 4 2 1 1 248 281 293 335
618 4 2 1 1 270 327 339 347
619 4 2 1 1 270 271 267 347
620 4 2 1 1 203 128 127 331
621 4 2 1 1 237 229 270 353
622 4 2 1 1 189 21 20 308
623 4 2 1 1 117 122 118 322
624 4 2 1 1 295 303 272 329
625 4 2 1 1 199 116 115 322
626 4 2 1 1 28 27 134 324
627 4 2 1 1 277 219 310 320
628 4 2 1 1 267 269 268 298
629 4 2 1 1 273 274 249 305
630 4 2 1 1 179 70 71 334
631 4 2 1 1 199 120 200 322
632 4 2 1 1 32 144 145 327
633 4 2 1 1 270 318 277 353
634 4 2 1 1 257 294 276 302
635 4 2 1 1 111 110 114 359
636 4 2 1 1 226 285 281 299
637 4 2 1 1 28 314 27 324
638 4 2 1 1 175 46 43 362
639 4 2 1 1 243 271 270 353
640 4 2 1 1 43 46 1 342
641 4 2 1 1 96 189 92 308
642 4 2 1 1 274 292 249 305
643 4 2 1 1 242 314 271 352
644 4 2 1 1 205 139 138 338
645 4 2 1 1 33 2 1 301
646 4 2 1 1 192 102 191 332
647 4 2 1 1 115 15 316 340
648 4 2 1 1 115 112 15 340
649 4 2 1 1 52 85 11 335
650 4 2 1 1 211 317 276 336
651 4 2 1 1 312 313 273 314
652 4 2 1 1 85 187 86 360
653 4 2 1 1 52 11 293 335
654 4 2 1 1 220 291 250 352
655 4 2 1 1 250 291 280 308
656 4 2 1 1 219 278 277 310
657 4 2 1 1 33 1 8 301
658 4 2 1 1 3 2 33 301
659 4 2 1 1 278 291 220 352
660 4 2 1 1 126 201 122 309
661 4 2 1 1 117 121 122 322
662 4 2 1 1 268 298 269 331
663 4 2 1 1 7 33 8 301
664 4 2 1 1 33 4 3 301
665 4 2 1 1 55 13 357 363
666 4 2 1 1 267 271 243 333
667 4 2 1 1 130 128 203 313
668 4 2 1 1 77 183 18 358
669 4 2 1 1 191 104 21 349
670 4 2 1 1 13 356 357 363
671 4 2 1 1 112 113 109 340
672 4 2 1 1 118 119 197 323
673 4 2 1 1 211 287 317 336
674 4 2 1 1 106 102 194 332
675 4 2 1 1 133 132 19 305
676 4 2 1 1 78 10 184 330
677 4 2 1 1 299 307 290 332
678 4 2 1 1 230 315 272 316
679 4 2 1 1 250 291 274 352
680 4 2 1 1 4 33 5 301
681 4 2 1 1 6 33 7 301
682 4 2 1 1 29 34 28 339
683 4 2 1 1 6 5 33 301
684 4 2 1 1 201 126 17 309
685 4 2 1 1 13 58 100 356
686 4 2 1 1 248 283 281 335
687 4 2 1 1 272 297 239 316
688 4 2 1 1 272 297 316 329
689 4 2 1 1 11 82 184 366
690 4 2 1 1 177 58 13 363
691 4 2 1 1 66 46 9 303
692 4 2 1 1 173 293 262 294
693 4 2 1 1 50 293 4 357
694 4 2 1 1 16 65 66 303
695 4 2 1 1 238 229 243 267
696 4 2 1 1 276 302 294 330
697 4 2 1 1 18 19 312 345
698 4 2 1 1 256 285 174 293
699 4 2 1 1 102 103 191 349
700 4 2 1 1 128 25 129 313
701 4 2 1 1 242 258 246 273
702 4 2 1 1 137 138 139 338
703 4 2 1 1 20 88 92 308
704 4 2 1 1 215 276 257 294
705 4 2 1 1 236 297 300 364
706 4 2 1 1 123 202 72 329
707 4 2 1 1 204 20 135 350
708 4 2 1 1 132 27 131 312
709 4 2 1 1 16 66 9 303
710 4 2 1 1 238 243 247 267
711 4 2 1 1 236 288 297 364
712 4 2 1 1 26 128 130 313
713 4 2 1 1 130 313 203 331
714 4 2 1 1 181 75 182 355
715 4 2 1 1 206 144 143 328
716 4 2 1 1 233 268 289 298
717 4 2 1 1 15 178 64 348
718 4 2 1 1 270 304 289 365
719 4 2 1 1 246 242 273 333
720 4 2 1 1 233 267 268 298
721 4 2 1 1 189 20 92 308
722 4 2 1 1 130 312 313 331
723 4 2 1 1 242 253 258 273
724 4 2 1 1 129 298 17 331
725 4 2 1 1 49 293 11 294
726 4 2 1 1 205 138 104 325
727 4 2 1 1 312 314 274 324
728 4 2 1 1 199 200 116 322
729 4 2 1 1 282 315 230 316
730 4 2 1 1 237 270 229 365
731 4 2 1 1 257 248 294 302
732 4 2 1 1 123 16 202 329
733 4 2 1 1 23 141 22 328
734 4 2 1 1 22 140 205 310
735 4 2 1 1 91 307 95 308
736 4 2 1 1 26 131 27 312
737 4 2 1 1 270 271 319 353
738 4 2 1 1 130 131 26 312
739 4 2 1 1 64 316 15 348
740 4 2 1 1 305 312 274 324
741 4 2 1 1 222 290 299 307
742 4 2 1 1 200 120 121 315
743 4 2 1 1 277 278 219 353
744 4 2 1 1 56 6 59 341
745 4 2 1 1 18 331 296 345
746 4 2 1 1 199 115 64 316
747 4 2 1 1 194 106 332 344
748 4 2 1 1 273 296 269 312
749 4 2 1 1 182 68 181 355
750 4 2 1 1 12 190 93 326
751 4 2 1 1 205 104 22 310
752 4 2 1 1 275 296 273 345
753 4 2 1 1 142 141 23 328
754 4 2 1 1 110 109 113 321
755 4 2 1 1 224 290 278 310
756 4 2 1 1 142 143 144 328
757 4 2 1 1 124 72 73 343
758 4 2 1 1 215 207 276 336
759 4 2 1 1 28 29 319 346
760 4 2 1 1 196 108 14 340
761 4 2 1 1 13 58 356 363
762 4 2 1 1 273 249 275 305
763 4 2 1 1 113 116 198 322
764 4 2 1 1 237 243 229 353
765 4 2 1 1 194 102 101 332
766 4 2 1 1 88 89 185 350
767 4 2 1 1 11 294 302 330
768 4 2 1 1 134 135 28 324
769 4 2 1 1 121 315 122 322
770 4 2 1 1 26 34 25 339
771 4 2 1 1 30 34 29 339
772 4 2 1 1 288 316 297 364
773 4 2 1 1 145 206 24 304
774 4 2 1 1 9 336 329 362
775 4 2 1 1 295 336 294 362
776 4 2 1 1 284 299 290 332
777 4 2 1 1 45 181 67 336
778 4 2 1 1 196 15 112 340
779 4 2 1 1 28 314 324 346
780 4 2 1 1 18 71 296 331
781 4 2 1 1 24 118 289 304
782 4 2 1 1 95 307 99 308
783 4 2 1 1 211 287 296 317
784 4 2 1 1 237 245 243 353
785 4 2 1 1 3 4 293 301
786 4 2 1 1 178 63 64 348
787 4 2 1 1 129 17 127 331
788 4 2 1 1 222 280 290 307
789 4 2 1 1 265 297 272 303
790 4 2 1 1 136 135 20 346
791 4 2 1 1 24 289 122 309
792 4 2 1 1 145 24 298 304
793 4 2 1 1 256 281 226 285
794 4 2 1 1 15 61 178 348
795 4 2 1 1 252 292 302 311
796 4 2 1 1 237 277 228 353
797 4 2 1 1 51 53 12 357
798 4 2 1 1 249 292 275 305
799 4 2 1 1 136 21 137 346
800 4 2 1 1 280 291 290 351
801 4 2 1 1 270 319 271 339
802 4 2 1 1 237 232 228 277
803 4 2 1 1 204 135 134 324
804 4 2 1 1 214 246 273 333
805 4 2 1 1 274 346 319 352
806 4 2 1 1 290 307 280 351
807 4 2 1 1 94 90 93 356
808 4 2 1 1 174 285 262 293
809 4 2 1 1 250 220 280 291
810 4 2 1 1 122 289 118 322
811 4 2 1 1 90 94 354 356
812 4 2 1 1 258 249 209 273
813 4 2 1 1 9 336 67 343
814 4 2 1 1 110 106 109 321
815 4 2 1 1 57 56 59 363
816 4 2 1 1 118 304 119 323
817 4 2 1 1 80 83 358 366
818 4 2 1 1 274 319 314 352
819 4 2 1 1 296 331 312 345
820 4 2 1 1 253 274 242 352
821 4 2 1 1 155 215 294 295
822 4 2 1 1 125 306 74 309
823 4 2 1 1 232 219 228 277
824 4 2 1 1 58 344 100 356
825 4 2 1 1 9 175 45 362
826 4 2 1 1 57 177 56 363
827 4 2 1 1 121 120 124 315
828 4 2 1 1 9 72 329 343
829 4 2 1 1 279 284 224 320
830 4 2 1 1 132 305 133 324
831 4 2 1 1 277 279 219 320
832 4 2 1 1 111 107 110 359
833 4 2 1 1 294 336 330 362
834 4 2 1 1 258 209 214 273
835 4 2 1 1 28 319 29 339
836 4 2 1 1 97 100 332 356
837 4 2 1 1 140 139 205 338
838 4 2 1 1 124 315 120 329
839 4 2 1 1 21 291 20 308
840 4 2 1 1 146 298 129 347
841 4 2 1 1 98 307 94 356
842 4 2 1 1 30 318 31 339
843 4 2 1 1 247 267 243 333
844 4 2 1 1 193 105 194 344
845 4 2 1 1 132 19 305 312
846 4 2 1 1 146 129 25 347
847 4 2 1 1 32 145 146 347
848 4 2 1 1 100 101 332 344
849 4 2 1 1 98 97 332 356
850 4 2 1 1 316 340 15 364
851 4 2 1 1 9 329 336 343
852 4 2 1 1 225 220 250 352
853 4 2 1 1 220 278 290 291
854 4 2 1 1 144 32 31 327
855 4 2 1 1 69 70 179 334
856 4 2 1 1 265 239 272 297
857 4 2 1 1 27 314 312 324
858 4 2 1 1 21 136 20 346
859 4 2 1 1 249 209 273 275
860 4 2 1 1 25 313 26 339
861 4 2 1 1 296 269 331 334
862 4 2 1 1 101 192 98 332
863 4 2 1 1 274 312 273 314
864 4 2 1 1 252 275 292 311
865 4 2 1 1 67 181 68 343
866 4 2 1 1 106 321 332 344
867 4 2 1 1 282 289 230 315
868 4 2 1 1 219 277 232 279
869 4 2 1 1 220 290 280 291
870 4 2 1 1 286 288 263 364
871 4 2 1 1 270 339 271 347
872 4 2 1 1 225 250 255 352
873 4 2 1 1 237 232 277 365
874 4 2 1 1 119 206 143 328
875 4 2 1 1 145 298 146 347
876 4 2 1 1 211 276 207 336
877 4 2 1 1 271 352 319 353
878 4 2 1 1 249 273 253 274
879 4 2 1 1 70 296 71 334
880 4 2 1 1 282 297 288 316
881 4 2 1 1 46 9 303 362
882 4 2 1 1 186 87 185 337
883 4 2 1 1 101 102 192 332
884 4 2 1 1 288 340 316 364
885 4 2 1 1 119 24 206 304
886 4 2 1 1 146 25 32 347
887 4 2 1 1 265 272 295 303
888 4 2 1 1 235 270 289 365
889 4 2 1 1 233 229 267 270
890 4 2 1 1 51 293 53 357
891 4 2 1 1 211 296 275 317
892 4 2 1 1 50 53 293 357
893 4 2 1 1 30 141 31 318
894 4 2 1 1 113 322 198 323
895 4 2 1 1 252 211 275 276
896 4 2 1 1 273 312 269 313
897 4 2 1 1 222 299 281 307
898 4 2 1 1 84 186 185 361
899 4 2 1 1 225 278 220 352
900 4 2 1 1 211 275 276 317
901 4 2 1 1 140 141 30 318
902 4 2 1 1 74 179 17 334
903 4 2 1 1 319 352 278 353
904 4 2 1 1 246 258 214 273
905 4 2 1 1 139 29 137 338
906 4 2 1 1 216 265 272 295
907 4 2 1 1 226 165 285 286
908 4 2 1 1 11 10 294 330
909 4 2 1 1 224 278 219 310
910 4 2 1 1 318 319 278 353
911 4 2 1 1 198 116 117 322
912 4 2 1 1 115 316 322 340
913 4 2 1 1 209 269 212 273
914 4 2 1 1 250 254 292 308
915 4 2 1 1 250 274 255 352
916 4 2 1 1 208 233 267 268
917 4 2 1 1 30 139 140 338
918 4 2 1 1 280 283 254 308
919 4 2 1 1 114 198 197 323
920 4 2 1 1 104 138 21 325
921 4 2 1 1 290 332 307 351
922 4 2 1 1 113 322 321 340
923 4 2 1 1 208 268 267 269
924 4 2 1 1 232 279 277 365
925 4 2 1 1 91 87 188 354
926 4 2 1 1 23 111 114 359
927 4 2 1 1 272 287 207 295
928 4 2 1 1 9 16 303 329
929 4 2 1 1 267 271 333 347
930 4 2 1 1 269 298 267 347
931 4 2 1 1 250 280 254 308
932 4 2 1 1 71 203 127 331
933 4 2 1 1 222 226 281 299
934 4 2 1 1 52 187 85 335
935 4 2 1 1 63 62 65 348
936 4 2 1 1 16 316 64 348
937 4 2 1 1 274 305 273 312
938 4 2 1 1 268 230 289 315
939 4 2 1 1 23 114 197 359
940 4 2 1 1 268 272 230 315
941 4 2 1 1 63 178 62 348
942 4 2 1 1 114 113 323 359
943 4 2 1 1 278 290 291 325
944 4 2 1 1 284 288 286 344
945 4 2 1 1 271 314 319 352
946 4 2 1 1 278 319 318 338
947 4 2 1 1 61 15 60 364
948 4 2 1 1 155 294 266 295
949 4 2 1 1 233 235 270 289
950 4 2 1 1 269 313 312 331
951 4 2 1 1 62 7 8 348
952 4 2 1 1 194 332 101 344
953 4 2 1 1 19 89 305 361
954 4 2 1 1 32 327 145 347
955 4 2 1 1 283 292 254 308
956 4 2 1 1 99 21 96 351
957 4 2 1 1 20 89 88 350
958 4 2 1 1 236 263 288 364
959 4 2 1 1 236 297 263 300
960 4 2 1 1 248 256 174 293
961 4 2 1 1 212 273 269 333
962 4 2 1 1 27 26 312 314
963 4 2 1 1 25 128 26 313
964 4 2 1 1 12 13 356 357
965 4 2 1 1 266 257 173 294
966 4 2 1 1 289 315 282 322
967 4 2 1 1 210 230 268 272
968 4 2 1 1 233 149 208 267
969 4 2 1 1 206 304 145 327
970 4 2 1 1 236 300 263 364
971 4 2 1 1 310 320 290 349
972 4 2 1 1 77 70 69 355
973 4 2 1 1 11 294 293 302
974 4 2 1 1 7 301 8 348
975 4 2 1 1 4 293 301 357
976 4 2 1 1 317 330 276 336
977 4 2 1 1 73 68 180 343
978 4 2 1 1 16 120 199 316
979 4 2 1 1 274 291 346 352
980 4 2 1 1 326 356 285 357
981 4 2 1 1 22 140 310 318
982 4 2 1 1 14 59 60 364
983 4 2 1 1 269 312 296 331
984 4 2 1 1 215 257 266 294
985 4 2 1 1 252 275 249 292
986 4 2 1 1 248 293 302 335
987 4 2 1 1 196 14 15 340
988 4 2 1 1 82 85 86 360
989 4 2 1 1 265 239 216 272
990 4 2 1 1 277 318 278 353
991 4 2 1 1 182 75 76 355
992 4 2 1 1 224 219 279 320
993 4 2 1 1 257 276 252 302
994 4 2 1 1 273 312 305 345
995 4 2 1 1 20 204 89 350
996 4 2 1 1 251 280 222 281
997 4 2 1 1 222 280 220 290
998 4 2 1 1 223 278 352 353
999 4 2 1 1 222 281 280 307
1000 4 2 1 1 17 298 24 309
1001 4 2 1 1 318 320 22 359
1002 4 2 1 1 149 233 238 267
1003 4 2 1 1 62 61 7 348
1004 4 2 1 1 81 84 19 361
1005 4 2 1 1 218 286 284 288
1006 4 2 1 1 204 135 324 350
1007 4 2 1 1 99 98 332 351
1008 4 2 1 1 22 318 310 320
1009 4 2 1 1 319 346 291 352
1010 4 2 1 1 211 207 287 336
1011 4 2 1 1 46 66 1 303
1012 4 2 1 1 287 295 272 329
1013 4 2 1 1 213 287 306 334
1014 4 2 1 1 282 316 288 340
1015 4 2 1 1 254 249 274 292
1016 4 2 1 1 99 191 21 351
1017 4 2 1 1 29 338 30 339
1018 4 2 1 1 58 14 193 344
1019 4 2 1 1 109 105 108 340
1020 4 2 1 1 12 13 190 356
1021 4 2 1 1 234 239 297 316
1022 4 2 1 1 19 18 183 345
1023 4 2 1 1 316 15 348 364
1024 4 2 1 1 240 271 242 333
1025 4 2 1 1 10 75 181 336
1026 4 2 1 1 155 215 266 294
1027 4 2 1 1 66 65 8 303
1028 4 2 1 1 121 117 200 322
1029 4 2 1 1 66 8 1 303
1030 4 2 1 1 26 130 312 313
1031 4 2 1 1 11 302 293 335
1032 4 2 1 1 266 173 262 294
1033 4 2 1 1 254 292 283 302
1034 4 2 1 1 94 307 91 354
1035 4 2 1 1 221 279 231 288
1036 4 2 1 1 14 60 15 364
1037 4 2 1 1 250 254 274 292
1038 4 2 1 1 85 335 187 360
1039 4 2 1 1 252 302 276 311
1040 4 2 1 1 277 310 278 318
1041 4 2 1 1 180 69 179 334
1042 4 2 1 1 221 227 284 288
1043 4 2 1 1 209 275 211 296
1044 4 2 1 1 291 319 278 346
1045 4 2 1 1 248 262 173 293
1046 4 2 1 1 207 272 210 287
1047 4 2 1 1 251 281 248 283
1048 4 2 1 1 28 319 314 346
1049 4 2 1 1 214 273 212 333
1050 4 2 1 1 208 267 212 269
1051 4 2 1 1 234 288 282 297
1052 4 2 1 1 272 316 315 329
1053 4 2 1 1 169 229 243 238
1054 4 2 1 1 217 267 247 333
1055 4 2 1 1 122 309 289 315
1056 4 2 1 1 149 217 208 267
1057 4 2 1 1 227 218 284 288
1058 4 2 1 1 55 5 56 341
1059 4 2 1 1 292 308 283 337
1060 4 2 1 1 224 290 284 299
1061 4 2 1 1 219 232 158 279
1062 4 2 1 1 229 270 235 365
1063 4 2 1 1 197 322 118 323
1064 4 2 1 1 21 189 96 351
1065 4 2 1 1 102 191 332 349
1066 4 2 1 1 149 238 217 267
1067 4 2 1 1 243 170 237 229
1068 4 2 1 1 247 217 238 267
1069 4 2 1 1 99 332 191 351
1070 4 2 1 1 16 199 64 316
1071 4 2 1 1 45 336 9 362
1072 4 2 1 1 132 312 305 324
1073 4 2 1 1 116 200 117 322
1074 4 2 1 1 211 153 252 275
1075 4 2 1 1 109 108 112 340
1076 4 2 1 1 262 294 293 342
1077 4 2 1 1 315 316 282 322
1078 4 2 1 1 68 69 180 355
1079 4 2 1 1 237 232 159 228
1080 4 2 1 1 199 115 316 322
1081 4 2 1 1 44 175 43 362
1082 4 2 1 1 243 169 238 247
1083 4 2 1 1 270 267 298 347
1084 4 2 1 1 255 274 253 352
1085 4 2 1 1 281 283 280 307
1086 4 2 1 1 210 268 213 306
1087 4 2 1 1 16 316 297 329
1088 4 2 1 1 243 170 245 237
1089 4 2 1 1 197 119 23 323
1090 4 2 1 1 23 328 22 359
1091 4 2 1 1 141 318 22 328
1092 4 2 1 1 188 87 86 360
1093 4 2 1 1 87 88 185 337
1094 4 2 1 1 234 236 288 297
1095 4 2 1 1 17 24 201 309
1096 4 2 1 1 220 162 225 250
1097 4 2 1 1 258 249 152 209
1098 4 2 1 1 157 221 231 288
1099 4 2 1 1 252 276 275 311
1100 4 2 1 1 43 1 2 342
1101 4 2 1 1 98 332 307 356
1102 4 2 1 1 263 286 227 288
1103 4 2 1 1 219 159 232 228
1104 4 2 1 1 284 290 224 320
1105 4 2 1 1 122 315 289 322
1106 4 2 1 1 11 184 10 330
1107 4 2 1 1 10 181 45 336
1108 4 2 1 1 193 14 105 344
1109 4 2 1 1 216 272 207 295
1110 4 2 1 1 278 318 310 338
1111 4 2 1 1 255 225 162 250
1112 4 2 1 1 152 214 258 209
1113 4 2 1 1 104 325 21 349
1114 4 2 1 1 225 223 278 352
1115 4 2 1 1 248 174 262 293
1116 4 2 1 1 273 314 313 333
1117 4 2 1 1 212 269 267 333
1118 4 2 1 1 302 311 292 360
1119 4 2 1 1 223 219 278 353
1120 4 2 1 1 251 222 164 281
1121 4 2 1 1 286 299 284 344
1122 4 2 1 1 282 323 279 365
1123 4 2 1 1 25 129 313 347
1124 4 2 1 1 230 233 268 289
1125 4 2 1 1 99 96 308 351
1126 4 2 1 1 234 282 230 316
1127 4 2 1 1 129 298 331 347
1128 4 2 1 1 236 168 263 297
1129 4 2 1 1 290 291 325 351
1130 4 2 1 1 277 279 320 359
1131 4 2 1 1 211 215 207 276
1132 4 2 1 1 206 327 144 328
1133 4 2 1 1 107 321 110 359
1134 4 2 1 1 305 312 19 345
1135 4 2 1 1 318 22 328 359
1136 4 2 1 1 107 22 103 349
1137 4 2 1 1 153 209 249 275
1138 4 2 1 1 209 212 214 273
1139 4 2 1 1 157 227 221 288
1140 4 2 1 1 55 5 341 357
1141 4 2 1 1 185 350 89 361
1142 4 2 1 1 163 250 220 280
1143 4 2 1 1 145 327 304 347
1144 4 2 1 1 20 88 308 337
1145 4 2 1 1 87 91 92 337
1146 4 2 1 1 230 148 210 268
1147 4 2 1 1 119 143 23 328
1148 4 2 1 1 187 90 188 354
1149 4 2 1 1 189 308 96 351
1150 4 2 1 1 21 308 189 351
1151 4 2 1 1 17 71 127 331
1152 4 2 1 1 203 313 128 331
1153 4 2 1 1 281 285 326 356
1154 4 2 1 1 219 228 277 353
1155 4 2 1 1 174 256 264 285
1156 4 2 1 1 210 272 268 306
1157 4 2 1 1 256 226 264 285
1158 4 2 1 1 54 55 13 357
1159 4 2 1 1 269 296 213 334
1160 4 2 1 1 100 344 332 356
1161 4 2 1 1 269 333 313 347
1162 4 2 1 1 85 302 11 335
1163 4 2 1 1 20 88 337 350
1164 4 2 1 1 231 282 279 365
1165 4 2 1 1 211 252 154 276
1166 4 2 1 1 314 271 339 347
1167 4 2 1 1 273 305 275 345
1168 4 2 1 1 229 238 233 267
1169 4 2 1 1 31 34 30 339
1170 4 2 1 1 25 34 32 339
1171 4 2 1 1 258 171 242 246
1172 4 2 1 1 249 258 253 273
1173 4 2 1 1 236 263 227 288
1174 4 2 1 1 78 330 184 366
1175 4 2 1 1 92 308 88 337
1176 4 2 1 1 246 214 151 333
1177 4 2 1 1 248 302 283 335
1178 4 2 1 1 31 318 327 339
1179 4 2 1 1 58 344 356 363
1180 4 2 1 1 263 297 261 300
1181 4 2 1 1 230 210 147 272
1182 4 2 1 1 278 319 291 352
1183 4 2 1 1 249 252 153 275
1184 4 2 1 1 153 211 209 275
1185 4 2 1 1 227 286 218 288
1186 4 2 1 1 77 69 76 355
1187 4 2 1 1 61 62 178 348
1188 4 2 1 1 224 279 221 284
1189 4 2 1 1 208 148 233 268
1190 4 2 1 1 319 338 278 346
1191 4 2 1 1 137 21 138 325
1192 4 2 1 1 154 257 215 276
1193 4 2 1 1 269 273 313 333
1194 4 2 1 1 111 195 107 359
1195 4 2 1 1 9 202 16 329
1196 4 2 1 1 19 185 89 361
1197 4 2 1 1 157 231 236 288
1198 4 2 1 1 21 325 308 351
1199 4 2 1 1 163 222 251 280
1200 4 2 1 1 120 315 200 322
1201 4 2 1 1 281 299 285 356
1202 4 2 1 1 113 321 109 340
1203 4 2 1 1 171 242 253 258
1204 4 2 1 1 183 345 18 358
1205 4 2 1 1 157 236 227 288
1206 4 2 1 1 186 360 185 361
1207 4 2 1 1 83 82 86 360
1208 4 2 1 1 254 252 292 302
1209 4 2 1 1 208 213 268 269
1210 4 2 1 1 174 264 262 285
1211 4 2 1 1 198 322 197 323
1212 4 2 1 1 32 34 31 339
1213 4 2 1 1 68 343 181 355
1214 4 2 1 1 268 309 306 315
1215 4 2 1 1 246 240 242 333
1216 4 2 1 1 250 253 255 274
1217 4 2 1 1 225 161 223 352
1218 4 2 1 1 210 213 287 306
1219 4 2 1 1 289 298 268 309
1220 4 2 1 1 233 235 229 270
1221 4 2 1 1 191 349 21 351
1222 4 2 1 1 211 154 215 276
1223 4 2 1 1 287 336 329 343
1224 4 2 1 1 67 336 181 343
1225 4 2 1 1 145 304 298 347
1226 4 2 1 1 236 231 282 288
1227 4 2 1 1 2 1 301 342
1228 4 2 1 1 221 219 158 279
1229 4 2 1 1 286 263 300 364
1230 4 2 1 1 210 287 272 306
1231 4 2 1 1 20 291 346 350
1232 4 2 1 1 223 352 241 353
1233 4 2 1 1 222 290 224 299
1234 4 2 1 1 94 307 354 356
1235 4 2 1 1 263 168 261 297
1236 4 2 1 1 226 218 165 286
1237 4 2 1 1 272 268 306 315
1238 4 2 1 1 221 158 231 279
1239 4 2 1 1 155 207 215 295
1240 4 2 1 1 293 3 301 342
1241 4 2 1 1 147 216 239 272
1242 4 2 1 1 158 232 231 279
1243 4 2 1 1 154 252 257 276
1244 4 2 1 1 88 185 337 350
1245 4 2 1 1 210 207 216 272
1246 4 2 1 1 318 327 270 328
1247 4 2 1 1 296 331 71 334
1248 4 2 1 1 28 314 319 339
1249 4 2 1 1 121 200 315 322
1250 4 2 1 1 224 220 278 290
1251 4 2 1 1 6 56 5 341
1252 4 2 1 1 20 308 291 350
1253 4 2 1 1 199 316 120 322
1254 4 2 1 1 321 322 113 323
1255 4 2 1 1 147 210 216 272
1256 4 2 1 1 18 345 296 358
1257 4 2 1 1 251 256 248 281
1258 4 2 1 1 313 333 314 347
1259 4 2 1 1 172 253 242 352
1260 4 2 1 1 214 212 151 333
1261 4 2 1 1 236 282 234 288
1262 4 2 1 1 164 222 226 281
1263 4 2 1 1 256 251 164 281
1264 4 2 1 1 205 104 310 325
1265 4 2 1 1 140 205 310 338
1266 4 2 1 1 234 168 236 297
1267 4 2 1 1 53 54 12 357
1268 4 2 1 1 289 24 304 309
1269 4 2 1 1 163 220 222 280
1270 4 2 1 1 16 297 316 348
1271 4 2 1 1 205 138 325 338
1272 4 2 1 1 2 301 3 342
1273 4 2 1 1 283 302 292 360
1274 4 2 1 1 97 93 190 356
1275 4 2 1 1 148 208 210 268
1276 4 2 1 1 181 336 75 355
1277 4 2 1 1 230 233 148 268
1278 4 2 1 1 307 332 98 351
1279 4 2 1 1 254 249 253 274
1280 4 2 1 1 11 184 330 366
1281 4 2 1 1 17 298 309 331
1282 4 2 1 1 164 226 256 281
1283 4 2 1 1 32 31 327 339
1284 4 2 1 1 70 334 69 355
1285 4 2 1 1 179 74 180 334
1286 4 2 1 1 13 12 54 357
1287 4 2 1 1 90 326 93 356
1288 4 2 1 1 296 317 287 355
1289 4 2 1 1 318 30 338 339
1290 4 2 1 1 165 260 285 286
1291 4 2 1 1 239 230 147 272
1292 4 2 1 1 72 67 68 343
1293 4 2 1 1 222 218 226 299
1294 4 2 1 1 212 208 217 267
1295 4 2 1 1 87 92 88 337
1296 4 2 1 1 29 139 30 338
1297 4 2 1 1 241 223 161 352
1298 4 2 1 1 212 267 217 333
1299 4 2 1 1 275 305 292 345
1300 4 2 1 1 187 12 90 335
1301 4 2 1 1 255 253 172 352
1302 4 2 1 1 242 271 241 352
1303 4 2 1 1 72 68 73 343
1304 4 2 1 1 163 251 250 280
1305 4 2 1 1 227 218 221 284
1306 4 2 1 1 237 229 232 365
1307 4 2 1 1 218 166 165 286
1308 4 2 1 1 280 281 251 283
1309 4 2 1 1 267 333 269 347
1310 4 2 1 1 264 226 165 285
1311 4 2 1 1 254 280 251 283
1312 4 2 1 1 46 342 43 362
1313 4 2 1 1 292 345 305 361
1314 4 2 1 1 270 277 318 328
1315 4 2 1 1 291 308 21 325
1316 4 2 1 1 140 318 30 338
1317 4 2 1 1 248 257 252 302
1318 4 2 1 1 292 308 337 350
1319 4 2 1 1 220 225 223 278
1320 4 2 1 1 277 279 359 365
1321 4 2 1 1 240 243 271 333
1322 4 2 1 1 22 310 104 349
1323 4 2 1 1 211 287 213 296
1324 4 2 1 1 207 155 156 295
1325 4 2 1 1 225 244 161 352
1326 4 2 1 1 224 223 219 278
1327 4 2 1 1 231 279 232 365
1328 4 2 1 1 15 61 348 364
1329 4 2 1 1 93 326 190 356
1330 4 2 1 1 289 304 298 309
1331 4 2 1 1 276 275 311 317
1332 4 2 1 1 129 331 313 347
1333 4 2 1 1 311 317 275 358
1334 4 2 1 1 298 304 24 309
1335 4 2 1 1 311 345 292 361
1336 4 2 1 1 58 177 57 363
1337 4 2 1 1 221 224 219 279
1338 4 2 1 1 254 253 250 274
1339 4 2 1 1 2 3 48 342
1340 4 2 1 1 46 303 1 342
1341 4 2 1 1 186 337 185 360
1342 4 2 1 1 316 348 297 364
1343 4 2 1 1 237 228 245 353
1344 4 2 1 1 17 331 309 334
1345 4 2 1 1 241 161 244 352
1346 4 2 1 1 103 104 191 349
1347 4 2 1 1 295 329 287 336
1348 4 2 1 1 289 309 268 315
1349 4 2 1 1 90 354 326 356
1350 4 2 1 1 296 275 317 358
1351 4 2 1 1 77 76 80 358
1352 4 2 1 1 16 297 303 329
1353 4 2 1 1 188 354 87 360
1354 4 2 1 1 2 48 47 342
1355 4 2 1 1 283 307 281 326
1356 4 2 1 1 252 249 254 292
1357 4 2 1 1 2 47 43 342
1358 4 2 1 1 183 358 81 361
1359 4 2 1 1 251 164 222 163
1360 4 2 1 1 211 154 252 153
1361 4 2 1 1 87 337 186 360
1362 4 2 1 1 220 223 224 278
1363 4 2 1 1 158 219 159 232
1364 4 2 1 1 149 208 148 233
1365 4 2 1 1 148 147 230 210
1366 4 2 1 1 231 157 158 221
1367 4 2 1 1 118 289 304 323
1368 4 2 1 1 97 190 13 356
1369 4 2 1 1 321 323 113 359
1370 4 2 1 1 150 217 247 333
1371 4 2 1 1 249 153 152 209
1372 4 2 1 1 163 162 220 250
1373 4 2 1 1 213 269 209 296
1374 4 2 1 1 243 241 271 353
1375 4 2 1 1 244 172 242 352
1376 4 2 1 1 225 255 244 352
1377 4 2 1 1 12 190 326 356
1378 4 2 1 1 79 82 83 366
1379 4 2 1 1 103 22 104 349
1380 4 2 1 1 284 321 340 344
1381 4 2 1 1 196 112 108 340
1382 4 2 1 1 213 210 208 268
1383 4 2 1 1 224 222 220 290
1384 4 2 1 1 285 341 357 363
1385 4 2 1 1 283 280 307 308
1386 4 2 1 1 271 241 352 353
1387 4 2 1 1 213 296 287 334
1388 4 2 1 1 266 294 259 295
1389 4 2 1 1 59 300 60 364
1390 4 2 1 1 55 357 341 363
1391 4 2 1 1 52 12 187 335
1392 4 2 1 1 183 77 81 358
1393 4 2 1 1 68 180 343 355
1394 4 2 1 1 314 333 271 347
1395 4 2 1 1 12 356 326 357
1396 4 2 1 1 99 308 307 351
1397 4 2 1 1 290 320 284 349
1398 4 2 1 1 277 359 328 365
1399 4 2 1 1 119 304 206 328
1400 4 2 1 1 282 288 279 321
1401 4 2 1 1 118 322 289 323
1402 4 2 1 1 239 265 167 297
1403 4 2 1 1 137 325 138 338
1404 4 2 1 1 235 230 282 289
1405 4 2 1 1 221 284 279 288
1406 4 2 1 1 213 209 211 296
1407 4 2 1 1 254 250 251 280
1408 4 2 1 1 259 294 262 342
1409 4 2 1 1 323 359 279 365
1410 4 2 1 1 242 240 241 271
1411 4 2 1 1 167 261 234 297
1412 4 2 1 1 173 248 174 262
1413 4 2 1 1 243 170 229 169
1414 4 2 1 1 296 334 70 355
1415 4 2 1 1 26 313 312 314
1416 4 2 1 1 285 299 286 363
1417 4 2 1 1 22 320 310 349
1418 4 2 1 1 183 81 19 361
1419 4 2 1 1 82 78 184 366
1420 4 2 1 1 234 261 168 297
1421 4 2 1 1 195 320 107 359
1422 4 2 1 1 14 58 57 363
1423 4 2 1 1 151 240 246 333
1424 4 2 1 1 19 305 345 361
1425 4 2 1 1 244 255 172 352
1426 4 2 1 1 195 22 320 359
1427 4 2 1 1 32 25 339 347
1428 4 2 1 1 326 335 12 357
1429 4 2 1 1 262 293 301 342
1430 4 2 1 1 280 308 291 351
1431 4 2 1 1 89 350 305 361
1432 4 2 1 1 90 94 91 354
1433 4 2 1 1 258 246 214 37
1434 4 2 1 1 244 225 41 255
1435 4 2 1 1 332 349 191 351
1436 4 2 1 1 284 320 321 332
1437 4 2 1 1 241 160 223 353
1438 4 2 1 1 165 166 260 286
1439 4 2 1 1 241 240 243 271
1440 4 2 1 1 217 247 238 36
1441 4 2 1 1 245 237 40 228
1442 4 2 1 1 35 216 265 239
1443 4 2 1 1 236 39 227 263
1444 4 2 1 1 16 303 297 348
1445 4 2 1 1 278 338 325 346
1446 4 2 1 1 227 263 166 286
1447 4 2 1 1 11 330 302 366
1448 4 2 1 1 8 301 1 303
1449 4 2 1 1 77 355 76 358
1450 4 2 1 1 155 259 156 295
1451 4 2 1 1 279 282 231 288
1452 4 2 1 1 266 215 38 257
1453 4 2 1 1 256 264 226 42
1454 4 2 1 1 320 332 284 349
1455 4 2 1 1 272 287 329 343
1456 4 2 1 1 156 265 216 295
1457 4 2 1 1 212 217 150 333
1458 4 2 1 1 143 142 23 328
1459 4 2 1 1 234 297 282 316
1460 4 2 1 1 277 318 328 359
1461 4 2 1 1 284 332 321 344
1462 4 2 1 1 313 339 25 347
1463 4 2 1 1 81 80 84 358
1464 4 2 1 1 91 337 87 354
1465 4 2 1 1 230 235 233 289
1466 4 2 1 1 296 345 275 358
1467 4 2 1 1 165 260 264 285
1468 4 2 1 1 227 166 218 286
1469 4 2 1 1 213 212 209 269
1470 4 2 1 1 156 216 207 295
1471 4 2 1 1 283 292 337 360
1472 4 2 1 1 183 19 345 361
1473 4 2 1 1 21 325 137 346
1474 4 2 1 1 277 320 318 359
1475 4 2 1 1 82 360 83 366
1476 4 2 1 1 321 322 282 340
1477 4 2 1 1 213 208 212 269
1478 4 2 1 1 69 68 182 355
1479 4 2 1 1 286 344 288 364
1480 4 2 1 1 279 282 321 323
1481 4 2 1 1 297 348 300 364
1482 4 2 1 1 10 294 330 362
1483 4 2 1 1 213 211 207 287
1484 4 2 1 1 337 350 185 361
1485 4 2 1 1 231 235 282 365
1486 4 2 1 1 272 329 306 343
1487 4 2 1 1 282 322 316 340
1488 4 2 1 1 283 337 308 354
1489 4 2 1 1 79 75 78 366
1490 4 2 1 1 28 324 135 346
1491 4 2 1 1 119 23 323 328
1492 4 2 1 1 288 321 282 340
1493 4 2 1 1 29 338 319 346
1494 4 2 1 1 65 8 303 348
1495 4 2 1 1 212 150 240 333
1496 4 2 1 1 212 240 151 333
1497 4 2 1 1 240 247 243 333
1498 4 2 1 1 313 314 26 339
1499 4 2 1 1 85 302 335 360
1500 4 2 1 1 335 354 187 360
1501 4 2 1 1 283 308 307 354
1502 4 2 1 1 86 87 186 360
1503 4 2 1 1 219 223 228 353
1504 4 2 1 1 279 288 284 321
1505 4 2 1 1 58 14 344 363
1506 4 2 1 1 329 336 295 362
1507 4 2 1 1 234 235 230 282
1508 4 2 1 1 310 318 277 320
1509 4 2 1 1 231 235 234 282
1510 4 2 1 1 6 5 301 341
1511 4 2 1 1 306 329 315 343
1512 4 2 1 1 195 23 22 359
1513 4 2 1 1 69 334 180 355
1514 4 2 1 1 167 234 239 297
1515 4 2 1 1 236 231 234 282
1516 4 2 1 1 290 284 332 349
1517 4 2 1 1 292 305 274 350
1518 4 2 1 1 29 137 338 346
1519 4 2 1 1 262 293 285 301
1520 4 2 1 1 19 84 185 361
1521 4 2 1 1 328 359 323 365
1522 4 2 1 1 151 212 150 240
1523 4 2 1 1 172 242 253 171
1524 4 2 1 1 261 167 234 168
1525 4 2 1 1 254 251 248 283
1526 4 2 1 1 223 160 241 161
1527 4 2 1 1 281 326 307 356
1528 4 2 1 1 188 90 91 354
1529 4 2 1 1 277 328 270 365
1530 4 2 1 1 304 323 289 365
1531 4 2 1 1 284 286 218 299
1532 4 2 1 1 284 321 288 340
1533 4 2 1 1 207 210 213 287
1534 4 2 1 1 311 275 345 358
1535 4 2 1 1 279 284 320 321
1536 4 2 1 1 31 327 318 328
1537 4 2 1 1 224 221 218 284
1538 4 2 1 1 279 323 321 359
1539 4 2 1 1 155 266 259 295
1540 4 2 1 1 81 77 80 358
1541 4 2 1 1 185 360 337 361
1542 4 2 1 1 311 358 83 366
1543 4 2 1 1 74 309 306 334
1544 4 2 1 1 275 292 311 345
1545 4 2 1 1 265 261 167 297
1546 4 2 1 1 287 317 336 355
1547 4 2 1 1 232 229 235 365
1548 4 2 1 1 272 306 287 343
1549 4 2 1 1 304 270 328 365
1550 4 2 1 1 207 295 287 336
1551 4 2 1 1 37 214 258 152
1552 4 2 1 1 162 41 225 255
1553 4 2 1 1 21 349 325 351
1554 4 2 1 1 239 265 35 167
1555 4 2 1 1 246 258 171 37
1556 4 2 1 1 263 236 39 168
1557 4 2 1 1 41 244 255 172
1558 4 2 1 1 78 82 79 366
1559 4 2 1 1 291 278 325 346
1560 4 2 1 1 303 342 46 362
1561 4 2 1 1 69 182 76 355
1562 4 2 1 1 286 363 344 364
1563 4 2 1 1 150 247 240 333
1564 4 2 1 1 206 304 327 328
1565 4 2 1 1 38 266 257 173
1566 4 2 1 1 169 238 247 36
1567 4 2 1 1 264 256 174 42
1568 4 2 1 1 170 245 237 40
1569 4 2 1 1 228 40 245 160
1570 4 2 1 1 225 41 161 244
1571 4 2 1 1 315 316 120 329
1572 4 2 1 1 284 340 288 344
1573 4 2 1 1 307 326 283 354
1574 4 2 1 1 45 175 44 362
1575 4 2 1 1 181 343 336 355
1576 4 2 1 1 56 341 59 363
1577 4 2 1 1 35 216 239 147
1578 4 2 1 1 217 238 149 36
1579 4 2 1 1 40 237 159 228
1580 4 2 1 1 227 39 236 157
1581 4 2 1 1 217 150 247 36
1582 4 2 1 1 246 214 37 151
1583 4 2 1 1 235 323 282 365
1584 4 2 1 1 20 337 308 350
1585 4 2 1 1 281 307 299 356
1586 4 2 1 1 166 227 39 263
1587 4 2 1 1 264 226 42 165
1588 4 2 1 1 187 335 90 354
1589 4 2 1 1 265 216 35 156
1590 4 2 1 1 215 38 155 266
1591 4 2 1 1 195 111 23 359
1592 4 2 1 1 136 28 135 346
1593 4 2 1 1 120 316 315 322
1594 4 2 1 1 83 360 311 366
1595 4 2 1 1 186 83 86 360
1596 4 2 1 1 136 137 29 346
1597 4 2 1 1 140 310 318 338
1598 4 2 1 1 320 321 107 359
1599 4 2 1 1 235 231 232 365
1600 4 2 1 1 304 328 323 365
1601 4 2 1 1 154 38 215 257
1602 4 2 1 1 42 226 256 164
1603 4 2 1 1 83 358 311 360
1604 4 2 1 1 75 336 317 355
1605 4 2 1 1 100 97 13 356
1606 4 2 1 1 28 136 29 346
1607 4 2 1 1 32 339 327 347
1608 4 2 1 1 29 319 338 339
1609 4 2 1 1 340 344 14 364
1610 4 2 1 1 243 245 241 353
1611 4 2 1 1 307 332 299 356
1612 4 2 1 1 326 354 307 356
1613 4 2 1 1 104 310 325 349
1614 4 2 1 1 278 310 290 325
1615 4 2 1 1 294 10 342 362
1616 4 2 1 1 14 15 340 364
1617 4 2 1 1 235 289 282 323
1618 4 2 1 1 283 354 335 360
1619 4 2 1 1 114 323 197 359
1620 4 2 1 1 23 197 323 359
1621 4 2 1 1 259 262 301 342
1622 4 2 1 1 296 287 334 355
1623 4 2 1 1 205 325 310 338
1624 4 2 1 1 44 10 45 362
1625 4 2 1 1 160 228 223 353
1626 4 2 1 1 313 314 339 347
1627 4 2 1 1 282 322 321 323
1628 4 2 1 1 308 325 291 351
1629 4 2 1 1 299 356 344 363
1630 4 2 1 1 7 300 301 348
1631 4 2 1 1 301 303 8 348
1632 4 2 1 1 285 286 341 363
1633 4 2 1 1 119 323 304 328
1634 4 2 1 1 160 245 228 353
1635 4 2 1 1 272 315 306 329
1636 4 2 1 1 235 289 323 365
1637 4 2 1 1 59 363 300 364
1638 4 2 1 1 296 317 355 358
1639 4 2 1 1 259 266 262 294
1640 4 2 1 1 260 166 263 286
1641 4 2 1 1 156 259 265 295
1642 4 2 1 1 10 336 45 362
1643 4 2 1 1 276 311 302 366
1644 4 2 1 1 183 345 358 361
1645 4 2 1 1 76 355 317 358
1646 4 2 1 1 81 358 84 361
1647 4 2 1 1 244 242 241 352
1648 4 2 1 1 305 324 274 350
1649 4 2 1 1 259 295 294 342
1650 4 2 1 1 1 303 301 342
1651 4 2 1 1 10 330 336 362
1652 4 2 1 1 262 285 260 301
1653 4 2 1 1 90 335 326 354
1654 4 2 1 1 292 360 311 361
1655 4 2 1 1 87 354 337 360
1656 4 2 1 1 241 245 160 353
1657 4 2 1 1 332 344 299 356
1658 4 2 1 1 334 343 180 355
1659 4 2 1 1 344 363 14 364
1660 4 2 1 1 304 270 327 328
1661 4 2 1 1 59 341 300 363
1662 4 2 1 1 299 344 286 363
1663 4 2 1 1 261 303 300 348
1664 4 2 1 1 302 311 360 366
1665 4 2 1 1 260 262 264 285
1666 4 2 1 1 276 302 330 366
1667 4 2 1 1 265 261 297 303
1668 4 2 1 1 337 360 292 361
1669 4 2 1 1 307 308 280 351
1670 4 2 1 1 295 294 342 362
1671 4 2 1 1 318 338 319 339
1672 4 2 1 1 300 303 301 348
1673 4 2 1 1 276 317 311 366
1674 4 2 1 1 283 337 354 360
1675 4 2 1 1 283 335 302 360
1676 4 2 1 1 311 360 358 361
1677 4 2 1 1 282 289 322 323
1678 4 2 1 1 260 263 261 300
1679 4 2 1 1 260 301 285 341
1680 4 2 1 1 260 300 261 301
1681 4 2 1 1 260 285 286 341
1682 4 2 1 1 261 297 303 348
1683 4 2 1 1 325 338 137 346
1684 4 2 1 1 261 300 297 348
1685 4 2 1 1 306 334 287 343
1686 4 2 1 1 288 344 340 364
1687 4 2 1 1 326 335 283 354
1688 4 2 1 1 276 330 317 366
1689 4 2 1 1 260 286 263 300
1690 4 2 1 1 265 259 261 303
1691 4 2 1 1 287 343 334 355
1692 4 2 1 1 259 301 261 303
1693 4 2 1 1 279 321 320 359
1694 4 2 1 1 265 295 259 303
1695 4 2 1 1 290 325 310 349
1696 4 2 1 1 292 350 337 361
1697 4 2 1 1 261 301 300 303
1698 4 2 1 1 305 350 292 361
1699 4 2 1 1 271 319 314 339
1700 4 2 1 1 23 323 328 359
1701 4 2 1 1 287 336 343 355
1702 4 2 1 1 325 349 290 351
1703 4 2 1 1 317 358 311 366
1704 4 2 1 1 299 332 284 344
1705 4 2 1 1 290 349 332 351
1706 4 2 1 1 278 310 325 338
1707 4 2 1 1 295 342 303 362
1708 4 2 1 1 300 363 286 364
1709 4 2 1 1 301 303 259 342
1710 4 2 1 1 259 303 295 342
1711 4 2 1 1 311 358 345 361
1712 4 2 1 1 260 286 300 341
1713 4 2 1 1 300 341 286 363
1714 4 2 1 1 260 300 301 341
1715 4 2 1 1 260 261 259 301
1716 4 2 1 1 259 262 260 301
1717 4 2 1 1 357 335 285 326
1718 4 2 1 1 357 285 335 293
1719 4 2 1 1 281 285 335 326
1720 4 2 1 1 281 335 285 293
1721 4 2 1 1 105 344 321 106
1722 4 2 1 1 321 344 105 340
1723 4 2 1 1 321 109 105 106
1724 4 2 1 1 105 109 321 340
1725 4 2 1 1 91 92 308 95
1726 4 2 1 1 91 308 92 337
1727 4 2 1 1 334 268 309 306
1728 4 2 1 1 334 309 268 331
1729 4 2 1 1 291 350 250 274
1730 4 2 1 1 250 350 291 308
1731 4 2 1 1 339 318 270 319
1732 4 2 1 1 339 270 318 327
1733 4 2 1 1 113 110 359 114
1734 4 2 1 1 113 359 110 321
1735 4 2 1 1 364 61 300 60
1736 4 2 1 1 364 300 61 348
1737 4 2 1 1 7 300 61 60
1738 4 2 1 1 7 61 300 348
1739 4 2 1 1 99 98 307 95
1740 4 2 1 1 307 98 99 351
1741 4 2 1 1 349 106 102 107
1742 4 2 1 1 349 102 106 332
1743 4 2 1 1 334 268 213 269
1744 4 2 1 1 334 213 268 306
1745 4 2 1 1 18 77 296 70
1746 4 2 1 1 18 296 77 358
1747 4 2 1 1 355 296 77 70
1748 4 2 1 1 355 77 296 358
1749 4 2 1 1 124 125 306 73
1750 4 2 1 1 306 343 124 73
1751 4 2 1 1 124 343 306 315
1752 4 2 1 1 74 73 306 125
1753 4 2 1 1 11 82 302 85
1754 4 2 1 1 11 302 82 366
1755 4 2 1 1 360 302 82 85
1756 4 2 1 1 360 82 302 366
1757 4 2 1 1 270 289 298 233
1758 4 2 1 1 270 298 289 304
1759 4 2 1 1 248 294 173 257
1760 4 2 1 1 173 294 248 293
1761 4 2 1 1 107 22 320 195
1762 4 2 1 1 320 22 107 349
1763 4 2 1 1 293 256 281 248
1764 4 2 1 1 293 281 256 285
1765 4 2 1 1 75 317 76 355
1766 4 2 1 1 17 74 309 126
1767 4 2 1 1 17 309 74 334
1768 4 2 1 1 357 5 301 4
1769 4 2 1 1 357 301 5 341
1770 4 2 1 1 84 83 358 80
1771 4 2 1 1 346 21 291 20
1772 4 2 1 1 346 291 21 325
1773 4 2 1 1 317 366 336 75
1774 4 2 1 1 317 336 366 330
1775 4 2 1 1 296 273 209 275
1776 4 2 1 1 296 209 273 269
1777 4 2 1 1 16 120 329 123
1778 4 2 1 1 16 329 120 316
1779 4 2 1 1 14 59 363 57
1780 4 2 1 1 363 59 14 364
1781 4 2 1 1 295 215 336 207
1782 4 2 1 1 295 336 215 294
1783 4 2 1 1 10 75 330 78
1784 4 2 1 1 10 330 75 336
1785 4 2 1 1 366 330 75 78
1786 4 2 1 1 366 75 330 336
1787 4 2 1 1 346 314 274 319
1788 4 2 1 1 346 274 314 324
1789 4 2 1 1 316 239 230 234
1790 4 2 1 1 316 230 239 272
1791 4 2 1 1 356 285 363 299
1792 4 2 1 1 356 363 285 357
1793 4 2 1 1 350 204 305 324
1794 4 2 1 1 350 305 204 89
1795 4 2 1 1 133 305 204 324
1796 4 2 1 1 133 204 305 89
1797 4 2 1 1 286 226 299 285
1798 4 2 1 1 286 299 226 218
1799 4 2 1 1 346 274 350 291
1800 4 2 1 1 346 350 274 324
1801 4 2 1 1 14 105 340 108
1802 4 2 1 1 14 340 105 344
1803 4 2 1 1 310 224 320 219
1804 4 2 1 1 310 320 224 290
1805 4 2 1 1 350 135 346 20
1806 4 2 1 1 350 346 135 324
1807 4 2 1 1 331 128 129 313
1808 4 2 1 1 331 129 128 127
1809 4 2 1 1 44 10 342 47
1810 4 2 1 1 342 10 44 362
1811 4 2 1 1 342 43 44 47
1812 4 2 1 1 44 43 342 362
1813 4 2 1 1 328 31 144 142
1814 4 2 1 1 328 144 31 327
1815 4 2 1 1 302 254 248 283
1816 4 2 1 1 302 248 254 252
1817 4 2 1 1 12 90 326 93
1818 4 2 1 1 12 326 90 335
1819 4 2 1 1 3 294 293 49
1820 4 2 1 1 293 294 3 342
1821 4 2 1 1 48 11 294 49
1822 4 2 1 1 3 48 294 49
1823 4 2 1 1 294 48 3 342
1824 4 2 1 1 360 188 187 86
1825 4 2 1 1 360 187 188 354
1826 4 2 1 1 71 334 17 179
1827 4 2 1 1 17 334 71 331
1828 4 2 1 1 329 362 303 9
1829 4 2 1 1 303 362 329 295
1830 4 2 1 1 224 299 218 222
1831 4 2 1 1 218 299 224 284
1832 4 2 1 1 331 347 269 313
1833 4 2 1 1 269 347 331 298
1834 4 2 1 1 328 141 31 142
1835 4 2 1 1 328 31 141 318
1836 4 2 1 1 301 6 300 7
1837 4 2 1 1 301 300 6 341
1838 4 2 1 1 60 300 6 7
1839 4 2 1 1 358 361 83 84
1840 4 2 1 1 358 83 361 360
1841 4 2 1 1 186 83 361 84
1842 4 2 1 1 186 361 83 360
1843 4 2 1 1 357 301 285 293
1844 4 2 1 1 357 285 301 341
1845 4 2 1 1 363 55 56 341
1846 4 2 1 1 363 56 55 177
1847 4 2 1 1 347 304 270 327
1848 4 2 1 1 347 270 304 298
1849 4 2 1 1 354 308 91 337
1850 4 2 1 1 354 91 308 307
1851 4 2 1 1 329 124 343 72
1852 4 2 1 1 329 343 124 315
1853 4 2 1 1 124 121 306 125
1854 4 2 1 1 124 306 121 315
1855 4 2 1 1 306 121 309 125
1856 4 2 1 1 306 309 121 315
1857 4 2 1 1 309 121 122 125
1858 4 2 1 1 309 122 121 315
1859 4 2 1 1 16 65 348 63
1860 4 2 1 1 16 348 65 303
1861 4 2 1 1 26 34 314 27
1862 4 2 1 1 26 314 34 339
1863 4 2 1 1 28 314 34 27
1864 4 2 1 1 28 34 314 339
1865 4 2 1 1 332 321 349 320
1866 4 2 1 1 332 349 321 106
1867 4 2 1 1 107 349 321 320
1868 4 2 1 1 107 321 349 106
1869 4 2 1 1 51 293 12 52
1870 4 2 1 1 51 12 293 357
1871 4 2 1 1 335 12 293 52
1872 4 2 1 1 335 293 12 357
1873 4 2 1 1 180 343 306 73
1874 4 2 1 1 306 343 180 334
1875 4 2 1 1 306 74 180 73
1876 4 2 1 1 180 74 306 334
1877 4 2 1 1 59 6 300 341
1878 4 2 1 1 300 6 59 60
1879 4 2 1 1 294 48 10 11
1880 4 2 1 1 10 48 294 342
1881 4 2 1 1 75 79 317 366
1882 4 2 1 1 317 79 75 76
1883 4 2 1 1 79 358 317 366
1884 4 2 1 1 317 358 79 76
1885 4 2 1 1 79 80 358 366
1886 4 2 1 1 358 80 79 76
$EndElements
