solid sphere_d0p1
  facet normal 0.9800476330240645 0.19494359482964693 0.038776691953065934
    outer loop
      vertex 0.050000000000000003 0 0
      vertex 0.046193976625564341 0.019134171618254491 0
      vertex 0.046193976625564341 0.017677669529663691 0.0073223304703363135
    endloop
  endfacet
  facet normal 0.9800476330240645 0.16526519968492082 0.11042667602093142
    outer loop
      vertex 0.050000000000000003 0 0
      vertex 0.046193976625564341 0.017677669529663691 0.0073223304703363135
      vertex 0.046193976625564341 0.013529902503654927 0.013529902503654925
    endloop
  endfacet
  facet normal 0.9800476330240645 0.11042667602093147 0.16526519968492084
    outer loop
      vertex 0.050000000000000003 0 0
      vertex 0.046193976625564341 0.013529902503654927 0.013529902503654925
      vertex 0.046193976625564341 0.0073223304703363143 0.017677669529663691
    endloop
  endfacet
  facet normal 0.9800476330240645 0.038776691953065934 0.1949435948296469
    outer loop
      vertex 0.050000000000000003 0 0
      vertex 0.046193976625564341 0.0073223304703363143 0.017677669529663691
      vertex 0.046193976625564341 1.1716301013315747e-18 0.019134171618254491
    endloop
  endfacet
  facet normal 0.9800476330240645 -0.038776691953065934 0.1949435948296469
    outer loop
      vertex 0.050000000000000003 0 0
      vertex 0.046193976625564341 1.1716301013315747e-18 0.019134171618254491
      vertex 0.046193976625564341 -0.0073223304703363117 0.017677669529663691
    endloop
  endfacet
  facet normal 0.9800476330240645 -0.11042667602093142 0.16526519968492084
    outer loop
      vertex 0.050000000000000003 0 0
      vertex 0.046193976625564341 -0.0073223304703363117 0.017677669529663691
      vertex 0.046193976625564341 -0.013529902503654925 0.013529902503654927
    endloop
  endfacet
  facet normal 0.9800476330240645 -0.16526519968492082 0.11042667602093147
    outer loop
      vertex 0.050000000000000003 0 0
      vertex 0.046193976625564341 -0.013529902503654925 0.013529902503654927
      vertex 0.046193976625564341 -0.017677669529663691 0.0073223304703363152
    endloop
  endfacet
  facet normal 0.9800476330240645 -0.19494359482964693 0.038776691953065941
    outer loop
      vertex 0.050000000000000003 0 0
      vertex 0.046193976625564341 -0.017677669529663691 0.0073223304703363152
      vertex 0.046193976625564341 -0.019134171618254491 2.3432602026631494e-18
    endloop
  endfacet
  facet normal 0.9800476330240645 -0.19494359482964693 -0.038776691953065934
    outer loop
      vertex 0.050000000000000003 0 0
      vertex 0.046193976625564341 -0.019134171618254491 2.3432602026631494e-18
      vertex 0.046193976625564341 -0.017677669529663691 -0.0073223304703363109
    endloop
  endfacet
  facet normal 0.9800476330240645 -0.16526519968492087 -0.11042667602093133
    outer loop
      vertex 0.050000000000000003 0 0
      vertex 0.046193976625564341 -0.017677669529663691 -0.0073223304703363109
      vertex 0.046193976625564341 -0.01352990250365493 -0.013529902503654925
    endloop
  endfacet
  facet normal 0.9800476330240645 -0.11042667602093138 -0.16526519968492084
    outer loop
      vertex 0.050000000000000003 0 0
      vertex 0.046193976625564341 -0.01352990250365493 -0.013529902503654925
      vertex 0.046193976625564341 -0.0073223304703363239 -0.017677669529663684
    endloop
  endfacet
  facet normal 0.9800476330240645 -0.038776691953066086 -0.1949435948296469
    outer loop
      vertex 0.050000000000000003 0 0
      vertex 0.046193976625564341 -0.0073223304703363239 -0.017677669529663684
      vertex 0.046193976625564341 -3.5148903039947242e-18 -0.019134171618254491
    endloop
  endfacet
  facet normal 0.9800476330240645 0.038776691953065996 -0.19494359482964696
    outer loop
      vertex 0.050000000000000003 0 0
      vertex 0.046193976625564341 -3.5148903039947242e-18 -0.019134171618254491
      vertex 0.046193976625564341 0.0073223304703363169 -0.017677669529663688
    endloop
  endfacet
  facet normal 0.9800476330240645 0.11042667602093136 -0.16526519968492087
    outer loop
      vertex 0.050000000000000003 0 0
      vertex 0.046193976625564341 0.0073223304703363169 -0.017677669529663688
      vertex 0.046193976625564341 0.013529902503654923 -0.01352990250365493
    endloop
  endfacet
  facet normal 0.9800476330240645 0.16526519968492082 -0.11042667602093144
    outer loop
      vertex 0.050000000000000003 0 0
      vertex 0.046193976625564341 0.013529902503654923 -0.01352990250365493
      vertex 0.046193976625564341 0.017677669529663684 -0.0073223304703363247
    endloop
  endfacet
  facet normal 0.98004763302406461 0.19494359482964693 -0.038776691953066059
    outer loop
      vertex 0.050000000000000003 0 0
      vertex 0.046193976625564341 0.017677669529663684 -0.0073223304703363247
      vertex 0.046193976625564341 0.019134171618254491 0
    endloop
  endfacet
  facet normal 0.82643852154768116 0.55220856565176879 0.10984111308111852
    outer loop
      vertex 0.046193976625564341 0.019134171618254491 0
      vertex 0.035355339059327383 0.035355339059327376 0
      vertex 0.035355339059327383 0.032664074121909414 0.013529902503654925
    endloop
  endfacet
  facet normal 0.82643852154768127 0.55220856565176879 0.10984111308111856
    outer loop
      vertex 0.046193976625564341 0.019134171618254491 0
      vertex 0.035355339059327383 0.032664074121909414 0.013529902503654925
      vertex 0.046193976625564341 0.017677669529663691 0.0073223304703363135
    endloop
  endfacet
  facet normal 0.82643852154768105 0.46813981731439974 0.31280102548892508
    outer loop
      vertex 0.046193976625564341 0.017677669529663691 0.0073223304703363135
      vertex 0.035355339059327383 0.032664074121909414 0.013529902503654925
      vertex 0.035355339059327383 0.025000000000000001 0.024999999999999998
    endloop
  endfacet
  facet normal 0.82643852154768127 0.46813981731439974 0.31280102548892524
    outer loop
      vertex 0.046193976625564341 0.017677669529663691 0.0073223304703363135
      vertex 0.035355339059327383 0.025000000000000001 0.024999999999999998
      vertex 0.046193976625564341 0.013529902503654927 0.013529902503654925
    endloop
  endfacet
  facet normal 0.82643852154768127 0.31280102548892513 0.46813981731439985
    outer loop
      vertex 0.046193976625564341 0.013529902503654927 0.013529902503654925
      vertex 0.035355339059327383 0.025000000000000001 0.024999999999999998
      vertex 0.035355339059327383 0.013529902503654927 0.032664074121909414
    endloop
  endfacet
  facet normal 0.82643852154768116 0.3128010254889253 0.4681398173143998
    outer loop
      vertex 0.046193976625564341 0.013529902503654927 0.013529902503654925
      vertex 0.035355339059327383 0.013529902503654927 0.032664074121909414
      vertex 0.046193976625564341 0.0073223304703363143 0.017677669529663691
    endloop
  endfacet
  facet normal 0.82643852154768116 0.10984111308111862 0.55220856565176879
    outer loop
      vertex 0.046193976625564341 0.0073223304703363143 0.017677669529663691
      vertex 0.035355339059327383 0.013529902503654927 0.032664074121909414
      vertex 0.035355339059327383 2.1648901405887331e-18 0.035355339059327376
    endloop
  endfacet
  facet normal 0.82643852154768127 0.10984111308111856 0.55220856565176879
    outer loop
      vertex 0.046193976625564341 0.0073223304703363143 0.017677669529663691
      vertex 0.035355339059327383 2.1648901405887331e-18 0.035355339059327376
      vertex 0.046193976625564341 1.1716301013315747e-18 0.019134171618254491
    endloop
  endfacet
  facet normal 0.82643852154768116 -0.10984111308111852 0.55220856565176879
    outer loop
      vertex 0.046193976625564341 1.1716301013315747e-18 0.019134171618254491
      vertex 0.035355339059327383 2.1648901405887331e-18 0.035355339059327376
      vertex 0.035355339059327383 -0.013529902503654923 0.032664074121909414
    endloop
  endfacet
  facet normal 0.82643852154768116 -0.10984111308111856 0.55220856565176868
    outer loop
      vertex 0.046193976625564341 1.1716301013315747e-18 0.019134171618254491
      vertex 0.035355339059327383 -0.013529902503654923 0.032664074121909414
      vertex 0.046193976625564341 -0.0073223304703363117 0.017677669529663691
    endloop
  endfacet
  facet normal 0.82643852154768116 -0.31280102548892502 0.46813981731439985
    outer loop
      vertex 0.046193976625564341 -0.0073223304703363117 0.017677669529663691
      vertex 0.035355339059327383 -0.013529902503654923 0.032664074121909414
      vertex 0.035355339059327383 -0.024999999999999998 0.025000000000000001
    endloop
  endfacet
  facet normal 0.82643852154768116 -0.31280102548892508 0.4681398173143998
    outer loop
      vertex 0.046193976625564341 -0.0073223304703363117 0.017677669529663691
      vertex 0.035355339059327383 -0.024999999999999998 0.025000000000000001
      vertex 0.046193976625564341 -0.013529902503654925 0.013529902503654927
    endloop
  endfacet
  facet normal 0.82643852154768116 -0.46813981731439974 0.31280102548892513
    outer loop
      vertex 0.046193976625564341 -0.013529902503654925 0.013529902503654927
      vertex 0.035355339059327383 -0.024999999999999998 0.025000000000000001
      vertex 0.035355339059327383 -0.032664074121909414 0.013529902503654928
    endloop
  endfacet
  facet normal 0.82643852154768116 -0.46813981731439969 0.3128010254889253
    outer loop
      vertex 0.046193976625564341 -0.013529902503654925 0.013529902503654927
      vertex 0.035355339059327383 -0.032664074121909414 0.013529902503654928
      vertex 0.046193976625564341 -0.017677669529663691 0.0073223304703363152
    endloop
  endfacet
  facet normal 0.82643852154768105 -0.55220856565176879 0.10984111308111862
    outer loop
      vertex 0.046193976625564341 -0.017677669529663691 0.0073223304703363152
      vertex 0.035355339059327383 -0.032664074121909414 0.013529902503654928
      vertex 0.035355339059327383 -0.035355339059327376 4.3297802811774661e-18
    endloop
  endfacet
  facet normal 0.82643852154768116 -0.55220856565176879 0.10984111308111857
    outer loop
      vertex 0.046193976625564341 -0.017677669529663691 0.0073223304703363152
      vertex 0.035355339059327383 -0.035355339059327376 4.3297802811774661e-18
      vertex 0.046193976625564341 -0.019134171618254491 2.3432602026631494e-18
    endloop
  endfacet
  facet normal 0.82643852154768116 -0.55220856565176879 -0.10984111308111852
    outer loop
      vertex 0.046193976625564341 -0.019134171618254491 2.3432602026631494e-18
      vertex 0.035355339059327383 -0.035355339059327376 4.3297802811774661e-18
      vertex 0.035355339059327383 -0.032664074121909414 -0.013529902503654921
    endloop
  endfacet
  facet normal 0.82643852154768127 -0.55220856565176879 -0.10984111308111856
    outer loop
      vertex 0.046193976625564341 -0.019134171618254491 2.3432602026631494e-18
      vertex 0.035355339059327383 -0.032664074121909414 -0.013529902503654921
      vertex 0.046193976625564341 -0.017677669529663691 -0.0073223304703363109
    endloop
  endfacet
  facet normal 0.82643852154768127 -0.46813981731439996 -0.31280102548892497
    outer loop
      vertex 0.046193976625564341 -0.017677669529663691 -0.0073223304703363109
      vertex 0.035355339059327383 -0.032664074121909414 -0.013529902503654921
      vertex 0.035355339059327383 -0.025000000000000005 -0.024999999999999998
    endloop
  endfacet
  facet normal 0.82643852154768116 -0.46813981731439996 -0.31280102548892497
    outer loop
      vertex 0.046193976625564341 -0.017677669529663691 -0.0073223304703363109
      vertex 0.035355339059327383 -0.025000000000000005 -0.024999999999999998
      vertex 0.046193976625564341 -0.01352990250365493 -0.013529902503654925
    endloop
  endfacet
  facet normal 0.82643852154768127 -0.31280102548892524 -0.46813981731439974
    outer loop
      vertex 0.046193976625564341 -0.01352990250365493 -0.013529902503654925
      vertex 0.035355339059327383 -0.025000000000000005 -0.024999999999999998
      vertex 0.035355339059327383 -0.013529902503654944 -0.032664074121909407
    endloop
  endfacet
  facet normal 0.82643852154768116 -0.31280102548892508 -0.46813981731439974
    outer loop
      vertex 0.046193976625564341 -0.01352990250365493 -0.013529902503654925
      vertex 0.035355339059327383 -0.013529902503654944 -0.032664074121909407
      vertex 0.046193976625564341 -0.0073223304703363239 -0.017677669529663684
    endloop
  endfacet
  facet normal 0.82643852154768116 -0.10984111308111869 -0.55220856565176846
    outer loop
      vertex 0.046193976625564341 -0.0073223304703363239 -0.017677669529663684
      vertex 0.035355339059327383 -0.013529902503654944 -0.032664074121909407
      vertex 0.035355339059327383 -6.4946704217661992e-18 -0.035355339059327376
    endloop
  endfacet
  facet normal 0.82643852154768105 -0.10984111308111895 -0.55220856565176868
    outer loop
      vertex 0.046193976625564341 -0.0073223304703363239 -0.017677669529663684
      vertex 0.035355339059327383 -6.4946704217661992e-18 -0.035355339059327376
      vertex 0.046193976625564341 -3.5148903039947242e-18 -0.019134171618254491
    endloop
  endfacet
  facet normal 0.82643852154768105 0.10984111308111871 -0.55220856565176868
    outer loop
      vertex 0.046193976625564341 -3.5148903039947242e-18 -0.019134171618254491
      vertex 0.035355339059327383 -6.4946704217661992e-18 -0.035355339059327376
      vertex 0.035355339059327383 0.013529902503654932 -0.032664074121909407
    endloop
  endfacet
  facet normal 0.82643852154768127 0.10984111308111871 -0.55220856565176879
    outer loop
      vertex 0.046193976625564341 -3.5148903039947242e-18 -0.019134171618254491
      vertex 0.035355339059327383 0.013529902503654932 -0.032664074121909407
      vertex 0.046193976625564341 0.0073223304703363169 -0.017677669529663688
    endloop
  endfacet
  facet normal 0.82643852154768116 0.31280102548892502 -0.4681398173143998
    outer loop
      vertex 0.046193976625564341 0.0073223304703363169 -0.017677669529663688
      vertex 0.035355339059327383 0.013529902503654932 -0.032664074121909407
      vertex 0.035355339059327383 0.024999999999999994 -0.025000000000000005
    endloop
  endfacet
  facet normal 0.82643852154768116 0.31280102548892508 -0.46813981731439991
    outer loop
      vertex 0.046193976625564341 0.0073223304703363169 -0.017677669529663688
      vertex 0.035355339059327383 0.024999999999999994 -0.025000000000000005
      vertex 0.046193976625564341 0.013529902503654923 -0.01352990250365493
    endloop
  endfacet
  facet normal 0.82643852154768105 0.46813981731439963 -0.31280102548892541
    outer loop
      vertex 0.046193976625564341 0.013529902503654923 -0.01352990250365493
      vertex 0.035355339059327383 0.024999999999999994 -0.025000000000000005
      vertex 0.035355339059327383 0.032664074121909407 -0.013529902503654946
    endloop
  endfacet
  facet normal 0.82643852154768127 0.46813981731439963 -0.31280102548892524
    outer loop
      vertex 0.046193976625564341 0.013529902503654923 -0.01352990250365493
      vertex 0.035355339059327383 0.032664074121909407 -0.013529902503654946
      vertex 0.046193976625564341 0.017677669529663684 -0.0073223304703363247
    endloop
  endfacet
  facet normal 0.82643852154768127 0.55220856565176868 -0.10984111308111864
    outer loop
      vertex 0.046193976625564341 0.017677669529663684 -0.0073223304703363247
      vertex 0.035355339059327383 0.032664074121909407 -0.013529902503654946
      vertex 0.035355339059327383 0.035355339059327376 0
    endloop
  endfacet
  facet normal 0.82643852154768127 0.55220856565176879 -0.10984111308111891
    outer loop
      vertex 0.046193976625564341 0.017677669529663684 -0.0073223304703363247
      vertex 0.035355339059327383 0.035355339059327376 0
      vertex 0.046193976625564341 0.019134171618254491 0
    endloop
  endfacet
  facet normal 0.54812419193877193 0.82032582431193024 0.16317295173655555
    outer loop
      vertex 0.035355339059327383 0.035355339059327376 0
      vertex 0.019134171618254495 0.046193976625564341 0
      vertex 0.019134171618254495 0.042677669529663689 0.017677669529663691
    endloop
  endfacet
  facet normal 0.54812419193877171 0.82032582431193035 0.16317295173655538
    outer loop
      vertex 0.035355339059327383 0.035355339059327376 0
      vertex 0.019134171618254495 0.042677669529663689 0.017677669529663691
      vertex 0.035355339059327383 0.032664074121909414 0.013529902503654925
    endloop
  endfacet
  facet normal 0.54812419193877193 0.69543865383255399 0.46467725247426694
    outer loop
      vertex 0.035355339059327383 0.032664074121909414 0.013529902503654925
      vertex 0.019134171618254495 0.042677669529663689 0.017677669529663691
      vertex 0.019134171618254495 0.032664074121909414 0.032664074121909414
    endloop
  endfacet
  facet normal 0.54812419193877182 0.69543865383255388 0.46467725247426678
    outer loop
      vertex 0.035355339059327383 0.032664074121909414 0.013529902503654925
      vertex 0.019134171618254495 0.032664074121909414 0.032664074121909414
      vertex 0.035355339059327383 0.025000000000000001 0.024999999999999998
    endloop
  endfacet
  facet normal 0.54812419193877193 0.46467725247426678 0.69543865383255388
    outer loop
      vertex 0.035355339059327383 0.025000000000000001 0.024999999999999998
      vertex 0.019134171618254495 0.032664074121909414 0.032664074121909414
      vertex 0.019134171618254495 0.017677669529663691 0.042677669529663689
    endloop
  endfacet
  facet normal 0.54812419193877171 0.46467725247426689 0.69543865383255399
    outer loop
      vertex 0.035355339059327383 0.025000000000000001 0.024999999999999998
      vertex 0.019134171618254495 0.017677669529663691 0.042677669529663689
      vertex 0.035355339059327383 0.013529902503654927 0.032664074121909414
    endloop
  endfacet
  facet normal 0.54812419193877171 0.1631729517365556 0.82032582431193035
    outer loop
      vertex 0.035355339059327383 0.013529902503654927 0.032664074121909414
      vertex 0.019134171618254495 0.017677669529663691 0.042677669529663689
      vertex 0.019134171618254495 2.828565280719251e-18 0.046193976625564341
    endloop
  endfacet
  facet normal 0.54812419193877193 0.16317295173655538 0.82032582431193035
    outer loop
      vertex 0.035355339059327383 0.013529902503654927 0.032664074121909414
      vertex 0.019134171618254495 2.828565280719251e-18 0.046193976625564341
      vertex 0.035355339059327383 2.1648901405887331e-18 0.035355339059327376
    endloop
  endfacet
  facet normal 0.54812419193877193 -0.16317295173655555 0.82032582431193024
    outer loop
      vertex 0.035355339059327383 2.1648901405887331e-18 0.035355339059327376
      vertex 0.019134171618254495 2.828565280719251e-18 0.046193976625564341
      vertex 0.019134171618254495 -0.017677669529663688 0.042677669529663689
    endloop
  endfacet
  facet normal 0.54812419193877182 -0.16317295173655541 0.82032582431193057
    outer loop
      vertex 0.035355339059327383 2.1648901405887331e-18 0.035355339059327376
      vertex 0.019134171618254495 -0.017677669529663688 0.042677669529663689
      vertex 0.035355339059327383 -0.013529902503654923 0.032664074121909414
    endloop
  endfacet
  facet normal 0.54812419193877182 -0.46467725247426678 0.6954386538325541
    outer loop
      vertex 0.035355339059327383 -0.013529902503654923 0.032664074121909414
      vertex 0.019134171618254495 -0.017677669529663688 0.042677669529663689
      vertex 0.019134171618254495 -0.032664074121909414 0.032664074121909414
    endloop
  endfacet
  facet normal 0.54812419193877182 -0.46467725247426667 0.69543865383255399
    outer loop
      vertex 0.035355339059327383 -0.013529902503654923 0.032664074121909414
      vertex 0.019134171618254495 -0.032664074121909414 0.032664074121909414
      vertex 0.035355339059327383 -0.024999999999999998 0.025000000000000001
    endloop
  endfacet
  facet normal 0.54812419193877204 -0.69543865383255399 0.46467725247426694
    outer loop
      vertex 0.035355339059327383 -0.024999999999999998 0.025000000000000001
      vertex 0.019134171618254495 -0.032664074121909414 0.032664074121909414
      vertex 0.019134171618254495 -0.042677669529663689 0.017677669529663695
    endloop
  endfacet
  facet normal 0.54812419193877182 -0.69543865383255388 0.464677252474267
    outer loop
      vertex 0.035355339059327383 -0.024999999999999998 0.025000000000000001
      vertex 0.019134171618254495 -0.042677669529663689 0.017677669529663695
      vertex 0.035355339059327383 -0.032664074121909414 0.013529902503654928
    endloop
  endfacet
  facet normal 0.54812419193877182 -0.82032582431193057 0.1631729517365556
    outer loop
      vertex 0.035355339059327383 -0.032664074121909414 0.013529902503654928
      vertex 0.019134171618254495 -0.042677669529663689 0.017677669529663695
      vertex 0.019134171618254495 -0.046193976625564341 5.6571305614385021e-18
    endloop
  endfacet
  facet normal 0.54812419193877193 -0.82032582431193035 0.16317295173655538
    outer loop
      vertex 0.035355339059327383 -0.032664074121909414 0.013529902503654928
      vertex 0.019134171618254495 -0.046193976625564341 5.6571305614385021e-18
      vertex 0.035355339059327383 -0.035355339059327376 4.3297802811774661e-18
    endloop
  endfacet
  facet normal 0.54812419193877193 -0.82032582431193035 -0.1631729517365553
    outer loop
      vertex 0.035355339059327383 -0.035355339059327376 4.3297802811774661e-18
      vertex 0.019134171618254495 -0.046193976625564341 5.6571305614385021e-18
      vertex 0.019134171618254495 -0.042677669529663696 -0.017677669529663684
    endloop
  endfacet
  facet normal 0.54812419193877193 -0.82032582431193024 -0.16317295173655536
    outer loop
      vertex 0.035355339059327383 -0.035355339059327376 4.3297802811774661e-18
      vertex 0.019134171618254495 -0.042677669529663696 -0.017677669529663684
      vertex 0.035355339059327383 -0.032664074121909414 -0.013529902503654921
    endloop
  endfacet
  facet normal 0.54812419193877204 -0.69543865383255421 -0.46467725247426661
    outer loop
      vertex 0.035355339059327383 -0.032664074121909414 -0.013529902503654921
      vertex 0.019134171618254495 -0.042677669529663696 -0.017677669529663684
      vertex 0.019134171618254495 -0.032664074121909421 -0.032664074121909414
    endloop
  endfacet
  facet normal 0.54812419193877193 -0.6954386538325541 -0.4646772524742665
    outer loop
      vertex 0.035355339059327383 -0.032664074121909414 -0.013529902503654921
      vertex 0.019134171618254495 -0.032664074121909421 -0.032664074121909414
      vertex 0.035355339059327383 -0.025000000000000005 -0.024999999999999998
    endloop
  endfacet
  facet normal 0.54812419193877204 -0.464677252474267 -0.69543865383255388
    outer loop
      vertex 0.035355339059327383 -0.025000000000000005 -0.024999999999999998
      vertex 0.019134171618254495 -0.032664074121909421 -0.032664074121909414
      vertex 0.019134171618254495 -0.017677669529663716 -0.042677669529663682
    endloop
  endfacet
  facet normal 0.54812419193877193 -0.46467725247426694 -0.69543865383255377
    outer loop
      vertex 0.035355339059327383 -0.025000000000000005 -0.024999999999999998
      vertex 0.019134171618254495 -0.017677669529663716 -0.042677669529663682
      vertex 0.035355339059327383 -0.013529902503654944 -0.032664074121909407
    endloop
  endfacet
  facet normal 0.54812419193877182 -0.16317295173655572 -0.82032582431193024
    outer loop
      vertex 0.035355339059327383 -0.013529902503654944 -0.032664074121909407
      vertex 0.019134171618254495 -0.017677669529663716 -0.042677669529663682
      vertex 0.019134171618254495 -8.4856958421577535e-18 -0.046193976625564341
    endloop
  endfacet
  facet normal 0.54812419193877193 -0.16317295173655566 -0.82032582431193035
    outer loop
      vertex 0.035355339059327383 -0.013529902503654944 -0.032664074121909407
      vertex 0.019134171618254495 -8.4856958421577535e-18 -0.046193976625564341
      vertex 0.035355339059327383 -6.4946704217661992e-18 -0.035355339059327376
    endloop
  endfacet
  facet normal 0.54812419193877193 0.16317295173655569 -0.82032582431193035
    outer loop
      vertex 0.035355339059327383 -6.4946704217661992e-18 -0.035355339059327376
      vertex 0.019134171618254495 -8.4856958421577535e-18 -0.046193976625564341
      vertex 0.019134171618254495 0.017677669529663702 -0.042677669529663682
    endloop
  endfacet
  facet normal 0.54812419193877182 0.16317295173655563 -0.82032582431193035
    outer loop
      vertex 0.035355339059327383 -6.4946704217661992e-18 -0.035355339059327376
      vertex 0.019134171618254495 0.017677669529663702 -0.042677669529663682
      vertex 0.035355339059327383 0.013529902503654932 -0.032664074121909407
    endloop
  endfacet
  facet normal 0.54812419193877193 0.46467725247426683 -0.69543865383255399
    outer loop
      vertex 0.035355339059327383 0.013529902503654932 -0.032664074121909407
      vertex 0.019134171618254495 0.017677669529663702 -0.042677669529663682
      vertex 0.019134171618254495 0.032664074121909407 -0.032664074121909421
    endloop
  endfacet
  facet normal 0.54812419193877182 0.46467725247426672 -0.6954386538325541
    outer loop
      vertex 0.035355339059327383 0.013529902503654932 -0.032664074121909407
      vertex 0.019134171618254495 0.032664074121909407 -0.032664074121909421
      vertex 0.035355339059327383 0.024999999999999994 -0.025000000000000005
    endloop
  endfacet
  facet normal 0.54812419193877182 0.69543865383255365 -0.46467725247426722
    outer loop
      vertex 0.035355339059327383 0.024999999999999994 -0.025000000000000005
      vertex 0.019134171618254495 0.032664074121909407 -0.032664074121909421
      vertex 0.019134171618254495 0.042677669529663682 -0.017677669529663719
    endloop
  endfacet
  facet normal 0.54812419193877193 0.69543865383255365 -0.46467725247426717
    outer loop
      vertex 0.035355339059327383 0.024999999999999994 -0.025000000000000005
      vertex 0.019134171618254495 0.042677669529663682 -0.017677669529663719
      vertex 0.035355339059327383 0.032664074121909407 -0.013529902503654946
    endloop
  endfacet
  facet normal 0.54812419193877193 0.82032582431193024 -0.1631729517365556
    outer loop
      vertex 0.035355339059327383 0.032664074121909407 -0.013529902503654946
      vertex 0.019134171618254495 0.042677669529663682 -0.017677669529663719
      vertex 0.019134171618254495 0.046193976625564341 0
    endloop
  endfacet
  facet normal 0.54812419193877193 0.82032582431193024 -0.16317295173655552
    outer loop
      vertex 0.035355339059327383 0.032664074121909407 -0.013529902503654946
      vertex 0.019134171618254495 0.046193976625564341 0
      vertex 0.035355339059327383 0.035355339059327376 0
    endloop
  endfacet
  facet normal 0.19148045395532276 0.96263724813977936 0.19148045395532276
    outer loop
      vertex 0.019134171618254495 0.046193976625564341 0
      vertex 3.0616169978683832e-18 0.050000000000000003 0
      vertex 3.0616169978683832e-18 0.046193976625564341 0.019134171618254491
    endloop
  endfacet
  facet normal 0.19148045395532282 0.96263724813977924 0.19148045395532282
    outer loop
      vertex 0.019134171618254495 0.046193976625564341 0
      vertex 3.0616169978683832e-18 0.046193976625564341 0.019134171618254491
      vertex 0.019134171618254495 0.042677669529663689 0.017677669529663691
    endloop
  endfacet
  facet normal 0.19148045395532284 0.81608445343888247 0.54529019852590799
    outer loop
      vertex 0.019134171618254495 0.042677669529663689 0.017677669529663691
      vertex 3.0616169978683832e-18 0.046193976625564341 0.019134171618254491
      vertex 3.0616169978683832e-18 0.035355339059327383 0.035355339059327376
    endloop
  endfacet
  facet normal 0.19148045395532295 0.81608445343888225 0.54529019852590799
    outer loop
      vertex 0.019134171618254495 0.042677669529663689 0.017677669529663691
      vertex 3.0616169978683832e-18 0.035355339059327383 0.035355339059327376
      vertex 0.019134171618254495 0.032664074121909414 0.032664074121909414
    endloop
  endfacet
  facet normal 0.1914804539553229 0.5452901985259081 0.81608445343888236
    outer loop
      vertex 0.019134171618254495 0.032664074121909414 0.032664074121909414
      vertex 3.0616169978683832e-18 0.035355339059327383 0.035355339059327376
      vertex 3.0616169978683832e-18 0.019134171618254495 0.046193976625564341
    endloop
  endfacet
  facet normal 0.19148045395532293 0.54529019852590799 0.81608445343888225
    outer loop
      vertex 0.019134171618254495 0.032664074121909414 0.032664074121909414
      vertex 3.0616169978683832e-18 0.019134171618254495 0.046193976625564341
      vertex 0.019134171618254495 0.017677669529663691 0.042677669529663689
    endloop
  endfacet
  facet normal 0.19148045395532293 0.19148045395532279 0.96263724813977936
    outer loop
      vertex 0.019134171618254495 0.017677669529663691 0.042677669529663689
      vertex 3.0616169978683832e-18 0.019134171618254495 0.046193976625564341
      vertex 3.0616169978683832e-18 3.0616169978683832e-18 0.050000000000000003
    endloop
  endfacet
  facet normal 0.19148045395532273 0.1914804539553229 0.96263724813977924
    outer loop
      vertex 0.019134171618254495 0.017677669529663691 0.042677669529663689
      vertex 3.0616169978683832e-18 3.0616169978683832e-18 0.050000000000000003
      vertex 0.019134171618254495 2.828565280719251e-18 0.046193976625564341
    endloop
  endfacet
  facet normal 0.19148045395532273 -0.19148045395532273 0.96263724813977924
    outer loop
      vertex 0.019134171618254495 2.828565280719251e-18 0.046193976625564341
      vertex 3.0616169978683832e-18 3.0616169978683832e-18 0.050000000000000003
      vertex 3.0616169978683832e-18 -0.019134171618254488 0.046193976625564341
    endloop
  endfacet
  facet normal 0.19148045395532282 -0.19148045395532282 0.96263724813977924
    outer loop
      vertex 0.019134171618254495 2.828565280719251e-18 0.046193976625564341
      vertex 3.0616169978683832e-18 -0.019134171618254488 0.046193976625564341
      vertex 0.019134171618254495 -0.017677669529663688 0.042677669529663689
    endloop
  endfacet
  facet normal 0.19148045395532282 -0.54529019852590788 0.81608445343888236
    outer loop
      vertex 0.019134171618254495 -0.017677669529663688 0.042677669529663689
      vertex 3.0616169978683832e-18 -0.019134171618254488 0.046193976625564341
      vertex 3.0616169978683832e-18 -0.035355339059327376 0.035355339059327383
    endloop
  endfacet
  facet normal 0.19148045395532295 -0.54529019852590799 0.81608445343888236
    outer loop
      vertex 0.019134171618254495 -0.017677669529663688 0.042677669529663689
      vertex 3.0616169978683832e-18 -0.035355339059327376 0.035355339059327383
      vertex 0.019134171618254495 -0.032664074121909414 0.032664074121909414
    endloop
  endfacet
  facet normal 0.1914804539553229 -0.81608445343888236 0.5452901985259081
    outer loop
      vertex 0.019134171618254495 -0.032664074121909414 0.032664074121909414
      vertex 3.0616169978683832e-18 -0.035355339059327376 0.035355339059327383
      vertex 3.0616169978683832e-18 -0.046193976625564341 0.019134171618254495
    endloop
  endfacet
  facet normal 0.19148045395532282 -0.81608445343888225 0.54529019852590799
    outer loop
      vertex 0.019134171618254495 -0.032664074121909414 0.032664074121909414
      vertex 3.0616169978683832e-18 -0.046193976625564341 0.019134171618254495
      vertex 0.019134171618254495 -0.042677669529663689 0.017677669529663695
    endloop
  endfacet
  facet normal 0.19148045395532284 -0.96263724813977924 0.19148045395532279
    outer loop
      vertex 0.019134171618254495 -0.042677669529663689 0.017677669529663695
      vertex 3.0616169978683832e-18 -0.046193976625564341 0.019134171618254495
      vertex 3.0616169978683832e-18 -0.050000000000000003 6.1232339957367663e-18
    endloop
  endfacet
  facet normal 0.19148045395532276 -0.96263724813977936 0.19148045395532293
    outer loop
      vertex 0.019134171618254495 -0.042677669529663689 0.017677669529663695
      vertex 3.0616169978683832e-18 -0.050000000000000003 6.1232339957367663e-18
      vertex 0.019134171618254495 -0.046193976625564341 5.6571305614385021e-18
    endloop
  endfacet
  facet normal 0.19148045395532276 -0.96263724813977936 -0.1914804539553224
    outer loop
      vertex 0.019134171618254495 -0.046193976625564341 5.6571305614385021e-18
      vertex 3.0616169978683832e-18 -0.050000000000000003 6.1232339957367663e-18
      vertex 3.0616169978683832e-18 -0.046193976625564348 -0.019134171618254484
    endloop
  endfacet
  facet normal 0.19148045395532282 -0.96263724813977936 -0.19148045395532248
    outer loop
      vertex 0.019134171618254495 -0.046193976625564341 5.6571305614385021e-18
      vertex 3.0616169978683832e-18 -0.046193976625564348 -0.019134171618254484
      vertex 0.019134171618254495 -0.042677669529663696 -0.017677669529663684
    endloop
  endfacet
  facet normal 0.19148045395532284 -0.81608445343888247 -0.54529019852590799
    outer loop
      vertex 0.019134171618254495 -0.042677669529663696 -0.017677669529663684
      vertex 3.0616169978683832e-18 -0.046193976625564348 -0.019134171618254484
      vertex 3.0616169978683832e-18 -0.035355339059327383 -0.035355339059327376
    endloop
  endfacet
  facet normal 0.19148045395532262 -0.81608445343888258 -0.54529019852590788
    outer loop
      vertex 0.019134171618254495 -0.042677669529663696 -0.017677669529663684
      vertex 3.0616169978683832e-18 -0.035355339059327383 -0.035355339059327376
      vertex 0.019134171618254495 -0.032664074121909421 -0.032664074121909414
    endloop
  endfacet
  facet normal 0.19148045395532268 -0.5452901985259081 -0.81608445343888225
    outer loop
      vertex 0.019134171618254495 -0.032664074121909421 -0.032664074121909414
      vertex 3.0616169978683832e-18 -0.035355339059327383 -0.035355339059327376
      vertex 3.0616169978683832e-18 -0.019134171618254519 -0.046193976625564327
    endloop
  endfacet
  facet normal 0.19148045395532259 -0.5452901985259081 -0.81608445343888225
    outer loop
      vertex 0.019134171618254495 -0.032664074121909421 -0.032664074121909414
      vertex 3.0616169978683832e-18 -0.019134171618254519 -0.046193976625564327
      vertex 0.019134171618254495 -0.017677669529663716 -0.042677669529663682
    endloop
  endfacet
  facet normal 0.19148045395532257 -0.19148045395532329 -0.96263724813977924
    outer loop
      vertex 0.019134171618254495 -0.017677669529663716 -0.042677669529663682
      vertex 3.0616169978683832e-18 -0.019134171618254519 -0.046193976625564327
      vertex 3.0616169978683832e-18 -9.1848509936051487e-18 -0.050000000000000003
    endloop
  endfacet
  facet normal 0.19148045395532273 -0.19148045395532304 -0.96263724813977924
    outer loop
      vertex 0.019134171618254495 -0.017677669529663716 -0.042677669529663682
      vertex 3.0616169978683832e-18 -9.1848509936051487e-18 -0.050000000000000003
      vertex 0.019134171618254495 -8.4856958421577535e-18 -0.046193976625564341
    endloop
  endfacet
  facet normal 0.1914804539553227 0.19148045395532293 -0.96263724813977924
    outer loop
      vertex 0.019134171618254495 -8.4856958421577535e-18 -0.046193976625564341
      vertex 3.0616169978683832e-18 -9.1848509936051487e-18 -0.050000000000000003
      vertex 3.0616169978683832e-18 0.019134171618254502 -0.046193976625564334
    endloop
  endfacet
  facet normal 0.19148045395532287 0.19148045395532304 -0.96263724813977924
    outer loop
      vertex 0.019134171618254495 -8.4856958421577535e-18 -0.046193976625564341
      vertex 3.0616169978683832e-18 0.019134171618254502 -0.046193976625564334
      vertex 0.019134171618254495 0.017677669529663702 -0.042677669529663682
    endloop
  endfacet
  facet normal 0.19148045395532282 0.54529019852590799 -0.81608445343888225
    outer loop
      vertex 0.019134171618254495 0.017677669529663702 -0.042677669529663682
      vertex 3.0616169978683832e-18 0.019134171618254502 -0.046193976625564334
      vertex 3.0616169978683832e-18 0.035355339059327369 -0.035355339059327383
    endloop
  endfacet
  facet normal 0.19148045395532262 0.54529019852590788 -0.81608445343888236
    outer loop
      vertex 0.019134171618254495 0.017677669529663702 -0.042677669529663682
      vertex 3.0616169978683832e-18 0.035355339059327369 -0.035355339059327383
      vertex 0.019134171618254495 0.032664074121909407 -0.032664074121909421
    endloop
  endfacet
  facet normal 0.1914804539553227 0.81608445343888214 -0.54529019852590854
    outer loop
      vertex 0.019134171618254495 0.032664074121909407 -0.032664074121909421
      vertex 3.0616169978683832e-18 0.035355339059327369 -0.035355339059327383
      vertex 3.0616169978683832e-18 0.046193976625564327 -0.019134171618254522
    endloop
  endfacet
  facet normal 0.19148045395532259 0.81608445343888203 -0.54529019852590854
    outer loop
      vertex 0.019134171618254495 0.032664074121909407 -0.032664074121909421
      vertex 3.0616169978683832e-18 0.046193976625564327 -0.019134171618254522
      vertex 0.019134171618254495 0.042677669529663682 -0.017677669529663719
    endloop
  endfacet
  facet normal 0.19148045395532257 0.96263724813977913 -0.19148045395532315
    outer loop
      vertex 0.019134171618254495 0.042677669529663682 -0.017677669529663719
      vertex 3.0616169978683832e-18 0.046193976625564327 -0.019134171618254522
      vertex 3.0616169978683832e-18 0.050000000000000003 0
    endloop
  endfacet
  facet normal 0.19148045395532273 0.96263724813977913 -0.19148045395532293
    outer loop
      vertex 0.019134171618254495 0.042677669529663682 -0.017677669529663719
      vertex 3.0616169978683832e-18 0.050000000000000003 0
      vertex 0.019134171618254495 0.046193976625564341 0
    endloop
  endfacet
  facet normal -0.19148045395532273 0.96263724813977936 0.19148045395532287
    outer loop
      vertex 3.0616169978683832e-18 0.050000000000000003 0
      vertex -0.019134171618254488 0.046193976625564341 0
      vertex -0.019134171618254488 0.042677669529663689 0.017677669529663691
    endloop
  endfacet
  facet normal -0.19148045395532284 0.96263724813977924 0.19148045395532273
    outer loop
      vertex 3.0616169978683832e-18 0.050000000000000003 0
      vertex -0.019134171618254488 0.042677669529663689 0.017677669529663691
      vertex 3.0616169978683832e-18 0.046193976625564341 0.019134171618254491
    endloop
  endfacet
  facet normal -0.19148045395532284 0.81608445343888236 0.54529019852590799
    outer loop
      vertex 3.0616169978683832e-18 0.046193976625564341 0.019134171618254491
      vertex -0.019134171618254488 0.042677669529663689 0.017677669529663691
      vertex -0.019134171618254488 0.032664074121909414 0.032664074121909414
    endloop
  endfacet
  facet normal -0.19148045395532295 0.81608445343888247 0.54529019852590799
    outer loop
      vertex 3.0616169978683832e-18 0.046193976625564341 0.019134171618254491
      vertex -0.019134171618254488 0.032664074121909414 0.032664074121909414
      vertex 3.0616169978683832e-18 0.035355339059327383 0.035355339059327376
    endloop
  endfacet
  facet normal -0.19148045395532282 0.54529019852590799 0.81608445343888236
    outer loop
      vertex 3.0616169978683832e-18 0.035355339059327383 0.035355339059327376
      vertex -0.019134171618254488 0.032664074121909414 0.032664074121909414
      vertex -0.019134171618254488 0.017677669529663691 0.042677669529663689
    endloop
  endfacet
  facet normal -0.19148045395532293 0.5452901985259081 0.81608445343888225
    outer loop
      vertex 3.0616169978683832e-18 0.035355339059327383 0.035355339059327376
      vertex -0.019134171618254488 0.017677669529663691 0.042677669529663689
      vertex 3.0616169978683832e-18 0.019134171618254495 0.046193976625564341
    endloop
  endfacet
  facet normal -0.19148045395532287 0.19148045395532287 0.96263724813977924
    outer loop
      vertex 3.0616169978683832e-18 0.019134171618254495 0.046193976625564341
      vertex -0.019134171618254488 0.017677669529663691 0.042677669529663689
      vertex -0.019134171618254488 2.828565280719251e-18 0.046193976625564341
    endloop
  endfacet
  facet normal -0.19148045395532273 0.19148045395532273 0.96263724813977924
    outer loop
      vertex 3.0616169978683832e-18 0.019134171618254495 0.046193976625564341
      vertex -0.019134171618254488 2.828565280719251e-18 0.046193976625564341
      vertex 3.0616169978683832e-18 3.0616169978683832e-18 0.050000000000000003
    endloop
  endfacet
  facet normal -0.1914804539553227 -0.19148045395532282 0.96263724813977924
    outer loop
      vertex 3.0616169978683832e-18 3.0616169978683832e-18 0.050000000000000003
      vertex -0.019134171618254488 2.828565280719251e-18 0.046193976625564341
      vertex -0.019134171618254488 -0.017677669529663688 0.042677669529663689
    endloop
  endfacet
  facet normal -0.19148045395532284 -0.19148045395532273 0.96263724813977924
    outer loop
      vertex 3.0616169978683832e-18 3.0616169978683832e-18 0.050000000000000003
      vertex -0.019134171618254488 -0.017677669529663688 0.042677669529663689
      vertex 3.0616169978683832e-18 -0.019134171618254488 0.046193976625564341
    endloop
  endfacet
  facet normal -0.19148045395532284 -0.54529019852590788 0.81608445343888236
    outer loop
      vertex 3.0616169978683832e-18 -0.019134171618254488 0.046193976625564341
      vertex -0.019134171618254488 -0.017677669529663688 0.042677669529663689
      vertex -0.019134171618254488 -0.032664074121909414 0.032664074121909414
    endloop
  endfacet
  facet normal -0.19148045395532295 -0.54529019852590788 0.81608445343888236
    outer loop
      vertex 3.0616169978683832e-18 -0.019134171618254488 0.046193976625564341
      vertex -0.019134171618254488 -0.032664074121909414 0.032664074121909414
      vertex 3.0616169978683832e-18 -0.035355339059327376 0.035355339059327383
    endloop
  endfacet
  facet normal -0.19148045395532284 -0.81608445343888225 0.54529019852590799
    outer loop
      vertex 3.0616169978683832e-18 -0.035355339059327376 0.035355339059327383
      vertex -0.019134171618254488 -0.032664074121909414 0.032664074121909414
      vertex -0.019134171618254488 -0.042677669529663689 0.017677669529663695
    endloop
  endfacet
  facet normal -0.19148045395532279 -0.81608445343888225 0.5452901985259081
    outer loop
      vertex 3.0616169978683832e-18 -0.035355339059327376 0.035355339059327383
      vertex -0.019134171618254488 -0.042677669529663689 0.017677669529663695
      vertex 3.0616169978683832e-18 -0.046193976625564341 0.019134171618254495
    endloop
  endfacet
  facet normal -0.19148045395532284 -0.96263724813977924 0.1914804539553229
    outer loop
      vertex 3.0616169978683832e-18 -0.046193976625564341 0.019134171618254495
      vertex -0.019134171618254488 -0.042677669529663689 0.017677669529663695
      vertex -0.019134171618254488 -0.046193976625564341 5.6571305614385021e-18
    endloop
  endfacet
  facet normal -0.19148045395532276 -0.96263724813977936 0.19148045395532282
    outer loop
      vertex 3.0616169978683832e-18 -0.046193976625564341 0.019134171618254495
      vertex -0.019134171618254488 -0.046193976625564341 5.6571305614385021e-18
      vertex 3.0616169978683832e-18 -0.050000000000000003 6.1232339957367663e-18
    endloop
  endfacet
  facet normal -0.19148045395532273 -0.96263724813977936 -0.19148045395532248
    outer loop
      vertex 3.0616169978683832e-18 -0.050000000000000003 6.1232339957367663e-18
      vertex -0.019134171618254488 -0.046193976625564341 5.6571305614385021e-18
      vertex -0.019134171618254488 -0.042677669529663696 -0.017677669529663684
    endloop
  endfacet
  facet normal -0.19148045395532279 -0.96263724813977924 -0.19148045395532237
    outer loop
      vertex 3.0616169978683832e-18 -0.050000000000000003 6.1232339957367663e-18
      vertex -0.019134171618254488 -0.042677669529663696 -0.017677669529663684
      vertex 3.0616169978683832e-18 -0.046193976625564348 -0.019134171618254484
    endloop
  endfacet
  facet normal -0.19148045395532279 -0.81608445343888247 -0.54529019852590765
    outer loop
      vertex 3.0616169978683832e-18 -0.046193976625564348 -0.019134171618254484
      vertex -0.019134171618254488 -0.042677669529663696 -0.017677669529663684
      vertex -0.019134171618254488 -0.032664074121909421 -0.032664074121909414
    endloop
  endfacet
  facet normal -0.19148045395532265 -0.81608445343888236 -0.54529019852590799
    outer loop
      vertex 3.0616169978683832e-18 -0.046193976625564348 -0.019134171618254484
      vertex -0.019134171618254488 -0.032664074121909421 -0.032664074121909414
      vertex 3.0616169978683832e-18 -0.035355339059327383 -0.035355339059327376
    endloop
  endfacet
  facet normal -0.19148045395532268 -0.5452901985259081 -0.81608445343888225
    outer loop
      vertex 3.0616169978683832e-18 -0.035355339059327383 -0.035355339059327376
      vertex -0.019134171618254488 -0.032664074121909421 -0.032664074121909414
      vertex -0.019134171618254488 -0.017677669529663716 -0.042677669529663682
    endloop
  endfacet
  facet normal -0.19148045395532262 -0.54529019852590821 -0.81608445343888225
    outer loop
      vertex 3.0616169978683832e-18 -0.035355339059327383 -0.035355339059327376
      vertex -0.019134171618254488 -0.017677669529663716 -0.042677669529663682
      vertex 3.0616169978683832e-18 -0.019134171618254519 -0.046193976625564327
    endloop
  endfacet
  facet normal -0.19148045395532254 -0.19148045395532304 -0.96263724813977924
    outer loop
      vertex 3.0616169978683832e-18 -0.019134171618254519 -0.046193976625564327
      vertex -0.019134171618254488 -0.017677669529663716 -0.042677669529663682
      vertex -0.019134171618254488 -8.4856958421577535e-18 -0.046193976625564341
    endloop
  endfacet
  facet normal -0.19148045395532273 -0.19148045395532323 -0.96263724813977924
    outer loop
      vertex 3.0616169978683832e-18 -0.019134171618254519 -0.046193976625564327
      vertex -0.019134171618254488 -8.4856958421577535e-18 -0.046193976625564341
      vertex 3.0616169978683832e-18 -9.1848509936051487e-18 -0.050000000000000003
    endloop
  endfacet
  facet normal -0.19148045395532273 0.19148045395532301 -0.96263724813977924
    outer loop
      vertex 3.0616169978683832e-18 -9.1848509936051487e-18 -0.050000000000000003
      vertex -0.019134171618254488 -8.4856958421577535e-18 -0.046193976625564341
      vertex -0.019134171618254488 0.017677669529663702 -0.042677669529663682
    endloop
  endfacet
  facet normal -0.19148045395532282 0.19148045395532284 -0.96263724813977924
    outer loop
      vertex 3.0616169978683832e-18 -9.1848509936051487e-18 -0.050000000000000003
      vertex -0.019134171618254488 0.017677669529663702 -0.042677669529663682
      vertex 3.0616169978683832e-18 0.019134171618254502 -0.046193976625564334
    endloop
  endfacet
  facet normal -0.19148045395532282 0.54529019852590777 -0.81608445343888236
    outer loop
      vertex 3.0616169978683832e-18 0.019134171618254502 -0.046193976625564334
      vertex -0.019134171618254488 0.017677669529663702 -0.042677669529663682
      vertex -0.019134171618254488 0.032664074121909407 -0.032664074121909421
    endloop
  endfacet
  facet normal -0.19148045395532259 0.5452901985259081 -0.81608445343888225
    outer loop
      vertex 3.0616169978683832e-18 0.019134171618254502 -0.046193976625564334
      vertex -0.019134171618254488 0.032664074121909407 -0.032664074121909421
      vertex 3.0616169978683832e-18 0.035355339059327369 -0.035355339059327383
    endloop
  endfacet
  facet normal -0.19148045395532268 0.81608445343888203 -0.54529019852590854
    outer loop
      vertex 3.0616169978683832e-18 0.035355339059327369 -0.035355339059327383
      vertex -0.019134171618254488 0.032664074121909407 -0.032664074121909421
      vertex -0.019134171618254488 0.042677669529663682 -0.017677669529663719
    endloop
  endfacet
  facet normal -0.19148045395532259 0.81608445343888214 -0.54529019852590854
    outer loop
      vertex 3.0616169978683832e-18 0.035355339059327369 -0.035355339059327383
      vertex -0.019134171618254488 0.042677669529663682 -0.017677669529663719
      vertex 3.0616169978683832e-18 0.046193976625564327 -0.019134171618254522
    endloop
  endfacet
  facet normal -0.19148045395532254 0.96263724813977924 -0.19148045395532293
    outer loop
      vertex 3.0616169978683832e-18 0.046193976625564327 -0.019134171618254522
      vertex -0.019134171618254488 0.042677669529663682 -0.017677669529663719
      vertex -0.019134171618254488 0.046193976625564341 0
    endloop
  endfacet
  facet normal -0.1914804539553227 0.96263724813977936 -0.19148045395532309
    outer loop
      vertex 3.0616169978683832e-18 0.046193976625564327 -0.019134171618254522
      vertex -0.019134171618254488 0.046193976625564341 0
      vertex 3.0616169978683832e-18 0.050000000000000003 0
    endloop
  endfacet
  facet normal -0.5481241919387716 0.82032582431193046 0.16317295173655536
    outer loop
      vertex -0.019134171618254488 0.046193976625564341 0
      vertex -0.035355339059327376 0.035355339059327383 0
      vertex -0.035355339059327376 0.032664074121909421 0.013529902503654927
    endloop
  endfacet
  facet normal -0.5481241919387716 0.82032582431193057 0.16317295173655558
    outer loop
      vertex -0.019134171618254488 0.046193976625564341 0
      vertex -0.035355339059327376 0.032664074121909421 0.013529902503654927
      vertex -0.019134171618254488 0.042677669529663689 0.017677669529663691
    endloop
  endfacet
  facet normal -0.5481241919387716 0.69543865383255399 0.464677252474267
    outer loop
      vertex -0.019134171618254488 0.042677669529663689 0.017677669529663691
      vertex -0.035355339059327376 0.032664074121909421 0.013529902503654927
      vertex -0.035355339059327376 0.025000000000000005 0.025000000000000001
    endloop
  endfacet
  facet normal -0.54812419193877171 0.6954386538325541 0.46467725247426694
    outer loop
      vertex -0.019134171618254488 0.042677669529663689 0.017677669529663691
      vertex -0.035355339059327376 0.025000000000000005 0.025000000000000001
      vertex -0.019134171618254488 0.032664074121909414 0.032664074121909414
    endloop
  endfacet
  facet normal -0.54812419193877182 0.46467725247426711 0.69543865383255388
    outer loop
      vertex -0.019134171618254488 0.032664074121909414 0.032664074121909414
      vertex -0.035355339059327376 0.025000000000000005 0.025000000000000001
      vertex -0.035355339059327376 0.01352990250365493 0.032664074121909421
    endloop
  endfacet
  facet normal -0.54812419193877149 0.46467725247426694 0.6954386538325541
    outer loop
      vertex -0.019134171618254488 0.032664074121909414 0.032664074121909414
      vertex -0.035355339059327376 0.01352990250365493 0.032664074121909421
      vertex -0.019134171618254488 0.017677669529663691 0.042677669529663689
    endloop
  endfacet
  facet normal -0.54812419193877149 0.16317295173655541 0.82032582431193057
    outer loop
      vertex -0.019134171618254488 0.017677669529663691 0.042677669529663689
      vertex -0.035355339059327376 0.01352990250365493 0.032664074121909421
      vertex -0.035355339059327376 2.1648901405887338e-18 0.035355339059327383
    endloop
  endfacet
  facet normal -0.5481241919387716 0.16317295173655558 0.82032582431193035
    outer loop
      vertex -0.019134171618254488 0.017677669529663691 0.042677669529663689
      vertex -0.035355339059327376 2.1648901405887338e-18 0.035355339059327383
      vertex -0.019134171618254488 2.828565280719251e-18 0.046193976625564341
    endloop
  endfacet
  facet normal -0.54812419193877171 -0.16317295173655536 0.82032582431193057
    outer loop
      vertex -0.019134171618254488 2.828565280719251e-18 0.046193976625564341
      vertex -0.035355339059327376 2.1648901405887338e-18 0.035355339059327383
      vertex -0.035355339059327376 -0.013529902503654925 0.032664074121909421
    endloop
  endfacet
  facet normal -0.5481241919387716 -0.16317295173655558 0.82032582431193057
    outer loop
      vertex -0.019134171618254488 2.828565280719251e-18 0.046193976625564341
      vertex -0.035355339059327376 -0.013529902503654925 0.032664074121909421
      vertex -0.019134171618254488 -0.017677669529663688 0.042677669529663689
    endloop
  endfacet
  facet normal -0.54812419193877149 -0.46467725247426689 0.6954386538325541
    outer loop
      vertex -0.019134171618254488 -0.017677669529663688 0.042677669529663689
      vertex -0.035355339059327376 -0.013529902503654925 0.032664074121909421
      vertex -0.035355339059327376 -0.025000000000000001 0.025000000000000005
    endloop
  endfacet
  facet normal -0.54812419193877171 -0.46467725247426678 0.6954386538325541
    outer loop
      vertex -0.019134171618254488 -0.017677669529663688 0.042677669529663689
      vertex -0.035355339059327376 -0.025000000000000001 0.025000000000000005
      vertex -0.019134171618254488 -0.032664074121909414 0.032664074121909414
    endloop
  endfacet
  facet normal -0.54812419193877182 -0.69543865383255377 0.46467725247426717
    outer loop
      vertex -0.019134171618254488 -0.032664074121909414 0.032664074121909414
      vertex -0.035355339059327376 -0.025000000000000001 0.025000000000000005
      vertex -0.035355339059327376 -0.032664074121909421 0.013529902503654932
    endloop
  endfacet
  facet normal -0.54812419193877149 -0.6954386538325541 0.464677252474267
    outer loop
      vertex -0.019134171618254488 -0.032664074121909414 0.032664074121909414
      vertex -0.035355339059327376 -0.032664074121909421 0.013529902503654932
      vertex -0.019134171618254488 -0.042677669529663689 0.017677669529663695
    endloop
  endfacet
  facet normal -0.5481241919387716 -0.82032582431193057 0.16317295173655541
    outer loop
      vertex -0.019134171618254488 -0.042677669529663689 0.017677669529663695
      vertex -0.035355339059327376 -0.032664074121909421 0.013529902503654932
      vertex -0.035355339059327376 -0.035355339059327383 4.3297802811774677e-18
    endloop
  endfacet
  facet normal -0.54812419193877171 -0.82032582431193046 0.1631729517365556
    outer loop
      vertex -0.019134171618254488 -0.042677669529663689 0.017677669529663695
      vertex -0.035355339059327376 -0.035355339059327383 4.3297802811774677e-18
      vertex -0.019134171618254488 -0.046193976625564341 5.6571305614385021e-18
    endloop
  endfacet
  facet normal -0.5481241919387716 -0.82032582431193046 -0.16317295173655536
    outer loop
      vertex -0.019134171618254488 -0.046193976625564341 5.6571305614385021e-18
      vertex -0.035355339059327376 -0.035355339059327383 4.3297802811774677e-18
      vertex -0.035355339059327376 -0.032664074121909421 -0.013529902503654923
    endloop
  endfacet
  facet normal -0.54812419193877182 -0.82032582431193057 -0.16317295173655527
    outer loop
      vertex -0.019134171618254488 -0.046193976625564341 5.6571305614385021e-18
      vertex -0.035355339059327376 -0.032664074121909421 -0.013529902503654923
      vertex -0.019134171618254488 -0.042677669529663696 -0.017677669529663684
    endloop
  endfacet
  facet normal -0.54812419193877182 -0.69543865383255421 -0.46467725247426656
    outer loop
      vertex -0.019134171618254488 -0.042677669529663696 -0.017677669529663684
      vertex -0.035355339059327376 -0.032664074121909421 -0.013529902503654923
      vertex -0.035355339059327376 -0.025000000000000012 -0.025000000000000001
    endloop
  endfacet
  facet normal -0.54812419193877171 -0.6954386538325541 -0.46467725247426672
    outer loop
      vertex -0.019134171618254488 -0.042677669529663696 -0.017677669529663684
      vertex -0.035355339059327376 -0.025000000000000012 -0.025000000000000001
      vertex -0.019134171618254488 -0.032664074121909421 -0.032664074121909414
    endloop
  endfacet
  facet normal -0.54812419193877171 -0.46467725247426683 -0.6954386538325541
    outer loop
      vertex -0.019134171618254488 -0.032664074121909421 -0.032664074121909414
      vertex -0.035355339059327376 -0.025000000000000012 -0.025000000000000001
      vertex -0.035355339059327376 -0.013529902503654948 -0.032664074121909407
    endloop
  endfacet
  facet normal -0.54812419193877193 -0.464677252474267 -0.69543865383255388
    outer loop
      vertex -0.019134171618254488 -0.032664074121909421 -0.032664074121909414
      vertex -0.035355339059327376 -0.013529902503654948 -0.032664074121909407
      vertex -0.019134171618254488 -0.017677669529663716 -0.042677669529663682
    endloop
  endfacet
  facet normal -0.54812419193877193 -0.16317295173655602 -0.82032582431193024
    outer loop
      vertex -0.019134171618254488 -0.017677669529663716 -0.042677669529663682
      vertex -0.035355339059327376 -0.013529902503654948 -0.032664074121909407
      vertex -0.035355339059327376 -6.4946704217662007e-18 -0.035355339059327383
    endloop
  endfacet
  facet normal -0.5481241919387716 -0.16317295173655574 -0.82032582431193046
    outer loop
      vertex -0.019134171618254488 -0.017677669529663716 -0.042677669529663682
      vertex -0.035355339059327376 -6.4946704217662007e-18 -0.035355339059327383
      vertex -0.019134171618254488 -8.4856958421577535e-18 -0.046193976625564341
    endloop
  endfacet
  facet normal -0.5481241919387716 0.1631729517365556 -0.82032582431193057
    outer loop
      vertex -0.019134171618254488 -8.4856958421577535e-18 -0.046193976625564341
      vertex -0.035355339059327376 -6.4946704217662007e-18 -0.035355339059327383
      vertex -0.035355339059327376 0.013529902503654935 -0.032664074121909414
    endloop
  endfacet
  facet normal -0.54812419193877149 0.16317295173655574 -0.82032582431193046
    outer loop
      vertex -0.019134171618254488 -8.4856958421577535e-18 -0.046193976625564341
      vertex -0.035355339059327376 0.013529902503654935 -0.032664074121909414
      vertex -0.019134171618254488 0.017677669529663702 -0.042677669529663682
    endloop
  endfacet
  facet normal -0.5481241919387716 0.46467725247426672 -0.6954386538325541
    outer loop
      vertex -0.019134171618254488 0.017677669529663702 -0.042677669529663682
      vertex -0.035355339059327376 0.013529902503654935 -0.032664074121909414
      vertex -0.035355339059327376 0.024999999999999998 -0.025000000000000012
    endloop
  endfacet
  facet normal -0.5481241919387716 0.46467725247426689 -0.69543865383255421
    outer loop
      vertex -0.019134171618254488 0.017677669529663702 -0.042677669529663682
      vertex -0.035355339059327376 0.024999999999999998 -0.025000000000000012
      vertex -0.019134171618254488 0.032664074121909407 -0.032664074121909421
    endloop
  endfacet
  facet normal -0.5481241919387716 0.6954386538325541 -0.46467725247426706
    outer loop
      vertex -0.019134171618254488 0.032664074121909407 -0.032664074121909421
      vertex -0.035355339059327376 0.024999999999999998 -0.025000000000000012
      vertex -0.035355339059327376 0.032664074121909407 -0.013529902503654949
    endloop
  endfacet
  facet normal -0.54812419193877182 0.69543865383255365 -0.46467725247426722
    outer loop
      vertex -0.019134171618254488 0.032664074121909407 -0.032664074121909421
      vertex -0.035355339059327376 0.032664074121909407 -0.013529902503654949
      vertex -0.019134171618254488 0.042677669529663682 -0.017677669529663719
    endloop
  endfacet
  facet normal -0.54812419193877193 0.82032582431193035 -0.16317295173655594
    outer loop
      vertex -0.019134171618254488 0.042677669529663682 -0.017677669529663719
      vertex -0.035355339059327376 0.032664074121909407 -0.013529902503654949
      vertex -0.035355339059327376 0.035355339059327383 0
    endloop
  endfacet
  facet normal -0.5481241919387716 0.82032582431193057 -0.16317295173655563
    outer loop
      vertex -0.019134171618254488 0.042677669529663682 -0.017677669529663719
      vertex -0.035355339059327376 0.035355339059327383 0
      vertex -0.019134171618254488 0.046193976625564341 0
    endloop
  endfacet
  facet normal -0.82643852154768127 0.5522085656517689 0.10984111308111845
    outer loop
      vertex -0.035355339059327376 0.035355339059327383 0
      vertex -0.046193976625564341 0.019134171618254495 0
      vertex -0.046193976625564341 0.017677669529663695 0.0073223304703363143
    endloop
  endfacet
  facet normal -0.82643852154768105 0.55220856565176901 0.10984111308111857
    outer loop
      vertex -0.035355339059327376 0.035355339059327383 0
      vertex -0.046193976625564341 0.017677669529663695 0.0073223304703363143
      vertex -0.035355339059327376 0.032664074121909421 0.013529902503654927
    endloop
  endfacet
  facet normal -0.82643852154768116 0.46813981731439996 0.31280102548892541
    outer loop
      vertex -0.035355339059327376 0.032664074121909421 0.013529902503654927
      vertex -0.046193976625564341 0.017677669529663695 0.0073223304703363143
      vertex -0.046193976625564341 0.01352990250365493 0.013529902503654928
    endloop
  endfacet
  facet normal -0.82643852154768105 0.46813981731439996 0.31280102548892535
    outer loop
      vertex -0.035355339059327376 0.032664074121909421 0.013529902503654927
      vertex -0.046193976625564341 0.01352990250365493 0.013529902503654928
      vertex -0.035355339059327376 0.025000000000000005 0.025000000000000001
    endloop
  endfacet
  facet normal -0.82643852154768116 0.31280102548892541 0.4681398173143998
    outer loop
      vertex -0.035355339059327376 0.025000000000000005 0.025000000000000001
      vertex -0.046193976625564341 0.01352990250365493 0.013529902503654928
      vertex -0.046193976625564341 0.0073223304703363152 0.017677669529663695
    endloop
  endfacet
  facet normal -0.82643852154768105 0.31280102548892541 0.46813981731439985
    outer loop
      vertex -0.035355339059327376 0.025000000000000005 0.025000000000000001
      vertex -0.046193976625564341 0.0073223304703363152 0.017677669529663695
      vertex -0.035355339059327376 0.01352990250365493 0.032664074121909421
    endloop
  endfacet
  facet normal -0.82643852154768105 0.10984111308111845 0.55220856565176879
    outer loop
      vertex -0.035355339059327376 0.01352990250365493 0.032664074121909421
      vertex -0.046193976625564341 0.0073223304703363152 0.017677669529663695
      vertex -0.046193976625564341 1.1716301013315749e-18 0.019134171618254495
    endloop
  endfacet
  facet normal -0.82643852154768105 0.10984111308111856 0.55220856565176879
    outer loop
      vertex -0.035355339059327376 0.01352990250365493 0.032664074121909421
      vertex -0.046193976625564341 1.1716301013315749e-18 0.019134171618254495
      vertex -0.035355339059327376 2.1648901405887338e-18 0.035355339059327383
    endloop
  endfacet
  facet normal -0.82643852154768127 -0.10984111308111845 0.5522085656517689
    outer loop
      vertex -0.035355339059327376 2.1648901405887338e-18 0.035355339059327383
      vertex -0.046193976625564341 1.1716301013315749e-18 0.019134171618254495
      vertex -0.046193976625564341 -0.0073223304703363135 0.017677669529663695
    endloop
  endfacet
  facet normal -0.82643852154768105 -0.10984111308111857 0.55220856565176901
    outer loop
      vertex -0.035355339059327376 2.1648901405887338e-18 0.035355339059327383
      vertex -0.046193976625564341 -0.0073223304703363135 0.017677669529663695
      vertex -0.035355339059327376 -0.013529902503654925 0.032664074121909421
    endloop
  endfacet
  facet normal -0.82643852154768105 -0.31280102548892535 0.46813981731439996
    outer loop
      vertex -0.035355339059327376 -0.013529902503654925 0.032664074121909421
      vertex -0.046193976625564341 -0.0073223304703363135 0.017677669529663695
      vertex -0.046193976625564341 -0.013529902503654928 0.01352990250365493
    endloop
  endfacet
  facet normal -0.82643852154768105 -0.31280102548892535 0.46813981731439996
    outer loop
      vertex -0.035355339059327376 -0.013529902503654925 0.032664074121909421
      vertex -0.046193976625564341 -0.013529902503654928 0.01352990250365493
      vertex -0.035355339059327376 -0.025000000000000001 0.025000000000000005
    endloop
  endfacet
  facet normal -0.82643852154768116 -0.4681398173143998 0.31280102548892541
    outer loop
      vertex -0.035355339059327376 -0.025000000000000001 0.025000000000000005
      vertex -0.046193976625564341 -0.013529902503654928 0.01352990250365493
      vertex -0.046193976625564341 -0.017677669529663695 0.0073223304703363169
    endloop
  endfacet
  facet normal -0.82643852154768116 -0.46813981731439985 0.31280102548892547
    outer loop
      vertex -0.035355339059327376 -0.025000000000000001 0.025000000000000005
      vertex -0.046193976625564341 -0.017677669529663695 0.0073223304703363169
      vertex -0.035355339059327376 -0.032664074121909421 0.013529902503654932
    endloop
  endfacet
  facet normal -0.82643852154768105 -0.5522085656517689 0.10984111308111842
    outer loop
      vertex -0.035355339059327376 -0.032664074121909421 0.013529902503654932
      vertex -0.046193976625564341 -0.017677669529663695 0.0073223304703363169
      vertex -0.046193976625564341 -0.019134171618254495 2.3432602026631498e-18
    endloop
  endfacet
  facet normal -0.82643852154768116 -0.55220856565176879 0.10984111308111856
    outer loop
      vertex -0.035355339059327376 -0.032664074121909421 0.013529902503654932
      vertex -0.046193976625564341 -0.019134171618254495 2.3432602026631498e-18
      vertex -0.035355339059327376 -0.035355339059327383 4.3297802811774677e-18
    endloop
  endfacet
  facet normal -0.82643852154768105 -0.5522085656517689 -0.10984111308111842
    outer loop
      vertex -0.035355339059327376 -0.035355339059327383 4.3297802811774677e-18
      vertex -0.046193976625564341 -0.019134171618254495 2.3432602026631498e-18
      vertex -0.046193976625564341 -0.017677669529663695 -0.0073223304703363126
    endloop
  endfacet
  facet normal -0.82643852154768105 -0.55220856565176901 -0.10984111308111857
    outer loop
      vertex -0.035355339059327376 -0.035355339059327383 4.3297802811774677e-18
      vertex -0.046193976625564341 -0.017677669529663695 -0.0073223304703363126
      vertex -0.035355339059327376 -0.032664074121909421 -0.013529902503654923
    endloop
  endfacet
  facet normal -0.82643852154768116 -0.46813981731440019 -0.31280102548892502
    outer loop
      vertex -0.035355339059327376 -0.032664074121909421 -0.013529902503654923
      vertex -0.046193976625564341 -0.017677669529663695 -0.0073223304703363126
      vertex -0.046193976625564341 -0.013529902503654932 -0.013529902503654928
    endloop
  endfacet
  facet normal -0.82643852154768105 -0.46813981731440008 -0.31280102548892502
    outer loop
      vertex -0.035355339059327376 -0.032664074121909421 -0.013529902503654923
      vertex -0.046193976625564341 -0.013529902503654932 -0.013529902503654928
      vertex -0.035355339059327376 -0.025000000000000012 -0.025000000000000001
    endloop
  endfacet
  facet normal -0.82643852154768116 -0.31280102548892519 -0.46813981731439991
    outer loop
      vertex -0.035355339059327376 -0.025000000000000012 -0.025000000000000001
      vertex -0.046193976625564341 -0.013529902503654932 -0.013529902503654928
      vertex -0.046193976625564341 -0.0073223304703363247 -0.017677669529663688
    endloop
  endfacet
  facet normal -0.82643852154768116 -0.31280102548892524 -0.46813981731439996
    outer loop
      vertex -0.035355339059327376 -0.025000000000000012 -0.025000000000000001
      vertex -0.046193976625564341 -0.0073223304703363247 -0.017677669529663688
      vertex -0.035355339059327376 -0.013529902503654948 -0.032664074121909407
    endloop
  endfacet
  facet normal -0.82643852154768094 -0.10984111308111905 -0.5522085656517689
    outer loop
      vertex -0.035355339059327376 -0.013529902503654948 -0.032664074121909407
      vertex -0.046193976625564341 -0.0073223304703363247 -0.017677669529663688
      vertex -0.046193976625564341 -3.5148903039947242e-18 -0.019134171618254495
    endloop
  endfacet
  facet normal -0.82643852154768105 -0.109841113081119 -0.55220856565176879
    outer loop
      vertex -0.035355339059327376 -0.013529902503654948 -0.032664074121909407
      vertex -0.046193976625564341 -3.5148903039947242e-18 -0.019134171618254495
      vertex -0.035355339059327376 -6.4946704217662007e-18 -0.035355339059327383
    endloop
  endfacet
  facet normal -0.82643852154768105 0.1098411130811187 -0.55220856565176901
    outer loop
      vertex -0.035355339059327376 -6.4946704217662007e-18 -0.035355339059327383
      vertex -0.046193976625564341 -3.5148903039947242e-18 -0.019134171618254495
      vertex -0.046193976625564341 0.0073223304703363187 -0.017677669529663691
    endloop
  endfacet
  facet normal -0.82643852154768116 0.10984111308111874 -0.55220856565176901
    outer loop
      vertex -0.035355339059327376 -6.4946704217662007e-18 -0.035355339059327383
      vertex -0.046193976625564341 0.0073223304703363187 -0.017677669529663691
      vertex -0.035355339059327376 0.013529902503654935 -0.032664074121909414
    endloop
  endfacet
  facet normal -0.82643852154768105 0.31280102548892508 -0.46813981731440013
    outer loop
      vertex -0.035355339059327376 0.013529902503654935 -0.032664074121909414
      vertex -0.046193976625564341 0.0073223304703363187 -0.017677669529663691
      vertex -0.046193976625564341 0.013529902503654925 -0.013529902503654932
    endloop
  endfacet
  facet normal -0.82643852154768105 0.31280102548892513 -0.46813981731440002
    outer loop
      vertex -0.035355339059327376 0.013529902503654935 -0.032664074121909414
      vertex -0.046193976625564341 0.013529902503654925 -0.013529902503654932
      vertex -0.035355339059327376 0.024999999999999998 -0.025000000000000012
    endloop
  endfacet
  facet normal -0.82643852154768116 0.46813981731439974 -0.31280102548892547
    outer loop
      vertex -0.035355339059327376 0.024999999999999998 -0.025000000000000012
      vertex -0.046193976625564341 0.013529902503654925 -0.013529902503654932
      vertex -0.046193976625564341 0.017677669529663688 -0.0073223304703363265
    endloop
  endfacet
  facet normal -0.82643852154768094 0.46813981731439996 -0.31280102548892535
    outer loop
      vertex -0.035355339059327376 0.024999999999999998 -0.025000000000000012
      vertex -0.046193976625564341 0.017677669529663688 -0.0073223304703363265
      vertex -0.035355339059327376 0.032664074121909407 -0.013529902503654949
    endloop
  endfacet
  facet normal -0.82643852154768105 0.55220856565176901 -0.109841113081119
    outer loop
      vertex -0.035355339059327376 0.032664074121909407 -0.013529902503654949
      vertex -0.046193976625564341 0.017677669529663688 -0.0073223304703363265
      vertex -0.046193976625564341 0.019134171618254495 0
    endloop
  endfacet
  facet normal -0.82643852154768094 0.5522085656517689 -0.10984111308111894
    outer loop
      vertex -0.035355339059327376 0.032664074121909407 -0.013529902503654949
      vertex -0.046193976625564341 0.019134171618254495 0
      vertex -0.035355339059327376 0.035355339059327383 0
    endloop
  endfacet
  facet normal -0.9800476330240645 0.1949435948296469 0.038776691953065892
    outer loop
      vertex -0.046193976625564341 0.019134171618254495 0
      vertex -0.050000000000000003 0 0
      vertex -0.046193976625564341 0.017677669529663695 0.0073223304703363143
    endloop
  endfacet
  facet normal -0.9800476330240645 0.16526519968492084 0.11042667602093136
    outer loop
      vertex -0.046193976625564341 0.017677669529663695 0.0073223304703363143
      vertex -0.050000000000000003 0 0
      vertex -0.046193976625564341 0.01352990250365493 0.013529902503654928
    endloop
  endfacet
  facet normal -0.9800476330240645 0.11042667602093138 0.16526519968492084
    outer loop
      vertex -0.046193976625564341 0.01352990250365493 0.013529902503654928
      vertex -0.050000000000000003 0 0
      vertex -0.046193976625564341 0.0073223304703363152 0.017677669529663695
    endloop
  endfacet
  facet normal -0.9800476330240645 0.038776691953065892 0.1949435948296469
    outer loop
      vertex -0.046193976625564341 0.0073223304703363152 0.017677669529663695
      vertex -0.050000000000000003 0 0
      vertex -0.046193976625564341 1.1716301013315749e-18 0.019134171618254495
    endloop
  endfacet
  facet normal -0.9800476330240645 -0.038776691953065892 0.1949435948296469
    outer loop
      vertex -0.046193976625564341 1.1716301013315749e-18 0.019134171618254495
      vertex -0.050000000000000003 0 0
      vertex -0.046193976625564341 -0.0073223304703363135 0.017677669529663695
    endloop
  endfacet
  facet normal -0.9800476330240645 -0.11042667602093136 0.16526519968492087
    outer loop
      vertex -0.046193976625564341 -0.0073223304703363135 0.017677669529663695
      vertex -0.050000000000000003 0 0
      vertex -0.046193976625564341 -0.013529902503654928 0.01352990250365493
    endloop
  endfacet
  facet normal -0.9800476330240645 -0.16526519968492079 0.11042667602093138
    outer loop
      vertex -0.046193976625564341 -0.013529902503654928 0.01352990250365493
      vertex -0.050000000000000003 0 0
      vertex -0.046193976625564341 -0.017677669529663695 0.0073223304703363169
    endloop
  endfacet
  facet normal -0.9800476330240645 -0.1949435948296469 0.038776691953065892
    outer loop
      vertex -0.046193976625564341 -0.017677669529663695 0.0073223304703363169
      vertex -0.050000000000000003 0 0
      vertex -0.046193976625564341 -0.019134171618254495 2.3432602026631498e-18
    endloop
  endfacet
  facet normal -0.9800476330240645 -0.19494359482964688 -0.038776691953065885
    outer loop
      vertex -0.046193976625564341 -0.019134171618254495 2.3432602026631498e-18
      vertex -0.050000000000000003 0 0
      vertex -0.046193976625564341 -0.017677669529663695 -0.0073223304703363126
    endloop
  endfacet
  facet normal -0.9800476330240645 -0.16526519968492084 -0.11042667602093129
    outer loop
      vertex -0.046193976625564341 -0.017677669529663695 -0.0073223304703363126
      vertex -0.050000000000000003 0 0
      vertex -0.046193976625564341 -0.013529902503654932 -0.013529902503654928
    endloop
  endfacet
  facet normal -0.9800476330240645 -0.11042667602093134 -0.16526519968492084
    outer loop
      vertex -0.046193976625564341 -0.013529902503654932 -0.013529902503654928
      vertex -0.050000000000000003 0 0
      vertex -0.046193976625564341 -0.0073223304703363247 -0.017677669529663688
    endloop
  endfacet
  facet normal -0.98004763302406461 -0.038776691953066031 -0.19494359482964688
    outer loop
      vertex -0.046193976625564341 -0.0073223304703363247 -0.017677669529663688
      vertex -0.050000000000000003 0 0
      vertex -0.046193976625564341 -3.5148903039947242e-18 -0.019134171618254495
    endloop
  endfacet
  facet normal -0.98004763302406461 0.038776691953065941 -0.19494359482964688
    outer loop
      vertex -0.046193976625564341 -3.5148903039947242e-18 -0.019134171618254495
      vertex -0.050000000000000003 0 0
      vertex -0.046193976625564341 0.0073223304703363187 -0.017677669529663691
    endloop
  endfacet
  facet normal -0.9800476330240645 0.11042667602093134 -0.16526519968492082
    outer loop
      vertex -0.046193976625564341 0.0073223304703363187 -0.017677669529663691
      vertex -0.050000000000000003 0 0
      vertex -0.046193976625564341 0.013529902503654925 -0.013529902503654932
    endloop
  endfacet
  facet normal -0.98004763302406472 0.16526519968492082 -0.11042667602093145
    outer loop
      vertex -0.046193976625564341 0.013529902503654925 -0.013529902503654932
      vertex -0.050000000000000003 0 0
      vertex -0.046193976625564341 0.017677669529663688 -0.0073223304703363265
    endloop
  endfacet
  facet normal -0.98004763302406461 0.1949435948296469 -0.03877669195306601
    outer loop
      vertex -0.046193976625564341 0.017677669529663688 -0.0073223304703363265
      vertex -0.050000000000000003 0 0
      vertex -0.046193976625564341 0.019134171618254495 0
    endloop
  endfacet
endsolid sphere_d0p1
