$MeshFormat
2.2 0 8
$EndMeshFormat
$PhysicalNames
4
2 2 "IN"
2 3 "OUT"
2 4 "CYLINDER_HEX"
3 1 "GAS"
$EndPhysicalNames
$Nodes
58
1 0 -0.002786737275191631 -0.003981053250273758
2 0 0.002786737275191631 -0.003981053250273758
3 0 0.003981053250273758 -0.002786737275191631
4 0 0.003981053250273758 0.002786737275191631
5 0 0.002786737275191631 0.003981053250273758
6 0 -0.002786737275191631 0.003981053250273758
7 0 -0.003981053250273758 0.002786737275191631
8 0 -0.003981053250273758 -0.002786737275191631
9 0.02 -0.01393368637595815 -0.01990526625136879
10 0.02 0.01393368637595815 -0.01990526625136879
11 0.02 0.01990526625136879 -0.01393368637595815
12 0.02 0.01990526625136879 0.01393368637595815
13 0.02 0.01393368637595815 0.01990526625136879
14 0.02 -0.01393368637595815 0.01990526625136879
15 0.02 -0.01990526625136879 0.01393368637595815
16 0.02 -0.01990526625136879 -0.01393368637595815
17 0.08000000000000002 -0.01393368637595815 -0.01990526625136879
18 0.08000000000000002 0.01393368637595815 -0.01990526625136879
19 0.08000000000000002 0.01990526625136879 -0.01393368637595815
20 0.08000000000000002 0.01990526625136879 0.01393368637595815
21 0.08000000000000002 0.01393368637595815 0.01990526625136879
22 0.08000000000000002 -0.01393368637595815 0.01990526625136879
23 0.08000000000000002 -0.01990526625136879 0.01393368637595815
24 0.08000000000000002 -0.01990526625136879 -0.01393368637595815
25 0.1 -0.006270158869181169 -0.008957369813115955
26 0.1 0.006270158869181169 -0.008957369813115955
27 0.1 0.008957369813115955 -0.006270158869181169
28 0.1 0.008957369813115955 0.006270158869181169
29 0.1 0.006270158869181169 0.008957369813115955
30 0.1 -0.006270158869181169 0.008957369813115955
31 0.1 -0.008957369813115955 0.006270158869181169
32 0.1 -0.008957369813115955 -0.006270158869181169
33 0 0 0
34 0.1 0 0
35 -0.05 -0.1 -0.1
36 0.2 -0.1 -0.1
37 0.2 0.1 -0.1
38 -0.05 0.1 -0.1
39 -0.05 -0.1 0.1
40 0.2 -0.1 0.1
41 0.2 0.1 0.1
42 -0.05 0.1 0.1
43 0.04999999999992452 -3.506223089644322e-14 -0.01990526625136879
44 0.04999999999992452 0.01990526625136879 -3.506223089644322e-14
45 0.04999999999992452 3.506223089644322e-14 0.01990526625136879
46 0.04999999999992452 -0.01990526625136879 3.506223089644322e-14
47 0.07500000000000001 0 -0.09999999999999999
48 0.07500000000000001 0 0.09999999999999999
49 0.07500000000000001 -0.09999999999999999 0
50 0.2 0 0
51 0.07500000000000001 0.09999999999999999 0
52 -0.05 0 0
53 0.05310078974332583 -0.03500384168794582 -0.03500382605858519
54 0.0401031818174746 -0.05974925295399609 -0.05974896634949467
55 -0.01452498410039804 0.05836140638491592 0.0004084748850933189
56 -0.01070322792058208 -0.05962783232302052 -0.005259709194125856
57 -0.01132044424150137 -0.006943104211746146 -0.05789327027570984
58 -0.002925096707846062 -0.01789526841521563 0.05523668517167113
$EndNodes
$Elements
277
1 2 2 4 1 1 10 9
2 2 2 4 2 1 2 10
3 2 2 4 3 2 11 10
4 2 2 4 4 2 3 11
5 2 2 4 5 3 12 11
6 2 2 4 6 3 4 12
7 2 2 4 7 4 13 12
8 2 2 4 8 4 5 13
9 2 2 4 9 5 14 13
10 2 2 4 10 5 6 14
11 2 2 4 11 6 15 14
12 2 2 4 12 6 7 15
13 2 2 4 13 7 16 15
14 2 2 4 14 7 8 16
15 2 2 4 15 8 9 16
16 2 2 4 16 1 9 8
17 2 2 4 17 43 17 9
18 2 2 4 17 17 43 18
19 2 2 4 18 10 43 9
20 2 2 4 18 18 43 10
21 2 2 4 19 10 19 18
22 2 2 4 20 10 11 19
23 2 2 4 21 44 19 11
24 2 2 4 21 19 44 20
25 2 2 4 22 12 44 11
26 2 2 4 22 20 44 12
27 2 2 4 23 12 21 20
28 2 2 4 24 12 13 21
29 2 2 4 25 45 21 13
30 2 2 4 25 21 45 22
31 2 2 4 26 14 45 13
32 2 2 4 26 22 45 14
33 2 2 4 27 14 23 22
34 2 2 4 28 14 15 23
35 2 2 4 29 46 23 15
36 2 2 4 29 23 46 24
37 2 2 4 30 16 46 15
38 2 2 4 30 24 46 16
39 2 2 4 31 16 17 24
40 2 2 4 32 9 17 16
41 2 2 4 33 17 26 25
42 2 2 4 34 17 18 26
43 2 2 4 35 18 27 26
44 2 2 4 36 18 19 27
45 2 2 4 37 19 28 27
46 2 2 4 38 19 20 28
47 2 2 4 39 20 29 28
48 2 2 4 40 20 21 29
49 2 2 4 41 21 30 29
50 2 2 4 42 21 22 30
51 2 2 4 43 22 31 30
52 2 2 4 44 22 23 31
53 2 2 4 45 23 32 31
54 2 2 4 46 23 24 32
55 2 2 4 47 24 25 32
56 2 2 4 48 17 25 24
57 2 2 4 49 1 33 2
58 2 2 4 50 25 26 34
59 2 2 4 51 2 33 3
60 2 2 4 52 26 27 34
61 2 2 4 53 3 33 4
62 2 2 4 54 27 28 34
63 2 2 4 55 4 33 5
64 2 2 4 56 28 29 34
65 2 2 4 57 5 33 6
66 2 2 4 58 29 30 34
67 2 2 4 59 6 33 7
68 2 2 4 60 30 31 34
69 2 2 4 61 7 33 8
70 2 2 4 62 31 32 34
71 2 2 4 63 1 8 33
72 2 2 4 64 25 34 32
73 2 2 3 65 35 36 47
74 2 2 3 65 38 35 47
75 2 2 3 65 36 37 47
76 2 2 3 65 37 38 47
77 2 2 3 66 39 40 48
78 2 2 3 66 42 39 48
79 2 2 3 66 40 41 48
80 2 2 3 66 41 42 48
81 2 2 3 67 35 36 49
82 2 2 3 67 39 35 49
83 2 2 3 67 36 40 49
84 2 2 3 67 40 39 49
85 2 2 3 68 36 37 50
86 2 2 3 68 40 36 50
87 2 2 3 68 37 41 50
88 2 2 3 68 41 40 50
89 2 2 3 69 37 38 51
90 2 2 3 69 41 37 51
91 2 2 3 69 38 42 51
92 2 2 3 69 42 41 51
93 2 2 2 70 38 35 52
94 2 2 2 70 35 39 52
95 2 2 2 70 42 38 52
96 2 2 2 70 39 42 52
97 4 2 1 1 27 50 28 34
98 4 2 1 1 31 50 32 34
99 4 2 1 1 30 29 50 34
100 4 2 1 1 26 50 34 25
101 4 2 1 1 29 28 50 34
102 4 2 1 1 34 50 32 25
103 4 2 1 1 50 31 30 34
104 4 2 1 1 50 27 26 34
105 4 2 1 1 28 50 27 51
106 4 2 1 1 47 50 26 25
107 4 2 1 1 29 48 30 50
108 4 2 1 1 49 31 50 32
109 4 2 1 1 23 14 49 22
110 4 2 1 1 15 14 49 23
111 4 2 1 1 19 10 11 51
112 4 2 1 1 12 21 20 51
113 4 2 1 1 25 24 36 32
114 4 2 1 1 29 20 41 28
115 4 2 1 1 22 31 30 40
116 4 2 1 1 27 18 37 26
117 4 2 1 1 42 38 51 55
118 4 2 1 1 47 38 35 57
119 4 2 1 1 35 39 49 56
120 4 2 1 1 42 48 39 58
121 4 2 1 1 18 27 37 19
122 4 2 1 1 22 23 31 40
123 4 2 1 1 20 29 41 21
124 4 2 1 1 24 25 36 17
125 4 2 1 1 25 26 47 17
126 4 2 1 1 28 27 19 51
127 4 2 1 1 21 48 30 29
128 4 2 1 1 23 31 49 32
129 4 2 1 1 49 46 15 23
130 4 2 1 1 48 45 13 21
131 4 2 1 1 47 43 9 17
132 4 2 1 1 19 11 44 51
133 4 2 1 1 16 46 49 24
134 4 2 1 1 20 44 12 51
135 4 2 1 1 43 47 10 18
136 4 2 1 1 48 14 45 22
137 4 2 1 1 40 31 30 50
138 4 2 1 1 41 29 28 50
139 4 2 1 1 26 27 50 37
140 4 2 1 1 50 32 25 36
141 4 2 1 1 48 49 14 22
142 4 2 1 1 49 23 32 24
143 4 2 1 1 48 30 22 21
144 4 2 1 1 18 47 26 17
145 4 2 1 1 19 20 28 51
146 4 2 1 1 21 41 48 29
147 4 2 1 1 27 19 51 37
148 4 2 1 1 47 25 17 36
149 4 2 1 1 23 49 31 40
150 4 2 1 1 38 11 10 51
151 4 2 1 1 18 26 47 37
152 4 2 1 1 22 30 48 40
153 4 2 1 1 28 20 41 51
154 4 2 1 1 24 32 49 36
155 4 2 1 1 20 21 41 51
156 4 2 1 1 49 23 22 40
157 4 2 1 1 46 15 16 49
158 4 2 1 1 9 43 47 10
159 4 2 1 1 45 13 14 48
160 4 2 1 1 44 11 12 51
161 4 2 1 1 47 35 54 57
162 4 2 1 1 49 54 35 56
163 4 2 1 1 8 1 9 57
164 4 2 1 1 6 7 15 58
165 4 2 1 1 48 39 49 40
166 4 2 1 1 41 48 42 51
167 4 2 1 1 47 38 51 37
168 4 2 1 1 29 41 48 50
169 4 2 1 1 49 31 40 50
170 4 2 1 1 50 27 51 37
171 4 2 1 1 25 47 50 36
172 4 2 1 1 40 30 48 50
173 4 2 1 1 32 50 49 36
174 4 2 1 1 26 50 47 37
175 4 2 1 1 50 28 41 51
176 4 2 1 1 8 9 16 57
177 4 2 1 1 6 15 14 58
178 4 2 1 1 10 47 38 51
179 4 2 1 1 9 53 16 54
180 4 2 1 1 48 49 22 40
181 4 2 1 1 48 41 21 51
182 4 2 1 1 23 49 46 24
183 4 2 1 1 22 45 48 21
184 4 2 1 1 43 47 18 17
185 4 2 1 1 44 20 19 51
186 4 2 1 1 51 41 50 37
187 4 2 1 1 50 40 49 36
188 4 2 1 1 41 40 48 50
189 4 2 1 1 37 50 47 36
190 4 2 1 1 47 53 9 54
191 4 2 1 1 16 53 49 54
192 4 2 1 1 8 52 1 57
193 4 2 1 1 6 52 7 58
194 4 2 1 1 11 51 38 55
195 4 2 1 1 13 48 42 58
196 4 2 1 1 42 51 12 55
197 4 2 1 1 38 47 10 57
198 4 2 1 1 52 3 4 33
199 4 2 1 1 52 33 5 6
200 4 2 1 1 33 52 8 7
201 4 2 1 1 2 52 1 33
202 4 2 1 1 33 4 52 5
203 4 2 1 1 2 3 52 33
204 4 2 1 1 33 52 7 6
205 4 2 1 1 52 8 1 33
206 4 2 1 1 12 51 11 55
207 4 2 1 1 9 10 47 57
208 4 2 1 1 13 14 48 58
209 4 2 1 1 15 16 49 56
210 4 2 1 1 4 12 3 55
211 4 2 1 1 1 2 10 57
212 4 2 1 1 5 6 14 58
213 4 2 1 1 7 8 16 56
214 4 2 1 1 9 54 16 57
215 4 2 1 1 52 38 55 57
216 4 2 1 1 35 52 56 57
217 4 2 1 1 52 55 42 58
218 4 2 1 1 39 56 52 58
219 4 2 1 1 3 12 11 55
220 4 2 1 1 10 9 1 57
221 4 2 1 1 5 14 13 58
222 4 2 1 1 16 15 7 56
223 4 2 1 1 8 16 56 57
224 4 2 1 1 7 56 15 58
225 4 2 1 1 47 54 9 57
226 4 2 1 1 16 54 49 56
227 4 2 1 1 4 3 52 55
228 4 2 1 1 1 52 2 57
229 4 2 1 1 7 52 8 56
230 4 2 1 1 5 52 6 58
231 4 2 1 1 54 56 16 57
232 4 2 1 1 8 56 52 57
233 4 2 1 1 52 56 7 58
234 4 2 1 1 35 56 54 57
235 4 2 1 1 16 17 24 53
236 4 2 1 1 49 16 24 53
237 4 2 1 1 17 16 9 53
238 4 2 1 1 9 47 17 53
239 4 2 1 1 35 49 36 54
240 4 2 1 1 35 36 47 54
241 4 2 1 1 38 42 52 55
242 4 2 1 1 35 52 39 56
243 4 2 1 1 52 35 38 57
244 4 2 1 1 39 52 42 58
245 4 2 1 1 18 10 51 47
246 4 2 1 1 51 10 18 19
247 4 2 1 1 51 37 18 47
248 4 2 1 1 18 37 51 19
249 4 2 1 1 21 48 42 13
250 4 2 1 1 42 48 21 51
251 4 2 1 1 42 12 21 13
252 4 2 1 1 21 12 42 51
253 4 2 1 1 48 49 58 14
254 4 2 1 1 48 58 49 39
255 4 2 1 1 15 58 49 14
256 4 2 1 1 11 55 52 3
257 4 2 1 1 52 2 11 3
258 4 2 1 1 13 5 52 4
259 4 2 1 1 13 52 5 58
260 4 2 1 1 2 10 52 11
261 4 2 1 1 2 52 10 57
262 4 2 1 1 52 10 55 11
263 4 2 1 1 52 55 10 57
264 4 2 1 1 55 10 38 11
265 4 2 1 1 55 38 10 57
266 4 2 1 1 42 13 55 12
267 4 2 1 1 42 55 13 58
268 4 2 1 1 52 13 55 58
269 4 2 1 1 49 36 53 24
270 4 2 1 1 17 53 36 24
271 4 2 1 1 17 36 53 47
272 4 2 1 1 58 56 49 39
273 4 2 1 1 58 49 56 15
274 4 2 1 1 4 55 13 12
275 4 2 1 1 4 13 55 52
276 4 2 1 1 54 53 36 47
277 4 2 1 1 54 36 53 49
$EndElements
